<svg width="31" height="20" viewBox="0 0 31 20" fill="none" xmlns="http://www.w3.org/2000/svg">
<path fill-rule="evenodd" clip-rule="evenodd" d="M11.8107 5.43934C12.3964 6.02513 12.3964 6.97487 11.8107 7.56066L5.81066 13.5607C5.22487 14.1464 4.27513 14.1464 3.68934 13.5607L0.68934 10.5607C0.103553 9.97487 0.103553 9.02513 0.68934 8.43934C1.27513 7.85355 2.22487 7.85355 2.81066 8.43934L4.75 10.3787L9.68934 5.43934C10.2751 4.85355 11.2249 4.85355 11.8107 5.43934Z" fill="white" fill-opacity="0.92"/>
<path d="M25.25 5C25.25 2.2375 23.0125 0 20.25 0C17.4875 0 15.25 2.2375 15.25 5C15.25 7.7625 17.4875 10 20.25 10C23.0125 10 25.25 7.7625 25.25 5ZM20.25 12C23.8553 12 30.25 13.2308 30.25 17.5385V18.4081C30.25 19.2873 29.5373 20 28.6581 20H11.8419C10.9627 20 10.25 19.2873 10.25 18.4081V17.5385C10.25 13.2308 16.6447 12 20.25 12Z" fill="white" fill-opacity="0.92"/>
</svg>
