<svg width="31" height="20" viewBox="0 0 31 20" fill="none" xmlns="http://www.w3.org/2000/svg">
<path d="M5.25 5C5.25 2.2375 7.4875 0 10.25 0C13.0125 0 15.25 2.2375 15.25 5C15.25 7.7625 13.0125 10 10.25 10C7.4875 10 5.25 7.7625 5.25 5ZM10.25 12C6.64465 12 0.25 13.2308 0.25 17.5385V18.4081C0.25 19.2873 0.962728 20 1.84192 20H18.6581C19.5373 20 20.25 19.2873 20.25 18.4081V17.5385C20.25 13.2308 13.8553 12 10.25 12ZM24.75 4C23.9216 4 23.25 4.67157 23.25 5.5V8H20.75C19.9216 8 19.25 8.67157 19.25 9.5C19.25 10.3284 19.9216 11 20.75 11H23.25V13.5C23.25 14.3284 23.9216 15 24.75 15C25.5784 15 26.25 14.3284 26.25 13.5V11H28.75C29.5784 11 30.25 10.3284 30.25 9.5C30.25 8.67157 29.5784 8 28.75 8H26.25V5.5C26.25 4.67157 25.5784 4 24.75 4Z" fill="white" fill-opacity="0.92"/>
</svg>
