<svg width="1440" height="1024" viewBox="0 0 1440 1024" fill="none" xmlns="http://www.w3.org/2000/svg">
<path d="M278.778 97.5649C121.241 220.401 -83 459.162 -83 459.162C369.649 492.151 528.975 315.011 731 -171C605.199 -72.2115 440.748 -28.7276 278.778 97.5649Z" fill="#44337A" fill-opacity="0.53"/>
<path d="M1449.78 653.565C1292.24 776.401 1088 1015.16 1088 1015.16C1540.65 1048.15 1699.98 871.011 1902 385C1776.2 483.789 1611.75 527.272 1449.78 653.565Z" fill="#44337A" fill-opacity="0.53"/>
<path d="M1252.44 229.366C1334.12 293.109 1440 417.009 1440 417.009C1205.33 434.127 1122.74 342.204 1018 90C1083.22 141.264 1168.47 163.829 1252.44 229.366Z" fill="#44337A" fill-opacity="0.74"/>
<path d="M183.556 788.352C258.647 847.058 356 961.166 356 961.166C140.241 976.932 64.2968 892.273 -32 660C27.9642 707.213 106.351 727.995 183.556 788.352Z" fill="#44337A" fill-opacity="0.71"/>
<path d="M-172 598C-167.36 512.338 -142.185 468.821 -51.8194 407.347C81.1583 325.497 146.384 308.051 206.215 255.414C305.188 163.4 334.646 97.8519 337 -38" stroke="#6B46C1" stroke-width="4"/>
<path d="M962 1114C966.64 1028.34 991.815 984.821 1082.18 923.347C1215.16 841.497 1280.38 824.051 1340.22 771.414C1439.19 679.4 1468.65 613.852 1471 478" stroke="#6B46C1" stroke-width="4"/>
<path d="M731 1021C735.64 935.338 760.815 891.821 851.181 830.347C984.158 748.497 1049.38 731.051 1109.22 678.414C1208.19 586.4 1237.65 520.852 1240 385" stroke="#6B46C1" stroke-width="4"/>
<path d="M1240 385C1244.64 299.338 1269.81 255.821 1360.18 194.347C1493.16 112.497 1558.38 95.0508 1618.22 42.414C1717.19 -49.6 1746.65 -115.148 1749 -251" stroke="#6B46C1" stroke-width="4"/>
<path d="M0 1001C4.63983 915.338 29.8147 871.821 120.181 810.347C253.158 728.497 318.384 711.051 378.215 658.414C477.188 566.4 506.646 500.852 509 365" stroke="#6B46C1" stroke-width="4"/>
<path d="M509 366C513.64 280.338 538.815 236.821 629.181 175.347C762.158 93.497 827.384 76.0508 887.215 23.414C986.188 -68.6 1015.65 -134.148 1018 -270" stroke="#6B46C1" stroke-width="4"/>
<path d="M317 1024C321.64 938.338 346.815 894.821 437.181 833.347C570.158 751.497 635.384 734.051 695.215 681.414C794.188 589.4 823.646 523.852 826 388" stroke="#6B46C1" stroke-width="4"/>
<path d="M826 389C830.64 303.338 855.815 259.821 946.181 198.347C1079.16 116.497 1144.38 99.0508 1204.22 46.414C1303.19 -45.6 1332.65 -111.148 1335 -247" stroke="#6B46C1" stroke-width="4"/>
<path d="M222 385C217.36 299.338 192.185 255.821 101.819 194.347C-31.1583 112.497 -96.3839 95.0508 -156.215 42.414C-255.188 -49.6 -284.646 -115.148 -287 -251" stroke="#6B46C1" stroke-width="4"/>
<path d="M875 572C870.36 486.338 845.185 442.821 754.819 381.347C621.842 299.497 556.616 282.051 496.785 229.414C397.812 137.4 368.354 71.8519 366 -64" stroke="#6B46C1" stroke-width="4"/>
<path d="M366 1208C370.64 1122.34 395.815 1078.82 486.181 1017.35C619.158 935.497 684.384 918.051 744.215 865.414C843.188 773.4 872.646 707.852 875 572" stroke="#6B46C1" stroke-width="4"/>
<path d="M731 1021C726.36 935.338 701.185 891.821 610.819 830.347C477.842 748.497 412.616 731.051 352.785 678.414C253.812 586.4 224.354 520.852 222 385" stroke="#6B46C1" stroke-width="4"/>
</svg>
