<svg width="64" height="64" viewBox="0 0 64 64" fill="none" xmlns="http://www.w3.org/2000/svg">
<path d="M27.2883 63.6683C24.3228 63.2463 19.3629 61.5717 16.5971 60.0587C8.31708 55.529 2.47668 47.5774 0.483616 38.1204C-0.159418 35.0692 -0.161563 28.9146 0.479349 25.8735C2.66838 15.4866 9.62619 6.81324 19.0224 2.75843C26.4313 -0.43877 34.0506 -0.859763 41.5862 1.5117C47.1578 3.26507 51.1167 5.75545 55.3262 10.1549C61.0804 16.1688 64 23.5174 64 31.9868C64 40.4563 61.0804 47.8049 55.3262 53.8188C51.125 58.2096 47.1562 60.7091 41.6188 62.4517C36.792 63.9707 32.1702 64.363 27.2883 63.6683ZM39.3176 61.9821C47.9263 59.9884 55.7515 53.7551 59.8648 45.6149C60.3442 44.6661 61.1763 42.5702 61.7139 40.9572C62.6376 38.186 62.6913 37.6923 62.6913 31.9868C62.6913 26.2814 62.6376 25.7877 61.7139 23.0165C58.7711 14.1869 52.9593 7.62392 44.7175 3.82303C37.6204 0.550067 28.6181 0.252151 21.0664 3.04033C12.1267 6.34101 4.71112 14.4654 1.97671 23.9547C1.32472 26.2173 1.20318 27.4794 1.20318 31.9868C1.20318 36.4943 1.32472 37.7563 1.97671 40.019C3.72464 46.0849 7.8583 52.3515 12.5059 55.9813C20.4717 62.2024 29.5719 64.2392 39.3176 61.9821ZM28.7798 55.4663C22.7506 54.5153 16.7081 51.1479 15.3757 47.9964C15.1272 47.4086 14.3695 46.5857 13.6919 46.1676C12.0806 45.1737 11.0423 43.4535 11.0423 41.7779C11.0423 40.7242 10.8117 40.2202 9.96406 39.4216C8.96564 38.481 8.89918 38.2761 9.06677 36.6554C9.19121 35.4519 9.09613 34.6981 8.76242 34.2425C7.5847 32.6349 8.76372 29.2172 11.1116 27.4329C14.7621 24.6587 21.8859 22.4502 34.2014 20.2747C36.3877 19.8884 38.6431 19.435 39.2135 19.2669C41.2863 18.6561 38.9938 18.3586 32.3003 18.3697C26.666 18.3791 25.2908 18.4909 22.6219 19.1568C18.4395 20.2004 16.3029 21.0192 12.5274 23.0251C9.71589 24.5189 9.37811 24.6267 9.62206 23.9522C10.229 22.2741 17.1407 18.9055 23.0512 17.4072C25.685 16.7395 26.9322 16.6437 32.646 16.6695C36.2581 16.6859 39.9752 16.8628 40.9062 17.0627C42.4894 17.4026 42.6543 17.3708 43.4546 16.572C43.9253 16.1022 44.1746 15.5928 44.0087 15.44C43.209 14.7033 38.8379 13.9754 34.1592 13.7998C30.2607 13.6535 28.2856 13.7469 25.5215 14.2082C21.13 14.9412 16.7606 16.1798 14.4581 17.3444C12.7809 18.1927 12.7406 18.1968 13.1245 17.4809C13.9533 15.9352 20.5507 13.6012 27.2532 12.4826C31.4852 11.7763 37.1123 11.9199 41.0525 12.8349C42.4442 13.158 43.6632 13.3423 43.7614 13.2443C44.0714 12.9349 42.275 11.9512 39.6622 10.9998C37.2773 10.1313 36.8092 10.0824 31.0905 10.104C25.6393 10.1245 24.7597 10.213 22.1898 10.9996C20.6214 11.4797 19.3381 11.8213 19.3381 11.7587C19.3381 11.4722 22.1673 10.2521 24.3544 9.59537C32.9405 7.01721 43.3728 8.93356 46.5546 13.6734C46.9903 14.3224 47.8499 15.153 48.4649 15.5191C50.4218 16.6842 51.8105 18.2463 52.0432 19.5443C52.1644 20.2205 52.7094 21.2183 53.2543 21.7614C54.5309 23.0338 55.1709 25.0479 54.6233 26.0693C54.2955 26.6806 54.3578 26.9857 54.9826 27.8291C56.3379 29.6589 55.7254 31.9599 53.3225 34.0658C51.5886 35.5854 47.1488 37.6267 43.6396 38.5179C41.2499 39.1247 29.5806 41.2783 28.4981 41.3124C28.308 41.3183 28.4175 41.4775 28.7414 41.666C29.0654 41.8546 30.9695 42.1916 32.9726 42.4151C39.0764 43.0959 46.1386 41.9547 52.6077 39.2424C53.891 38.7043 54.9409 38.393 54.9409 38.5506C54.9409 39.5626 49.7323 41.7819 44.3983 43.0426C37.9634 44.5635 32.3779 44.5614 26.1861 43.036C24.1599 42.5368 23.2389 42.461 22.3099 42.7171C20.4677 43.2248 20.5282 43.5959 22.5777 44.3612C30.6387 47.3717 39.9351 47.4596 49.7627 44.6184C53.0077 43.6803 53.3208 44.1703 50.259 45.3954C41.4726 48.9108 30.0904 49.1407 21.6502 45.9732C18.8116 44.9079 18.4189 44.8369 17.9555 45.3054C17.4942 45.7718 17.5112 45.8845 18.109 46.3268C19.0356 47.0124 23.7919 48.8134 26.932 49.6677C29.0342 50.2397 30.5991 50.379 35.0656 50.3918C40.4323 50.4071 42.1357 50.1864 48.0277 48.7125C48.8687 48.5022 48.8735 48.5112 48.2069 49.0497C47.3763 49.7207 43.1158 51.0949 40.0623 51.6768C36.9918 52.2619 30.7236 52.2658 27.8068 51.6844C25.4648 51.2177 22.368 50.2496 19.511 49.091L18.1283 48.5304L19.3381 49.597C21.2906 51.3185 25.8983 53.3705 29.0978 53.9434C32.2493 54.5078 36.8974 54.3424 40.3409 53.5434C41.4287 53.291 42.3644 53.1302 42.4204 53.186C42.5708 53.3362 39.0819 54.6706 37.4852 55.0735C35.4641 55.5835 30.8445 55.792 28.7798 55.4663ZM15.5359 43.7091C15.5359 43.307 14.1569 42.5636 13.8953 42.8247C13.6068 43.1128 14.8811 44.4256 15.2364 44.2064C15.4011 44.1047 15.5359 43.881 15.5359 43.7091ZM18.6468 41.4857L19.511 41.0036L17.8732 40.276C16.5661 39.6954 16.089 39.6267 15.5104 39.9358C14.713 40.3617 14.7498 40.4435 16.1382 41.3319C17.3071 42.0798 17.5547 42.095 18.6468 41.4857ZM23.9779 39.5872C24.4633 39.403 28.5566 38.5554 33.074 37.7036C45.1432 35.4278 50.3409 33.7191 52.1405 31.4355C52.8321 30.558 53.0751 29.5495 52.688 29.1631C52.5896 29.0649 51.1508 29.6569 49.4907 30.4787C45.8908 32.2606 40.8337 33.5893 31.392 35.2338C24.3342 36.463 18.9925 37.7373 18.9925 38.1918C18.9925 38.4691 21.9799 39.8461 22.6858 39.8943C22.9111 39.9096 23.4925 39.7715 23.9779 39.5872ZM13.1163 38.1889C13.1163 37.7867 11.7373 37.0434 11.4757 37.3045C11.1872 37.5925 12.4615 38.9053 12.8168 38.6861C12.9815 38.5845 13.1163 38.3608 13.1163 38.1889ZM16.9371 35.7725C18.9891 34.7277 23.9513 33.5059 30.9177 32.3302C34.3397 31.7527 39.0838 30.8073 41.4602 30.2293C45.9914 29.1273 50.5749 27.2967 50.2236 26.7294C50.1101 26.5461 49.5034 26.1819 48.8752 25.9199C47.8213 25.4804 47.4578 25.533 44.1646 26.6016C42.2019 27.2385 39.1184 28.023 37.3123 28.3448C29.0391 29.8191 23.0763 31.0581 20.3751 31.8642C17.3875 32.7557 13.462 34.6096 13.462 35.129C13.462 35.3559 15.0322 36.3988 15.4633 36.4582C15.5184 36.4658 16.1816 36.1573 16.9371 35.7725ZM15.1423 30.7123C18.0494 29.4247 22.2863 28.3073 29.2907 26.9812C38.5647 25.2253 42.6302 24.3571 42.9471 24.0646C43.3177 23.7226 39.6994 23.0165 37.5768 23.0165C34.6981 23.0165 28.3973 24.061 22.8947 25.4505C14.8766 27.4752 10.6967 29.7115 10.6967 31.9764C10.6967 33.3511 11.0178 33.4493 12.2137 32.4404C12.8052 31.9414 14.1231 31.1638 15.1423 30.7123ZM52.0377 23.8951C51.793 22.9218 51.0977 22.7518 50.4666 23.5109C50.1331 23.9119 50.2393 24.1017 51.0291 24.5155C52.1945 25.1263 52.3269 25.0449 52.0377 23.8951ZM47.6052 22.1344C48.0277 21.839 48.3734 21.4651 48.3734 21.3035C48.3734 21.1419 47.4388 20.6947 46.2966 20.3097L44.2197 19.6096L42.8068 20.4107L41.3939 21.2117L43.5874 21.9052C46.3419 22.776 46.6614 22.7942 47.6052 22.1344ZM49.0647 18.9408C49.0647 18.7866 48.6037 18.2195 48.0402 17.6807C47.1728 16.8511 46.9326 16.7699 46.4733 17.1504C45.7154 17.7782 45.9726 18.2406 47.3573 18.74C48.8223 19.2684 49.0647 19.2969 49.0647 18.9408Z" fill="#00457C"/>
</svg>
