<svg width="88" height="64" viewBox="0 0 88 64" fill="none" xmlns="http://www.w3.org/2000/svg">
<path d="M14.526 0.692V16.832H10.53V10.837H3.99698V16.908H0.000976562V0.769H3.99698V7.225H10.53V0.769H14.526V0.692ZM60.637 16.831H56.641V8.761L53.029 14.295H50.799L47.188 8.685V16.831H43.192V0.692H46.189L51.876 9.3L57.563 0.692H60.56V16.832L60.637 16.831ZM28.897 0.000999987C22.518 0.000999987 17.369 4.919 17.369 10.991C17.369 13.142 17.984 15.141 19.137 16.831H24.67C22.98 15.525 21.904 13.527 21.904 11.221C21.904 7.378 25.054 4.228 28.897 4.228C32.74 4.228 35.891 7.378 35.891 11.221C35.891 13.527 34.815 15.525 33.124 16.831H38.657C39.733 15.141 40.425 13.142 40.425 10.991C40.424 4.919 35.274 0 28.897 0V0.000999987Z" fill="#C8102E"/>
<path d="M25.1309 12.835C25.6689 14.449 27.1299 15.602 28.8969 15.602C30.6649 15.602 32.1249 14.449 32.6629 12.835H25.1309ZM67.9379 4.22799V7.14799H75.0849V10.529H67.9379V13.296H76.0839V16.754H63.8639V0.61499H76.0839V4.07399H67.9379V4.22799ZM13.972 58.682C13.972 61.372 11.82 63.139 8.20799 63.139H0.0619965V47H7.74699C11.282 47 13.281 48.691 13.281 51.304C13.281 52.764 12.435 54.378 11.051 54.839C12.973 55.3 13.972 56.991 13.972 58.682ZM4.058 50.305V53.686H7.056C8.593 53.686 9.43799 52.918 9.43799 51.919C9.43799 50.919 8.593 50.382 7.056 50.382H4.058V50.305ZM10.053 58.144C10.053 57.144 9.20699 56.607 7.74699 56.607H4.058V59.835H7.67C9.284 59.835 10.053 59.143 10.053 58.144ZM26.345 60.373H19.505L18.43 63.139H14.126L20.966 47H24.808L31.648 63.14H27.344L26.345 60.373ZM25.039 57.068L22.887 51.611L20.735 57.068H25.039ZM47.864 47V63.14H44.79L37.028 54.301V63.139H33.032V47H36.106L43.868 56.069V47H47.864ZM57.624 57.145L55.242 59.911V63.217H51.245V47.077H55.242V54.455L61.697 47.077H66.462L60.314 54.147L67 63.217H62.005L57.624 57.145ZM28.9331 40.116L25.8591 35.428H22.8621V40.116H18.7891V23.977H25.8591C29.8561 23.977 32.5451 26.129 32.5451 29.664C32.5451 31.739 31.5461 33.507 29.8551 34.506L33.6211 40.116H28.9331ZM22.7851 31.894H25.7831C27.3201 31.894 28.5491 31.049 28.5491 29.742C28.5491 28.436 27.3191 27.59 25.7831 27.59H22.7851V31.894ZM39.6161 27.513V30.433H46.7631V33.814H39.6161V36.581H47.7621V40.039H35.5421V23.9H47.7621V27.359H39.6161V27.513ZM65.6691 32.047C65.6691 36.812 62.0571 40.193 56.9841 40.193H50.5291V24.054H56.9841C61.9801 23.977 65.6691 27.282 65.6691 32.047ZM61.5951 32.047C61.5951 29.587 59.5971 27.667 56.9851 27.667H54.5251V36.581H56.9851C59.5971 36.504 61.5951 34.583 61.5951 32.047ZM71.8171 23.977V40.117H67.8201V23.976L71.8171 23.977ZM87.1871 27.589H82.5761V40.116H78.5801V27.589H73.9691V23.977H87.1871V27.589ZM12.2571 34.352C11.6421 35.812 10.3351 36.735 8.56709 36.735C5.95509 36.735 4.11008 34.813 4.11008 32.124C4.11008 29.434 5.95508 27.513 8.56808 27.513C10.3351 27.513 11.6421 28.358 12.2571 29.895H16.4831C15.6381 26.206 12.6411 23.747 8.56808 23.747C3.72608 23.747 0.0380859 27.282 0.0380859 32.124C0.0380859 36.965 3.72608 40.5 8.56808 40.5C12.6411 40.5 15.6381 38.041 16.4831 34.352H12.2571Z" fill="#C8102E"/>
</svg>
