<svg width="66" height="65" viewBox="0 0 66 65" fill="none" xmlns="http://www.w3.org/2000/svg">
<path d="M16.0369 55.1619C22.2794 57.2086 25.5045 55.1619 25.5045 55.1619C21.5988 52.0444 20.2138 50.1568 20.2138 46.062C20.2138 41.9673 21.9573 27.9517 20.2138 21.4933C19.2234 17.825 18.1829 15.3635 16.3247 13.5463C14.9115 12.1642 13.0252 11.1548 10.3284 10.2706C4.08589 8.22384 1 10.1192 1 10.1192C4.90573 13.2367 6.15151 15.2756 6.15151 19.3704C6.15151 23.4652 4.40793 37.4807 6.15151 43.9391C7.8951 50.3975 9.79432 53.1151 16.0369 55.1619Z" fill="url(#paint0_linear_277_520)"/>
<path d="M25.5045 55.1619L25.7724 55.584L26.3643 55.2084L25.8164 54.7711L25.5045 55.1619ZM6.15151 43.9391L6.63423 43.8088L6.15151 43.9391ZM1 10.1192L0.738315 9.69316L0.131597 10.0658L0.688084 10.51L1 10.1192ZM10.3284 10.2706L10.4842 9.79547V9.79547L10.3284 10.2706ZM20.2138 21.4933L19.731 21.6236L20.2138 21.4933ZM16.3247 13.5463L16.6743 13.1889L16.3247 13.5463ZM25.5045 55.1619C25.2366 54.7397 25.2368 54.7395 25.2371 54.7394C25.2372 54.7393 25.2374 54.7392 25.2375 54.7391C25.2378 54.7389 25.238 54.7388 25.2382 54.7387C25.2385 54.7385 25.2387 54.7384 25.2387 54.7384C25.2386 54.7385 25.2377 54.739 25.2361 54.74C25.2328 54.7419 25.2265 54.7457 25.2171 54.7511C25.1983 54.762 25.1672 54.7794 25.1239 54.8018C25.0372 54.8467 24.9016 54.9118 24.7174 54.9854C24.3492 55.1326 23.7865 55.3141 23.032 55.4358C21.526 55.6786 19.2398 55.6858 16.1926 54.6867L15.8811 55.637C19.0765 56.6847 21.524 56.6919 23.1912 56.423C24.0233 56.2888 24.6571 56.0865 25.0887 55.9139C25.3044 55.8277 25.4695 55.7489 25.5836 55.6898C25.6406 55.6603 25.6849 55.6357 25.7164 55.6176C25.7322 55.6085 25.7447 55.601 25.754 55.5954C25.7587 55.5926 25.7626 55.5902 25.7656 55.5883C25.7672 55.5873 25.7685 55.5865 25.7696 55.5858C25.7702 55.5854 25.7707 55.5851 25.7712 55.5848C25.7714 55.5847 25.7717 55.5845 25.7718 55.5844C25.7721 55.5842 25.7724 55.584 25.5045 55.1619ZM16.1926 54.6867C13.1182 53.6787 11.1793 52.5268 9.78892 50.8821C8.38969 49.2269 7.50174 47.0221 6.63423 43.8088L5.6688 44.0694C6.54488 47.3145 7.47833 49.6978 9.02524 51.5277C10.581 53.368 12.713 54.5982 15.8811 55.637L16.1926 54.6867ZM6.63423 43.8088C5.78575 40.6659 5.77877 35.6237 5.99716 30.791C6.10582 28.3863 6.26884 26.0547 6.40516 24.0627C6.54083 22.0799 6.65151 20.4154 6.65151 19.3704H5.65151C5.65151 20.3728 5.54425 21.9957 5.40749 23.9944C5.27137 25.9837 5.10746 28.3274 4.99818 30.7458C4.78067 35.5592 4.77369 40.7539 5.6688 44.0694L6.63423 43.8088ZM6.65151 19.3704C6.65151 17.2688 6.33113 15.642 5.47542 14.1318C4.62762 12.6356 3.27868 11.2983 1.31192 9.72843L0.688084 10.51C2.62704 12.0576 3.85386 13.2985 4.60539 14.6248C5.349 15.9372 5.65151 17.3773 5.65151 19.3704H6.65151ZM1 10.1192C1.26168 10.5453 1.26141 10.5454 1.26114 10.5456C1.26107 10.5456 1.26082 10.5458 1.26067 10.5459C1.26038 10.5461 1.26013 10.5462 1.25994 10.5463C1.25954 10.5466 1.25932 10.5467 1.25929 10.5467C1.25924 10.5468 1.25992 10.5464 1.26133 10.5455C1.26417 10.5439 1.26996 10.5405 1.27871 10.5357C1.29621 10.526 1.32553 10.5102 1.3667 10.4898C1.44902 10.4491 1.57872 10.3897 1.75596 10.3229C2.11024 10.1895 2.65533 10.0261 3.39282 9.92251C4.8653 9.71565 7.12038 9.74495 10.1726 10.7457L10.4842 9.79547C7.29392 8.74947 4.8848 8.70309 3.2537 8.93223C2.4394 9.04663 1.82286 9.22916 1.40346 9.38714C1.19386 9.46609 1.0337 9.53882 0.92288 9.59371C0.867472 9.62115 0.8244 9.64413 0.793646 9.66119C0.778269 9.66972 0.765972 9.67677 0.756751 9.68216C0.752141 9.68485 0.748299 9.68713 0.745227 9.68897C0.743691 9.68989 0.742346 9.69071 0.741195 9.6914C0.740619 9.69175 0.740091 9.69208 0.739611 9.69237C0.739371 9.69251 0.739047 9.69271 0.738927 9.69279C0.738615 9.69298 0.738315 9.69316 1 10.1192ZM19.731 21.6236C20.5795 24.7665 20.5865 29.8088 20.3681 34.6415C20.2595 37.0461 20.0964 39.3777 19.9601 41.3698C19.8244 43.3525 19.7138 45.017 19.7138 46.062H20.7138C20.7138 45.0597 20.821 43.4367 20.9578 41.438C21.0939 39.4487 21.2578 37.105 21.3671 34.6866C21.5846 29.8733 21.5916 24.6785 20.6965 21.363L19.731 21.6236ZM19.7138 46.062C19.7138 48.172 20.0721 49.7648 20.9672 51.2381C21.8505 52.6918 23.2336 53.989 25.1926 55.5526L25.8164 54.7711C23.8697 53.2173 22.6074 52.0119 21.8218 50.7188C21.048 49.4452 20.7138 48.0469 20.7138 46.062H19.7138ZM20.6965 21.363C19.7012 17.6764 18.6327 15.1041 16.6743 13.1889L15.9752 13.9038C17.7331 15.623 18.7456 17.9737 19.731 21.6236L20.6965 21.363ZM16.6743 13.1889C15.1854 11.7328 13.2197 10.6923 10.4842 9.79547L10.1726 10.7457C12.8308 11.6172 14.6375 12.5957 15.9752 13.9038L16.6743 13.1889Z" fill="url(#paint1_linear_277_520)"/>
<path d="M49.9631 55.1619C43.7206 57.2086 40.4955 55.1619 40.4955 55.1619C44.4012 52.0444 45.7862 50.1568 45.7862 46.062C45.7862 41.9673 44.0427 27.9517 45.7862 21.4933C46.7766 17.825 47.8171 15.3635 49.6753 13.5463C51.0885 12.1642 52.9748 11.1548 55.6716 10.2706C61.9141 8.22384 65 10.1192 65 10.1192C61.0943 13.2367 59.8485 15.2756 59.8485 19.3704C59.8485 23.4652 61.5921 37.4807 59.8485 43.9391C58.1049 50.3975 56.2057 53.1151 49.9631 55.1619Z" fill="url(#paint2_linear_277_520)"/>
<path d="M40.4955 55.1619L40.2276 55.584L39.6357 55.2084L40.1836 54.7711L40.4955 55.1619ZM59.8485 43.9391L59.3658 43.8088L59.8485 43.9391ZM65 10.1192L65.2617 9.69316L65.8684 10.0658L65.3119 10.51L65 10.1192ZM55.6716 10.2706L55.5158 9.79547V9.79547L55.6716 10.2706ZM45.7862 21.4933L46.269 21.6236L45.7862 21.4933ZM49.6753 13.5463L49.3257 13.1889L49.6753 13.5463ZM40.4955 55.1619C40.7634 54.7397 40.7632 54.7395 40.7629 54.7394C40.7628 54.7393 40.7626 54.7392 40.7625 54.7391C40.7622 54.7389 40.762 54.7388 40.7618 54.7387C40.7615 54.7385 40.7613 54.7384 40.7613 54.7384C40.7614 54.7385 40.7623 54.739 40.7639 54.74C40.7672 54.7419 40.7735 54.7457 40.7829 54.7511C40.8017 54.762 40.8328 54.7794 40.8761 54.8018C40.9628 54.8467 41.0984 54.9118 41.2826 54.9854C41.6508 55.1326 42.2135 55.3141 42.968 55.4358C44.474 55.6786 46.7602 55.6858 49.8074 54.6867L50.1189 55.637C46.9235 56.6847 44.476 56.6919 42.8088 56.423C41.9767 56.2888 41.3429 56.0865 40.9113 55.9139C40.6956 55.8277 40.5305 55.7489 40.4164 55.6898C40.3594 55.6603 40.3151 55.6357 40.2836 55.6176C40.2678 55.6085 40.2553 55.601 40.246 55.5954C40.2413 55.5926 40.2374 55.5902 40.2344 55.5883C40.2328 55.5873 40.2315 55.5865 40.2304 55.5858C40.2298 55.5854 40.2293 55.5851 40.2288 55.5848C40.2286 55.5847 40.2283 55.5845 40.2282 55.5844C40.2279 55.5842 40.2276 55.584 40.4955 55.1619ZM49.8074 54.6867C52.8818 53.6787 54.8207 52.5268 56.2111 50.8821C57.6103 49.2269 58.4983 47.0221 59.3658 43.8088L60.3312 44.0694C59.4551 47.3145 58.5217 49.6978 56.9748 51.5277C55.419 53.368 53.287 54.5982 50.1189 55.637L49.8074 54.6867ZM59.3658 43.8088C60.2143 40.6659 60.2212 35.6237 60.0028 30.791C59.8942 28.3863 59.7312 26.0547 59.5948 24.0627C59.4592 22.0799 59.3485 20.4154 59.3485 19.3704H60.3485C60.3485 20.3728 60.4557 21.9957 60.5925 23.9944C60.7286 25.9837 60.8925 28.3274 61.0018 30.7458C61.2193 35.5592 61.2263 40.7539 60.3312 44.0694L59.3658 43.8088ZM59.3485 19.3704C59.3485 17.2688 59.6689 15.642 60.5246 14.1318C61.3724 12.6356 62.7213 11.2983 64.6881 9.72843L65.3119 10.51C63.373 12.0576 62.1461 13.2985 61.3946 14.6248C60.651 15.9372 60.3485 17.3773 60.3485 19.3704H59.3485ZM65 10.1192C64.7383 10.5453 64.7386 10.5454 64.7389 10.5456C64.7389 10.5456 64.7392 10.5458 64.7393 10.5459C64.7396 10.5461 64.7399 10.5462 64.7401 10.5463C64.7405 10.5466 64.7407 10.5467 64.7407 10.5467C64.7408 10.5468 64.7401 10.5464 64.7387 10.5455C64.7358 10.5439 64.73 10.5405 64.7213 10.5357C64.7038 10.526 64.6745 10.5102 64.6333 10.4898C64.551 10.4491 64.4213 10.3897 64.244 10.3229C63.8898 10.1895 63.3447 10.0261 62.6072 9.92251C61.1347 9.71565 58.8796 9.74495 55.8274 10.7457L55.5158 9.79547C58.7061 8.74947 61.1152 8.70309 62.7463 8.93223C63.5606 9.04663 64.1771 9.22916 64.5965 9.38714C64.8061 9.46609 64.9663 9.53882 65.0771 9.59371C65.1325 9.62115 65.1756 9.64413 65.2064 9.66119C65.2217 9.66972 65.234 9.67677 65.2432 9.68216C65.2479 9.68485 65.2517 9.68713 65.2548 9.68897C65.2563 9.68989 65.2577 9.69071 65.2588 9.6914C65.2594 9.69175 65.2599 9.69208 65.2604 9.69237C65.2606 9.69251 65.261 9.69271 65.2611 9.69279C65.2614 9.69298 65.2617 9.69316 65 10.1192ZM46.269 21.6236C45.4205 24.7665 45.4135 29.8088 45.6319 34.6415C45.7405 37.0461 45.9036 39.3777 46.0399 41.3698C46.1756 43.3525 46.2862 45.017 46.2862 46.062H45.2862C45.2862 45.0597 45.179 43.4367 45.0422 41.438C44.9061 39.4487 44.7422 37.105 44.6329 34.6866C44.4154 29.8733 44.4084 24.6785 45.3035 21.363L46.269 21.6236ZM46.2862 46.062C46.2862 48.172 45.9279 49.7648 45.0328 51.2381C44.1495 52.6918 42.7664 53.989 40.8074 55.5526L40.1836 54.7711C42.1303 53.2173 43.3926 52.0119 44.1782 50.7188C44.952 49.4452 45.2862 48.0469 45.2862 46.062H46.2862ZM45.3035 21.363C46.2988 17.6764 47.3673 15.1041 49.3257 13.1889L50.0248 13.9038C48.2669 15.623 47.2544 17.9737 46.269 21.6236L45.3035 21.363ZM49.3257 13.1889C50.8146 11.7328 52.7803 10.6923 55.5158 9.79547L55.8274 10.7457C53.1692 11.6172 51.3625 12.5957 50.0248 13.9038L49.3257 13.1889Z" fill="url(#paint3_linear_277_520)"/>
<path d="M23.5325 52.605C29.775 54.6517 33.0001 52.605 33.0001 52.605C29.0944 49.4875 27.7094 47.5999 27.7094 43.5051C27.7094 39.4104 29.453 25.3948 27.7094 18.9364C26.719 15.2681 25.6785 12.8066 23.8204 10.9894C22.4071 9.60729 20.5209 8.59788 17.824 7.71367C11.5815 5.66693 8.49561 7.5623 8.49561 7.5623C12.4013 10.6798 13.6471 12.7187 13.6471 16.8135C13.6471 20.9083 11.9035 34.9238 13.6471 41.3822C15.3907 47.8406 17.2899 50.5582 23.5325 52.605Z" fill="url(#paint4_linear_277_520)"/>
<path d="M38.2909 18.9364C39.2812 15.2681 40.3217 12.8066 42.1799 10.9894C39.5585 5.42144 37.4552 3.3901 33.0001 1C28.545 3.3901 26.4417 5.42144 23.8204 10.9894C25.6785 12.8066 26.719 15.2681 27.7094 18.9364C29.453 25.3948 27.7094 39.4104 27.7094 43.5051C27.7094 47.5999 29.0944 49.4875 33.0001 52.605C36.9058 49.4875 38.2909 47.5999 38.2909 43.5051C38.2909 39.4104 36.5473 25.3948 38.2909 18.9364Z" fill="url(#paint5_linear_277_520)"/>
<path d="M33.0001 52.605C33.0001 52.605 36.2252 54.6517 42.4678 52.605C48.7103 50.5582 50.6095 47.8406 52.3531 41.3822C54.0967 34.9238 52.3531 20.9083 52.3531 16.8135C52.3531 12.7187 53.5989 10.6798 57.5046 7.5623C57.5046 7.5623 54.4187 5.66693 48.1762 7.71367C45.4794 8.59788 43.5931 9.6073 42.1799 10.9894C40.3217 12.8066 39.2812 15.2681 38.2909 18.9364C36.5473 25.3948 38.2909 39.4104 38.2909 43.5051C38.2909 47.5999 36.9058 49.4875 33.0001 52.605Z" fill="url(#paint6_linear_277_520)"/>
<path d="M52.3531 41.3822L51.8704 41.2519L52.3531 41.3822ZM57.5046 7.5623L57.8165 7.95308L58.373 7.5089L57.7663 7.13625L57.5046 7.5623ZM48.1762 7.71367L48.0204 7.23855L48.1762 7.71367ZM38.2909 18.9364L38.7736 19.0667L38.2909 18.9364ZM13.6471 41.3822L14.1298 41.2519L13.6471 41.3822ZM8.49561 7.5623L8.23392 7.13625L7.6272 7.5089L8.18369 7.95308L8.49561 7.5623ZM17.824 7.71367L17.9798 7.23855L17.824 7.71367ZM27.7094 18.9364L27.2266 19.0667L27.7094 18.9364ZM33.0001 1L33.2365 0.559401L33.0001 0.43259L32.7637 0.559401L33.0001 1ZM33.0001 52.605C32.7322 53.0271 32.7325 53.0273 32.7328 53.0275C32.7329 53.0276 32.7332 53.0278 32.7334 53.0279C32.7339 53.0282 32.7344 53.0285 32.735 53.0289C32.7361 53.0296 32.7374 53.0304 32.739 53.0314C32.742 53.0333 32.7459 53.0356 32.7506 53.0385C32.7599 53.0441 32.7725 53.0516 32.7882 53.0607C32.8197 53.0788 32.864 53.1034 32.921 53.1329C33.0351 53.192 33.2002 53.2708 33.4159 53.357C33.8476 53.5296 34.4813 53.7319 35.3134 53.8661C36.9806 54.1349 39.4281 54.1278 42.6235 53.0801L42.312 52.1298C39.2648 53.1289 36.9786 53.1217 35.4726 52.8789C34.7181 52.7572 34.1554 52.5757 33.7872 52.4285C33.6031 52.3549 33.4674 52.2898 33.3808 52.2449C33.3374 52.2224 33.3063 52.2051 33.2875 52.1942C33.2781 52.1888 33.2718 52.185 33.2685 52.1831C33.2669 52.1821 33.266 52.1815 33.266 52.1815C33.2659 52.1815 33.2661 52.1816 33.2664 52.1818C33.2666 52.1819 33.2668 52.182 33.2671 52.1822C33.2672 52.1823 33.2674 52.1824 33.2675 52.1825C33.2678 52.1826 33.268 52.1828 33.0001 52.605ZM42.6235 53.0801C45.7916 52.0413 47.9236 50.8111 49.4794 48.9708C51.0263 47.1409 51.9597 44.7576 52.8358 41.5125L51.8704 41.2519C51.0029 44.4652 50.1149 46.67 48.7157 48.3252C47.3253 49.9699 45.3864 51.1218 42.312 52.1298L42.6235 53.0801ZM52.8358 41.5125C53.7309 38.197 53.7239 33.0023 53.5064 28.1889C53.3971 25.7705 53.2332 23.4268 53.0971 21.4375C52.9604 19.4388 52.8531 17.8158 52.8531 16.8135H51.8531C51.8531 17.8585 51.9638 19.523 52.0995 21.5058C52.2358 23.4978 52.3988 25.8294 52.5075 28.2341C52.7258 33.0668 52.7189 38.109 51.8704 41.2519L52.8358 41.5125ZM52.8531 16.8135C52.8531 14.8203 53.1556 13.3803 53.8992 12.0679C54.6507 10.7416 55.8776 9.50074 57.8165 7.95308L57.1927 7.17152C55.2259 8.74137 53.877 10.0787 53.0292 11.5749C52.1735 13.0851 51.8531 14.7118 51.8531 16.8135H52.8531ZM57.5046 7.5623C57.7663 7.13625 57.766 7.13606 57.7657 7.13587C57.7656 7.1358 57.7652 7.1356 57.765 7.13546C57.7645 7.13516 57.764 7.13484 57.7634 7.13449C57.7623 7.13379 57.7609 7.13298 57.7594 7.13206C57.7563 7.13022 57.7525 7.12794 57.7479 7.12525C57.7386 7.11986 57.7263 7.11281 57.711 7.10428C57.6802 7.08722 57.6371 7.06424 57.5817 7.0368C57.4709 6.98191 57.3108 6.90917 57.1011 6.83022C56.6817 6.67225 56.0652 6.48972 55.2509 6.37532C53.6198 6.14618 51.2107 6.19256 48.0204 7.23855L48.332 8.18878C51.3842 7.18804 53.6393 7.15874 55.1118 7.3656C55.8493 7.4692 56.3944 7.63259 56.7487 7.76604C56.9259 7.8328 57.0556 7.89214 57.1379 7.93292C57.1791 7.9533 57.2084 7.96905 57.2259 7.97875C57.2346 7.98361 57.2404 7.98695 57.2433 7.98861C57.2447 7.98944 57.2454 7.98985 57.2453 7.98981C57.2453 7.98979 57.2451 7.98966 57.2447 7.98942C57.2445 7.9893 57.2442 7.98915 57.2439 7.98898C57.2438 7.98889 57.2435 7.98873 57.2435 7.98869C57.2432 7.98852 57.2429 7.98835 57.5046 7.5623ZM37.8081 18.8061C36.913 22.1216 36.92 27.3164 37.1375 32.1297C37.2468 34.5481 37.4107 36.8918 37.5468 38.8811C37.6836 40.8798 37.7909 42.5028 37.7909 43.5051H38.7909C38.7909 42.4601 38.6802 40.7956 38.5445 38.8129C38.4082 36.8208 38.2452 34.4892 38.1365 32.0846C37.9181 27.2518 37.9251 22.2096 38.7736 19.0667L37.8081 18.8061ZM37.7909 43.5051C37.7909 45.49 37.4566 46.8883 36.6828 48.1619C35.8972 49.455 34.6349 50.6604 32.6882 52.2142L33.312 52.9957C35.2711 51.4321 36.6541 50.1349 37.5374 48.6812C38.4326 47.2079 38.7909 45.6151 38.7909 43.5051H37.7909ZM33.0001 52.605C32.7322 52.1828 32.7325 52.1826 32.7327 52.1825C32.7328 52.1824 32.733 52.1823 32.7331 52.1822C32.7334 52.182 32.7336 52.1819 32.7338 52.1818C32.7341 52.1816 32.7343 52.1815 32.7343 52.1815C32.7342 52.1815 32.7333 52.1821 32.7317 52.1831C32.7284 52.185 32.7221 52.1888 32.7127 52.1942C32.6939 52.2051 32.6628 52.2224 32.6195 52.2449C32.5328 52.2898 32.3972 52.3549 32.213 52.4285C31.8448 52.5757 31.2821 52.7572 30.5276 52.8789C29.0216 53.1217 26.7354 53.1289 23.6882 52.1298L23.3767 53.0801C26.5721 54.1278 29.0196 54.1349 30.6868 53.8661C31.5189 53.7319 32.1527 53.5296 32.5843 53.357C32.8 53.2708 32.9651 53.192 33.0792 53.1329C33.1363 53.1034 33.1805 53.0788 33.212 53.0607C33.2278 53.0516 33.2403 53.0441 33.2496 53.0385C33.2543 53.0356 33.2582 53.0333 33.2612 53.0314C33.2628 53.0304 33.2641 53.0296 33.2652 53.0289C33.2658 53.0285 33.2663 53.0282 33.2668 53.0279C33.267 53.0278 33.2673 53.0276 33.2674 53.0275C33.2677 53.0273 33.268 53.0271 33.0001 52.605ZM23.6882 52.1298C20.6138 51.1218 18.6749 49.9699 17.2845 48.3252C15.8853 46.67 14.9973 44.4652 14.1298 41.2519L13.1644 41.5125C14.0405 44.7576 14.9739 47.1409 16.5208 48.9708C18.0766 50.8111 20.2086 52.0413 23.3767 53.0801L23.6882 52.1298ZM14.1298 41.2519C13.2814 38.109 13.2744 33.0668 13.4928 28.2341C13.6014 25.8294 13.7644 23.4978 13.9008 21.5058C14.0364 19.523 14.1471 17.8585 14.1471 16.8135H13.1471C13.1471 17.8158 13.0399 19.4388 12.9031 21.4375C12.767 23.4268 12.6031 25.7705 12.4938 28.1889C12.2763 33.0023 12.2693 38.197 13.1644 41.5125L14.1298 41.2519ZM14.1471 16.8135C14.1471 14.7118 13.8267 13.0851 12.971 11.5749C12.1232 10.0787 10.7743 8.74137 8.80752 7.17152L8.18369 7.95308C10.1226 9.50074 11.3495 10.7416 12.101 12.0679C12.8446 13.3803 13.1471 14.8203 13.1471 16.8135H14.1471ZM8.49561 7.5623C8.75729 7.98835 8.75701 7.98852 8.75675 7.98869C8.75668 7.98873 8.75642 7.98889 8.75628 7.98898C8.75599 7.98915 8.75574 7.9893 8.75554 7.98942C8.75514 7.98966 8.75493 7.98979 8.7549 7.98981C8.75484 7.98985 8.75552 7.98944 8.75694 7.98861C8.75978 7.98695 8.76557 7.98361 8.77432 7.97875C8.79182 7.96905 8.82114 7.9533 8.8623 7.93292C8.94463 7.89214 9.07433 7.8328 9.25156 7.76604C9.60584 7.63259 10.1509 7.4692 10.8884 7.3656C12.3609 7.15874 14.616 7.18804 17.6682 8.18878L17.9798 7.23855C14.7895 6.19256 12.3804 6.14618 10.7493 6.37532C9.93501 6.48972 9.31847 6.67225 8.89907 6.83022C8.68946 6.90917 8.52931 6.98191 8.41849 7.0368C8.36308 7.06424 8.32001 7.08722 8.28925 7.10428C8.27387 7.11281 8.26158 7.11986 8.25236 7.12525C8.24775 7.12794 8.2439 7.13022 8.24083 7.13206C8.2393 7.13298 8.23795 7.13379 8.2368 7.13449C8.23622 7.13484 8.2357 7.13516 8.23522 7.13546C8.23498 7.1356 8.23465 7.1358 8.23453 7.13587C8.23422 7.13606 8.23392 7.13625 8.49561 7.5623ZM27.2266 19.0667C28.0751 22.2096 28.0821 27.2518 27.8637 32.0846C27.7551 34.4892 27.592 36.8208 27.4557 38.8129C27.32 40.7956 27.2094 42.4601 27.2094 43.5051H28.2094C28.2094 42.5028 28.3166 40.8798 28.4534 38.8811C28.5895 36.8918 28.7534 34.5481 28.8627 32.1297C29.0802 27.3164 29.0872 22.1216 28.1921 18.8061L27.2266 19.0667ZM27.2094 43.5051C27.2094 45.6151 27.5677 47.2079 28.4628 48.6812C29.3461 50.1349 30.7292 51.4321 32.6882 52.9957L33.312 52.2142C31.3653 50.6604 30.103 49.455 29.3174 48.1619C28.5436 46.8883 28.2094 45.49 28.2094 43.5051H27.2094ZM28.1921 18.8061C27.1968 15.1194 26.1283 12.5472 24.1699 10.632L23.4708 11.3469C25.2287 13.0661 26.2413 15.4168 27.2266 19.0667L28.1921 18.8061ZM24.1699 10.632C22.681 9.17584 20.7153 8.13544 17.9798 7.23855L17.6682 8.18878C20.3264 9.06032 22.1331 10.0387 23.4708 11.3469L24.1699 10.632ZM32.7637 0.559401C30.5133 1.76671 28.8209 2.9023 27.358 4.46082C25.8972 6.01719 24.6896 7.96928 23.368 10.7765L24.2727 11.2024C25.5725 8.44159 26.7272 6.59402 28.0871 5.14519C29.445 3.69852 31.0318 2.62339 33.2365 1.4406L32.7637 0.559401ZM23.368 10.7765C23.3648 10.7832 23.3616 10.7899 23.3585 10.7967L24.2634 11.2223C24.2665 11.2156 24.2696 11.209 24.2727 11.2024L23.368 10.7765ZM38.7736 19.0667C39.759 15.4168 40.7716 13.0661 42.5295 11.3469L41.8303 10.632C39.8719 12.5472 38.8034 15.1194 37.8081 18.8061L38.7736 19.0667ZM42.6322 10.7765C41.3106 7.96928 40.103 6.01719 38.6422 4.46082C37.1793 2.9023 35.4869 1.76671 33.2365 0.559401L32.7637 1.4406C34.9684 2.62339 36.5552 3.69852 37.9131 5.14519C39.273 6.59402 40.4277 8.44159 41.7275 11.2024L42.6322 10.7765ZM41.7275 11.2024C41.7306 11.2091 41.7337 11.2157 41.7368 11.2223L42.6418 10.7967C42.6386 10.7899 42.6354 10.7831 42.6322 10.7765L41.7275 11.2024ZM48.0204 7.23855C45.2849 8.13544 43.3192 9.17584 41.8303 10.632L42.5295 11.3469C43.8671 10.0387 45.6738 9.06032 48.332 8.18878L48.0204 7.23855Z" fill="url(#paint7_linear_277_520)"/>
<path d="M12.7767 32.3408C13.1404 34.2694 13.2284 35.4113 14.658 36.7825C16.3233 38.9447 17.6613 40.4996 19.1911 41.8088C20.539 42.9623 22.0357 43.9251 24.0363 44.9447C26.4881 46.0314 27.9125 49.1669 27.9125 49.1669C27.9125 49.1669 28.7682 56.7915 29.7078 60.8196C29.7738 61.3041 29.8457 61.7367 29.9273 62.1222C31.9704 62.7782 33.692 62.8079 36.0732 62.1195C36.1546 61.7347 36.2263 61.303 36.2921 60.8196C37.2318 56.7915 38.0874 49.1669 38.0874 49.1669C38.0874 49.1669 40.2757 46.379 41.9636 44.9447C43.699 43.47 45.461 42.9623 46.8088 41.8088C48.3386 40.4996 49.744 39.227 51.3784 36.7915C52.4922 35.2749 52.8596 34.2694 53.2232 32.3408C53.5868 30.4123 53.2232 12.2228 53.2232 12.2228C52.1424 20.8541 50.4723 25.328 39.3491 30.5119C34.5723 32.7958 33.7454 35.1958 33 39.9178C32.2546 35.1958 31.4276 32.7958 26.6508 30.5119C15.5277 25.328 13.8575 20.8541 12.7767 12.2228C12.7767 12.2228 12.4131 30.4123 12.7767 32.3408Z" fill="url(#paint8_linear_277_520)"/>
<path d="M29.9273 62.1222C30.3929 64.3217 31.176 64.9874 33 65C34.8247 64.9874 35.6076 64.3212 36.0732 62.1195C33.692 62.8079 31.9704 62.7782 29.9273 62.1222Z" fill="black"/>
<path d="M36.2921 60.8196C42.24 52.2339 46.5899 49.5793 57.2208 48.5398C57.3195 42.7557 56.0742 40.1878 51.3784 36.7915C49.744 39.227 48.3386 40.4996 46.8088 41.8088C44.6443 47.4837 42.9372 49.552 38.0874 49.1669C38.0874 49.1669 37.2318 56.7915 36.2921 60.8196Z" fill="url(#paint9_linear_277_520)"/>
<path d="M8.77913 48.5398C19.41 49.5793 23.7599 52.2339 29.7078 60.8196C28.7682 56.7915 27.9125 49.1669 27.9125 49.1669C23.0627 49.552 21.3557 47.4837 19.1911 41.8088C17.6613 40.4996 16.3233 38.9447 14.658 36.7825C9.9621 40.1788 8.68043 42.7557 8.77913 48.5398Z" fill="url(#paint10_linear_277_520)"/>
<path d="M41.9636 44.9447C40.2757 46.379 38.0874 49.1669 38.0874 49.1669C42.9372 49.552 44.6443 47.4837 46.8088 41.8088C45.461 42.9623 43.699 43.47 41.9636 44.9447Z" fill="black"/>
<path d="M27.9125 49.1669C27.9125 49.1669 26.4881 46.0314 24.0363 44.9447C22.0357 43.9251 20.539 42.9623 19.1911 41.8088C21.3557 47.4837 23.0627 49.552 27.9125 49.1669Z" fill="black"/>
<path d="M53.2232 12.2228C52.1424 20.8541 50.4723 25.328 39.3491 30.5119C42.0835 17.2001 45.6353 14.3771 53.2232 12.2228Z" fill="url(#paint11_linear_277_520)"/>
<path d="M12.7767 12.2228C13.8575 20.8541 15.5277 25.328 26.6508 30.5119C23.9165 17.2001 20.3647 14.3771 12.7767 12.2228Z" fill="url(#paint12_linear_277_520)"/>
<defs>
<linearGradient id="paint0_linear_277_520" x1="13.2523" y1="9.31995" x2="13.2523" y2="56.0715" gradientUnits="userSpaceOnUse">
<stop stop-color="#FF5C00"/>
<stop offset="1" stop-color="#FAFF00"/>
</linearGradient>
<linearGradient id="paint1_linear_277_520" x1="25.5045" y1="3.55691" x2="25.5045" y2="33.282" gradientUnits="userSpaceOnUse">
<stop stop-color="white"/>
<stop offset="0.854167" stop-color="white" stop-opacity="0"/>
</linearGradient>
<linearGradient id="paint2_linear_277_520" x1="52.7477" y1="9.31995" x2="52.7477" y2="56.0715" gradientUnits="userSpaceOnUse">
<stop stop-color="#FF5C00"/>
<stop offset="1" stop-color="#FAFF00"/>
</linearGradient>
<linearGradient id="paint3_linear_277_520" x1="40.4955" y1="3.55691" x2="40.4955" y2="33.282" gradientUnits="userSpaceOnUse">
<stop stop-color="white"/>
<stop offset="0.854167" stop-color="white" stop-opacity="0"/>
</linearGradient>
<linearGradient id="paint4_linear_277_520" x1="33.0001" y1="1" x2="33.0001" y2="53.5146" gradientUnits="userSpaceOnUse">
<stop stop-color="#FF5C00"/>
<stop offset="1" stop-color="#FAFF00"/>
</linearGradient>
<linearGradient id="paint5_linear_277_520" x1="33.0001" y1="1" x2="33.0001" y2="53.5146" gradientUnits="userSpaceOnUse">
<stop stop-color="#FF5C00"/>
<stop offset="1" stop-color="#FAFF00"/>
</linearGradient>
<linearGradient id="paint6_linear_277_520" x1="33.0001" y1="1" x2="33.0001" y2="53.5146" gradientUnits="userSpaceOnUse">
<stop stop-color="#FF5C00"/>
<stop offset="1" stop-color="#FAFF00"/>
</linearGradient>
<linearGradient id="paint7_linear_277_520" x1="33.0001" y1="1" x2="33.0001" y2="30.7251" gradientUnits="userSpaceOnUse">
<stop stop-color="white"/>
<stop offset="0.854167" stop-color="white" stop-opacity="0"/>
</linearGradient>
<linearGradient id="paint8_linear_277_520" x1="33" y1="12.2228" x2="33" y2="65" gradientUnits="userSpaceOnUse">
<stop stop-color="#FAFF00"/>
<stop offset="1" stop-color="#FF5C00"/>
</linearGradient>
<linearGradient id="paint9_linear_277_520" x1="33" y1="12.2228" x2="33" y2="65" gradientUnits="userSpaceOnUse">
<stop offset="0.9999" stop-color="#FF5C00"/>
<stop offset="1" stop-color="#FAFF00"/>
</linearGradient>
<linearGradient id="paint10_linear_277_520" x1="33" y1="12.2228" x2="33" y2="65" gradientUnits="userSpaceOnUse">
<stop offset="0.9999" stop-color="#FF5C00"/>
<stop offset="1" stop-color="#FAFF00"/>
</linearGradient>
<linearGradient id="paint11_linear_277_520" x1="33" y1="12.2228" x2="33" y2="65" gradientUnits="userSpaceOnUse">
<stop offset="0.9999" stop-color="#FF5C00"/>
<stop offset="1" stop-color="#FAFF00"/>
</linearGradient>
<linearGradient id="paint12_linear_277_520" x1="33" y1="12.2228" x2="33" y2="65" gradientUnits="userSpaceOnUse">
<stop offset="0.9999" stop-color="#FF5C00"/>
<stop offset="1" stop-color="#FAFF00"/>
</linearGradient>
</defs>
</svg>
