<svg width="514" height="513" viewBox="0 0 514 513" fill="none" xmlns="http://www.w3.org/2000/svg">
<path d="M121.295 434.294C171.235 450.668 197.036 434.294 197.036 434.294C165.79 409.354 154.71 394.254 154.71 361.496C154.71 328.738 168.659 216.613 154.71 164.946C146.787 135.6 138.463 115.908 123.598 101.37C112.292 90.3132 97.202 82.2378 75.6273 75.1642C25.6871 58.7902 1 73.9532 1 73.9532C32.2458 98.8933 42.2121 115.204 42.2121 147.963C42.2121 180.721 28.2634 292.845 42.2121 344.512C56.1608 396.18 71.3546 417.921 121.295 434.294Z" fill="url(#paint0_linear_267_422)"/>
<path d="M197.036 434.294L197.304 434.717L197.896 434.341L197.348 433.904L197.036 434.294ZM42.2121 344.512L42.6948 344.382L42.6948 344.382L42.2121 344.512ZM1 73.9532L0.738315 73.5272L0.131597 73.8998L0.688084 74.344L1 73.9532ZM75.6273 75.1642L75.7831 74.689L75.7831 74.689L75.6273 75.1642ZM154.71 164.946L154.227 165.076L154.71 164.946ZM123.598 101.37L123.948 101.013L123.948 101.013L123.598 101.37ZM197.036 434.294C196.768 433.872 196.768 433.872 196.768 433.872C196.768 433.872 196.768 433.872 196.768 433.872C196.768 433.873 196.767 433.873 196.766 433.874C196.763 433.875 196.759 433.878 196.754 433.881C196.743 433.888 196.725 433.899 196.702 433.913C196.654 433.942 196.582 433.985 196.484 434.041C196.29 434.153 195.995 434.318 195.6 434.522C194.811 434.931 193.622 435.499 192.039 436.133C188.871 437.399 184.121 438.924 177.813 439.941C165.201 441.975 146.347 441.982 121.451 433.819L121.139 434.77C146.183 442.981 165.199 442.988 177.973 440.928C184.358 439.899 189.179 438.353 192.41 437.061C194.025 436.415 195.243 435.833 196.06 435.41C196.468 435.199 196.776 435.027 196.984 434.908C197.087 434.848 197.166 434.801 197.219 434.769C197.246 434.752 197.267 434.74 197.281 434.731C197.288 434.727 197.293 434.723 197.297 434.721C197.299 434.72 197.301 434.719 197.302 434.718C197.302 434.718 197.303 434.717 197.303 434.717C197.304 434.717 197.304 434.717 197.036 434.294ZM121.451 433.819C96.5273 425.648 80.3404 416.158 68.6385 402.316C56.9278 388.463 49.6649 370.2 42.6948 344.382L41.7294 344.643C48.708 370.492 56.0164 388.934 67.8748 402.961C79.742 416.999 96.1221 426.567 121.139 434.77L121.451 433.819ZM42.6948 344.382C35.7438 318.635 35.7368 277.763 37.4808 239.169C38.3523 219.884 39.6596 201.189 40.7494 185.262C41.8386 169.344 42.7121 156.174 42.7121 147.963H41.7121C41.7121 156.131 40.842 169.26 39.7517 185.194C38.6621 201.118 37.354 219.825 36.4819 239.124C34.7387 277.699 34.7317 318.723 41.7294 344.643L42.6948 344.382ZM42.7121 147.963C42.7121 131.529 40.2116 119.169 33.7583 107.78C27.3128 96.4046 16.9487 86.0436 1.31192 73.5624L0.688084 74.344C16.2971 86.8029 26.5391 97.0675 32.8882 108.273C39.2295 119.464 41.7121 131.638 41.7121 147.963H42.7121ZM1 73.9532C1.26168 74.3793 1.26149 74.3794 1.26139 74.3795C1.26148 74.3794 1.26148 74.3794 1.26166 74.3793C1.26203 74.3791 1.26277 74.3786 1.26389 74.3779C1.26613 74.3766 1.26987 74.3743 1.27512 74.3712C1.28561 74.3649 1.30211 74.3551 1.32463 74.3419C1.36968 74.3156 1.43878 74.2759 1.53197 74.2242C1.71835 74.1208 2.00106 73.9695 2.38022 73.7817C3.13855 73.4062 4.28274 72.8845 5.81392 72.3078C8.87609 71.1543 13.4869 69.7802 19.6556 68.9136C31.9906 67.1807 50.5705 67.4749 75.4716 75.6393L75.7831 74.689C50.744 66.4795 32.0101 66.1682 19.5165 67.9233C13.271 68.8007 8.58872 70.194 5.46143 71.3719C3.89788 71.9609 2.72323 72.4959 1.9364 72.8856C1.54299 73.0805 1.24654 73.239 1.04691 73.3497C0.947089 73.4051 0.871477 73.4485 0.820051 73.4785C0.794338 73.4936 0.774672 73.5053 0.76105 73.5134C0.754239 73.5175 0.748939 73.5207 0.74515 73.523C0.743256 73.5242 0.741739 73.5251 0.7406 73.5258C0.74003 73.5261 0.739459 73.5265 0.739174 73.5266C0.738698 73.5269 0.738315 73.5272 1 73.9532ZM154.227 165.076C161.178 190.824 161.185 231.695 159.441 270.289C158.57 289.575 157.263 308.27 156.173 324.197C155.084 340.114 154.21 353.285 154.21 361.496H155.21C155.21 353.328 156.08 340.198 157.17 324.265C158.26 308.341 159.568 289.633 160.44 270.334C162.183 231.76 162.19 190.736 155.193 164.816L154.227 165.076ZM154.21 361.496C154.21 377.938 156.992 389.999 163.729 401.087C170.453 412.154 181.095 422.21 196.724 434.685L197.348 433.904C181.731 421.439 171.21 411.474 164.583 400.567C157.968 389.68 155.21 377.812 155.21 361.496H154.21ZM155.193 164.816C147.265 135.451 138.913 115.648 123.948 101.013L123.248 101.728C138.013 116.167 146.31 135.748 154.227 165.076L155.193 164.816ZM123.948 101.013C112.566 89.8817 97.3964 81.7754 75.7831 74.689L75.4716 75.6393C97.0076 82.7003 112.018 90.7446 123.248 101.728L123.948 101.013Z" fill="url(#paint1_linear_267_422)"/>
<path d="M392.705 434.294C342.765 450.668 316.964 434.294 316.964 434.294C348.21 409.354 359.29 394.254 359.29 361.496C359.29 328.738 345.341 216.613 359.29 164.946C367.213 135.6 375.537 115.908 390.402 101.37C401.708 90.3132 416.798 82.2378 438.373 75.1642C488.313 58.7902 513 73.9532 513 73.9532C481.754 98.8933 471.788 115.204 471.788 147.963C471.788 180.721 485.737 292.845 471.788 344.512C457.839 396.18 442.645 417.921 392.705 434.294Z" fill="url(#paint2_linear_267_422)"/>
<path d="M316.964 434.294L316.696 434.717L316.104 434.341L316.652 433.904L316.964 434.294ZM471.788 344.512L471.305 344.382L471.305 344.382L471.788 344.512ZM513 73.9532L513.262 73.5272L513.868 73.8998L513.312 74.344L513 73.9532ZM438.373 75.1642L438.217 74.689L438.217 74.689L438.373 75.1642ZM359.29 164.946L359.773 165.076L359.29 164.946ZM390.402 101.37L390.052 101.013L390.052 101.013L390.402 101.37ZM316.964 434.294C317.232 433.872 317.232 433.872 317.232 433.872C317.232 433.872 317.232 433.872 317.232 433.872C317.232 433.873 317.233 433.873 317.234 433.874C317.237 433.875 317.241 433.878 317.246 433.881C317.257 433.888 317.275 433.899 317.298 433.913C317.346 433.942 317.418 433.985 317.516 434.041C317.71 434.153 318.005 434.318 318.4 434.522C319.189 434.931 320.378 435.499 321.961 436.133C325.129 437.399 329.879 438.924 336.187 439.941C348.799 441.975 367.653 441.982 392.549 433.819L392.861 434.77C367.817 442.981 348.801 442.988 336.027 440.928C329.642 439.899 324.821 438.353 321.59 437.061C319.975 436.415 318.757 435.833 317.94 435.41C317.532 435.199 317.224 435.027 317.016 434.908C316.913 434.848 316.834 434.801 316.781 434.769C316.754 434.752 316.733 434.74 316.719 434.731C316.712 434.727 316.707 434.723 316.703 434.721C316.701 434.72 316.699 434.719 316.698 434.718C316.698 434.718 316.697 434.717 316.697 434.717C316.696 434.717 316.696 434.717 316.964 434.294ZM392.549 433.819C417.473 425.648 433.66 416.158 445.362 402.316C457.072 388.463 464.335 370.2 471.305 344.382L472.271 344.643C465.292 370.492 457.984 388.934 446.125 402.961C434.258 416.999 417.878 426.567 392.861 434.77L392.549 433.819ZM471.305 344.382C478.256 318.635 478.263 277.763 476.519 239.169C475.648 219.884 474.34 201.189 473.251 185.262C472.161 169.344 471.288 156.174 471.288 147.963H472.288C472.288 156.131 473.158 169.26 474.248 185.194C475.338 201.118 476.646 219.825 477.518 239.124C479.261 277.699 479.268 318.723 472.271 344.643L471.305 344.382ZM471.288 147.963C471.288 131.529 473.788 119.169 480.242 107.78C486.687 96.4046 497.051 86.0436 512.688 73.5624L513.312 74.344C497.703 86.8029 487.461 97.0675 481.112 108.273C474.771 119.464 472.288 131.638 472.288 147.963H471.288ZM513 73.9532C512.738 74.3793 512.739 74.3794 512.739 74.3795C512.739 74.3794 512.739 74.3794 512.738 74.3793C512.738 74.3791 512.737 74.3786 512.736 74.3779C512.734 74.3766 512.73 74.3743 512.725 74.3712C512.714 74.3649 512.698 74.3551 512.675 74.3419C512.63 74.3156 512.561 74.2759 512.468 74.2242C512.282 74.1208 511.999 73.9695 511.62 73.7817C510.861 73.4062 509.717 72.8845 508.186 72.3078C505.124 71.1543 500.513 69.7802 494.344 68.9136C482.009 67.1807 463.43 67.4749 438.528 75.6393L438.217 74.689C463.256 66.4795 481.99 66.1682 494.483 67.9233C500.729 68.8007 505.411 70.194 508.539 71.3719C510.102 71.9609 511.277 72.4959 512.064 72.8856C512.457 73.0805 512.753 73.239 512.953 73.3497C513.053 73.4051 513.129 73.4485 513.18 73.4785C513.206 73.4936 513.225 73.5053 513.239 73.5134C513.246 73.5175 513.251 73.5207 513.255 73.523C513.257 73.5242 513.258 73.5251 513.259 73.5258C513.26 73.5261 513.261 73.5265 513.261 73.5266C513.261 73.5269 513.262 73.5272 513 73.9532ZM359.773 165.076C352.822 190.824 352.815 231.695 354.559 270.289C355.43 289.575 356.737 308.27 357.827 324.197C358.916 340.114 359.79 353.285 359.79 361.496H358.79C358.79 353.328 357.92 340.198 356.83 324.265C355.74 308.341 354.432 289.633 353.56 270.334C351.817 231.76 351.81 190.736 358.807 164.816L359.773 165.076ZM359.79 361.496C359.79 377.938 357.008 389.999 350.271 401.087C343.547 412.154 332.905 422.21 317.276 434.685L316.652 433.904C332.269 421.439 342.79 411.474 349.417 400.567C356.032 389.68 358.79 377.812 358.79 361.496H359.79ZM358.807 164.816C366.735 135.451 375.087 115.648 390.052 101.013L390.752 101.728C375.987 116.167 367.69 135.748 359.773 165.076L358.807 164.816ZM390.052 101.013C401.434 89.8817 416.604 81.7754 438.217 74.689L438.528 75.6393C416.992 82.7003 401.982 90.7446 390.752 101.728L390.052 101.013Z" fill="url(#paint3_linear_267_422)"/>
<path d="M181.259 413.84C231.199 430.214 257 413.84 257 413.84C225.754 388.9 214.674 373.799 214.674 341.041C214.674 308.283 228.623 196.159 214.674 144.491C206.751 115.145 198.427 95.453 183.562 80.9155C172.256 69.8584 157.166 61.783 135.591 54.7093C85.651 38.3354 60.9639 53.4984 60.9639 53.4984C92.2097 78.4384 102.176 94.7496 102.176 127.508C102.176 160.266 88.2273 272.39 102.176 324.058C116.125 375.725 131.318 397.466 181.259 413.84Z" fill="url(#paint4_linear_267_422)"/>
<path d="M299.326 144.491C307.249 115.145 315.573 95.453 330.438 80.9155C309.467 36.3715 292.641 20.1208 257 1C221.359 20.1208 204.533 36.3715 183.562 80.9155C198.427 95.453 206.751 115.145 214.674 144.491C228.623 196.159 214.674 308.283 214.674 341.041C214.674 373.799 225.754 388.9 257 413.84C288.246 388.9 299.326 373.799 299.326 341.041C299.326 308.283 285.377 196.159 299.326 144.491Z" fill="url(#paint5_linear_267_422)"/>
<path d="M257 413.84C257 413.84 282.801 430.214 332.741 413.84C382.681 397.466 397.875 375.725 411.824 324.058C425.772 272.39 411.824 160.266 411.824 127.508C411.824 94.7496 421.79 78.4384 453.036 53.4984C453.036 53.4984 428.349 38.3354 378.409 54.7093C356.834 61.783 341.744 69.8584 330.438 80.9155C315.573 95.453 307.249 115.145 299.326 144.491C285.377 196.159 299.326 308.283 299.326 341.041C299.326 373.799 288.246 388.9 257 413.84Z" fill="url(#paint6_linear_267_422)"/>
<path d="M411.824 324.058L411.341 323.927L411.341 323.927L411.824 324.058ZM453.036 53.4984L453.348 53.8892L453.904 53.445L453.298 53.0724L453.036 53.4984ZM378.409 54.7093L378.253 54.2342L378.253 54.2342L378.409 54.7093ZM299.326 144.491L299.809 144.622L299.809 144.622L299.326 144.491ZM102.176 324.058L102.659 323.927L102.659 323.927L102.176 324.058ZM60.9639 53.4984L60.7022 53.0724L60.0955 53.445L60.652 53.8892L60.9639 53.4984ZM135.591 54.7093L135.747 54.2342L135.747 54.2342L135.591 54.7093ZM214.674 144.491L214.191 144.622L214.191 144.622L214.674 144.491ZM257 1L257.236 0.559401L257 0.43259L256.764 0.559401L257 1ZM257 413.84C256.732 414.262 256.732 414.262 256.733 414.262C256.733 414.263 256.734 414.263 256.734 414.263C256.735 414.264 256.737 414.265 256.739 414.266C256.743 414.269 256.748 414.272 256.755 414.276C256.769 414.285 256.79 414.298 256.816 414.314C256.87 414.346 256.948 414.393 257.052 414.453C257.26 414.572 257.568 414.744 257.976 414.955C258.793 415.378 260.011 415.961 261.626 416.607C264.857 417.898 269.678 419.444 276.063 420.474C288.837 422.533 307.853 422.526 332.897 414.315L332.585 413.365C307.689 421.527 288.835 421.52 276.222 419.486C269.915 418.469 265.165 416.945 261.997 415.678C260.413 415.045 259.225 414.476 258.436 414.067C258.041 413.863 257.746 413.699 257.551 413.586C257.454 413.53 257.382 413.487 257.334 413.458C257.311 413.444 257.293 413.433 257.282 413.427C257.277 413.423 257.273 413.421 257.27 413.419C257.269 413.418 257.268 413.418 257.268 413.418C257.268 413.417 257.268 413.417 257.268 413.417C257.268 413.417 257.268 413.418 257 413.84ZM332.897 414.315C357.914 406.112 374.294 396.545 386.161 382.506C398.019 368.479 405.328 350.038 412.306 324.188L411.341 323.927C404.371 349.745 397.108 368.008 385.397 381.861C373.696 395.703 357.509 405.193 332.585 413.365L332.897 414.315ZM412.306 324.188C419.304 298.268 419.297 257.244 417.554 218.669C416.682 199.37 415.374 180.663 414.284 164.739C413.194 148.805 412.324 135.676 412.324 127.508H411.324C411.324 135.719 412.197 148.89 413.286 164.807C414.376 180.734 415.684 199.429 416.555 218.715C418.299 257.308 418.292 298.18 411.341 323.927L412.306 324.188ZM412.324 127.508C412.324 111.183 414.806 99.009 421.148 87.8178C427.497 76.6127 437.739 66.3481 453.348 53.8892L452.724 53.1076C437.087 65.5887 426.723 75.9498 420.278 87.3248C413.824 98.7138 411.324 111.074 411.324 127.508H412.324ZM453.036 53.4984C453.298 53.0724 453.297 53.0721 453.297 53.0718C453.296 53.0717 453.296 53.0713 453.295 53.071C453.294 53.0703 453.293 53.0693 453.291 53.0682C453.287 53.0659 453.282 53.0627 453.275 53.0586C453.261 53.0504 453.242 53.0388 453.216 53.0237C453.164 52.9937 453.089 52.9503 452.989 52.8949C452.789 52.7841 452.493 52.6256 452.1 52.4308C451.313 52.0411 450.138 51.5061 448.574 50.9171C445.447 49.7392 440.765 48.3459 434.519 47.4685C422.026 45.7134 403.292 46.0246 378.253 54.2342L378.564 55.1845C403.465 47.0201 422.045 46.7259 434.38 48.4588C440.549 49.3254 445.16 50.6995 448.222 51.8529C449.753 52.4297 450.897 52.9513 451.656 53.3269C452.035 53.5147 452.318 53.666 452.504 53.7694C452.597 53.8211 452.666 53.8608 452.711 53.8871C452.734 53.9003 452.75 53.9101 452.761 53.9164C452.766 53.9195 452.77 53.9218 452.772 53.9231C452.773 53.9238 452.774 53.9243 452.774 53.9245C452.774 53.9246 452.774 53.9246 452.775 53.9246C452.774 53.9246 452.774 53.9245 453.036 53.4984ZM298.843 144.361C291.845 170.281 291.852 211.305 293.596 249.88C294.468 269.179 295.776 287.886 296.865 303.81C297.956 319.744 298.826 332.873 298.826 341.041H299.826C299.826 332.83 298.952 319.659 297.863 303.742C296.773 287.815 295.466 269.12 294.595 249.834C292.851 211.241 292.858 170.369 299.809 144.622L298.843 144.361ZM298.826 341.041C298.826 357.358 296.068 369.225 289.453 380.113C282.826 391.02 272.305 400.984 256.688 413.449L257.312 414.23C272.941 401.756 283.583 391.7 290.307 380.632C297.044 369.545 299.826 357.483 299.826 341.041H298.826ZM257 413.84C256.732 413.418 256.732 413.417 256.732 413.417C256.732 413.417 256.732 413.417 256.732 413.418C256.731 413.418 256.731 413.418 256.729 413.419C256.727 413.421 256.723 413.423 256.718 413.427C256.706 413.433 256.689 413.444 256.665 413.458C256.618 413.487 256.546 413.53 256.448 413.586C256.253 413.699 255.959 413.863 255.564 414.067C254.774 414.476 253.586 415.045 252.003 415.678C248.835 416.945 244.085 418.469 237.777 419.486C225.165 421.52 206.31 421.527 181.414 413.365L181.103 414.315C206.147 422.526 225.163 422.533 237.936 420.474C244.322 419.444 249.143 417.898 252.374 416.607C253.989 415.961 255.207 415.378 256.024 414.955C256.432 414.744 256.74 414.572 256.948 414.453C257.051 414.393 257.13 414.346 257.183 414.314C257.21 414.298 257.23 414.285 257.244 414.276C257.252 414.272 257.257 414.269 257.261 414.266C257.263 414.265 257.264 414.264 257.266 414.263C257.266 414.263 257.267 414.263 257.267 414.262C257.267 414.262 257.268 414.262 257 413.84ZM181.414 413.365C156.491 405.193 140.304 395.703 128.602 381.861C116.892 368.008 109.629 349.745 102.659 323.927L101.693 324.188C108.672 350.038 115.98 368.479 127.839 382.506C139.706 396.545 156.086 406.112 181.103 414.315L181.414 413.365ZM102.659 323.927C95.7077 298.18 95.7007 257.308 97.4447 218.715C98.3162 199.429 99.6234 180.734 100.713 164.807C101.802 148.89 102.676 135.719 102.676 127.508H101.676C101.676 135.676 100.806 148.805 99.7156 164.739C98.626 180.663 97.3178 199.37 96.4457 218.669C94.7026 257.244 94.6956 298.268 101.693 324.188L102.659 323.927ZM102.676 127.508C102.676 111.074 100.175 98.7138 93.7221 87.3248C87.2767 75.9498 76.9126 65.5887 61.2758 53.1076L60.652 53.8892C76.261 66.3481 86.5029 76.6127 92.8521 87.8178C99.1933 99.009 101.676 111.183 101.676 127.508H102.676ZM60.9639 53.4984C61.2256 53.9245 61.2254 53.9246 61.2253 53.9246C61.2254 53.9246 61.2253 53.9246 61.2255 53.9245C61.2259 53.9243 61.2266 53.9238 61.2278 53.9231C61.23 53.9218 61.2337 53.9195 61.239 53.9164C61.2495 53.9101 61.266 53.9003 61.2885 53.8871C61.3335 53.8608 61.4027 53.8211 61.4958 53.7694C61.6822 53.666 61.9649 53.5147 62.3441 53.3269C63.1024 52.9513 64.2466 52.4297 65.7778 51.8529C68.84 50.6995 73.4508 49.3254 79.6195 48.4588C91.9545 46.7259 110.534 47.0201 135.435 55.1845L135.747 54.2342C110.708 46.0246 91.974 45.7134 79.4804 47.4685C73.2348 48.3459 68.5526 49.7392 65.4253 50.9171C63.8617 51.5061 62.6871 52.0411 61.9003 52.4308C61.5069 52.6256 61.2104 52.7841 61.0108 52.8949C60.911 52.9503 60.8353 52.9937 60.7839 53.0237C60.7582 53.0388 60.7385 53.0504 60.7249 53.0586C60.7181 53.0627 60.7128 53.0659 60.709 53.0682C60.7071 53.0693 60.7056 53.0703 60.7045 53.071C60.7039 53.0713 60.7033 53.0717 60.703 53.0718C60.7026 53.0721 60.7022 53.0724 60.9639 53.4984ZM214.191 144.622C221.142 170.369 221.149 211.241 219.405 249.834C218.534 269.12 217.226 287.815 216.137 303.742C215.047 319.659 214.174 332.83 214.174 341.041H215.174C215.174 332.873 216.044 319.744 217.134 303.81C218.224 287.886 219.532 269.179 220.404 249.88C222.147 211.305 222.154 170.281 215.157 144.361L214.191 144.622ZM214.174 341.041C214.174 357.483 216.956 369.545 223.692 380.632C230.417 391.7 241.059 401.756 256.688 414.23L257.312 413.449C241.695 400.984 231.174 391.02 224.547 380.113C217.932 369.225 215.174 357.358 215.174 341.041H214.174ZM215.157 144.361C207.229 114.996 198.877 95.1935 183.911 80.558L183.212 81.2729C197.977 95.7124 206.273 115.293 214.191 144.622L215.157 144.361ZM183.911 80.558C172.53 69.4269 157.36 61.3206 135.747 54.2342L135.435 55.1845C156.971 62.2455 171.982 70.2898 183.212 81.2729L183.911 80.558ZM256.764 0.559401C238.92 10.132 225.751 19.0051 214.415 31.0818C203.082 43.1564 193.606 58.4073 183.109 80.7025L184.014 81.1284C194.489 58.8796 203.912 43.7332 215.144 31.7662C226.375 19.8014 239.439 10.9887 257.236 1.4406L256.764 0.559401ZM183.109 80.7025C183.084 80.756 183.059 80.8095 183.034 80.863L183.939 81.2886C183.964 81.2352 183.989 81.1818 184.014 81.1284L183.109 80.7025ZM299.809 144.622C307.726 115.293 316.023 95.7124 330.788 81.2729L330.088 80.558C315.123 95.1935 306.771 114.996 298.843 144.361L299.809 144.622ZM330.89 80.7025C320.394 58.4073 310.918 43.1564 299.585 31.0818C288.249 19.0052 275.08 10.132 257.236 0.559401L256.764 1.4406C274.561 10.9887 287.625 19.8014 298.856 31.7662C310.088 43.7332 319.511 58.8796 329.986 81.1284L330.89 80.7025ZM329.986 81.1284C330.011 81.1819 330.036 81.2352 330.061 81.2886L330.966 80.863C330.941 80.8094 330.915 80.7559 330.89 80.7025L329.986 81.1284ZM378.253 54.2342C356.639 61.3206 341.47 69.4269 330.088 80.558L330.788 81.2729C342.018 70.2898 357.028 62.2455 378.564 55.1845L378.253 54.2342Z" fill="url(#paint7_linear_267_422)"/>
<path d="M95.2139 251.726C98.1229 267.155 98.8269 276.29 110.264 287.259C123.586 304.557 134.29 316.996 146.529 327.47C157.312 336.698 169.286 344.4 185.291 352.557C204.905 361.251 216.3 386.334 216.3 386.334C216.3 386.334 223.145 447.331 230.663 479.557C231.191 483.432 231.765 486.893 232.418 489.977C248.763 495.225 262.536 495.463 281.586 489.955C282.237 486.877 282.81 483.423 283.337 479.557C290.854 447.331 297.7 386.334 297.7 386.334C297.7 386.334 315.206 364.031 328.709 352.557C342.592 340.76 356.688 336.698 367.471 327.47C379.709 316.996 390.952 306.816 404.027 287.331C412.938 275.199 415.877 267.155 418.786 251.726C421.695 236.298 418.786 90.7817 418.786 90.7817C410.139 159.832 396.778 195.623 307.793 237.095C269.579 255.366 262.963 274.566 257 312.342C251.037 274.566 244.421 255.366 206.207 237.095C117.222 195.623 103.86 159.832 95.2139 90.7817C95.2139 90.7817 92.3049 236.298 95.2139 251.726Z" fill="url(#paint8_linear_267_422)"/>
<path d="M232.418 489.977C236.144 507.573 242.408 512.899 257 513C271.597 512.899 277.861 507.569 281.586 489.955C262.536 495.463 248.763 495.225 232.418 489.977Z" fill="black"/>
<path d="M283.337 479.557C330.92 410.871 365.719 389.634 450.767 381.318C451.556 335.045 441.594 314.502 404.027 287.331C390.952 306.816 379.709 316.996 367.471 327.47C350.154 372.869 336.498 389.416 297.7 386.334C297.7 386.334 290.854 447.331 283.337 479.557Z" fill="url(#paint9_linear_267_422)"/>
<path d="M63.233 381.318C148.28 389.634 183.079 410.871 230.663 479.557C223.145 447.331 216.3 386.334 216.3 386.334C177.502 389.416 163.845 372.869 146.529 327.47C134.29 316.996 123.586 304.557 110.264 287.259C72.6968 314.43 62.4435 335.045 63.233 381.318Z" fill="url(#paint10_linear_267_422)"/>
<path d="M328.709 352.557C315.206 364.031 297.7 386.334 297.7 386.334C336.498 389.416 350.154 372.869 367.471 327.47C356.688 336.698 342.592 340.76 328.709 352.557Z" fill="black"/>
<path d="M216.3 386.334C216.3 386.334 204.905 361.251 185.291 352.557C169.286 344.4 157.312 336.698 146.529 327.47C163.845 372.869 177.502 389.416 216.3 386.334Z" fill="black"/>
<path d="M418.786 90.7817C410.139 159.832 396.778 195.623 307.793 237.095C329.668 130.601 358.082 108.016 418.786 90.7817Z" fill="url(#paint11_linear_267_422)"/>
<path d="M95.2139 90.7817C103.86 159.832 117.222 195.623 206.207 237.095C184.332 130.601 155.917 108.016 95.2139 90.7817Z" fill="url(#paint12_linear_267_422)"/>
<defs>
<linearGradient id="paint0_linear_267_422" x1="99.018" y1="67.5591" x2="99.018" y2="441.572" gradientUnits="userSpaceOnUse">
<stop stop-color="#FF5C00"/>
<stop offset="1" stop-color="#FAFF00"/>
</linearGradient>
<linearGradient id="paint1_linear_267_422" x1="197.036" y1="21.4548" x2="197.036" y2="259.256" gradientUnits="userSpaceOnUse">
<stop stop-color="white"/>
<stop offset="0.854167" stop-color="white" stop-opacity="0"/>
</linearGradient>
<linearGradient id="paint2_linear_267_422" x1="414.982" y1="67.5591" x2="414.982" y2="441.572" gradientUnits="userSpaceOnUse">
<stop stop-color="#FF5C00"/>
<stop offset="1" stop-color="#FAFF00"/>
</linearGradient>
<linearGradient id="paint3_linear_267_422" x1="316.964" y1="21.4548" x2="316.964" y2="259.256" gradientUnits="userSpaceOnUse">
<stop stop-color="white"/>
<stop offset="0.854167" stop-color="white" stop-opacity="0"/>
</linearGradient>
<linearGradient id="paint4_linear_267_422" x1="257" y1="1" x2="257" y2="421.117" gradientUnits="userSpaceOnUse">
<stop stop-color="#FF5C00"/>
<stop offset="1" stop-color="#FAFF00"/>
</linearGradient>
<linearGradient id="paint5_linear_267_422" x1="257" y1="1" x2="257" y2="421.117" gradientUnits="userSpaceOnUse">
<stop stop-color="#FF5C00"/>
<stop offset="1" stop-color="#FAFF00"/>
</linearGradient>
<linearGradient id="paint6_linear_267_422" x1="257" y1="1" x2="257" y2="421.117" gradientUnits="userSpaceOnUse">
<stop stop-color="#FF5C00"/>
<stop offset="1" stop-color="#FAFF00"/>
</linearGradient>
<linearGradient id="paint7_linear_267_422" x1="257" y1="1" x2="257" y2="238.801" gradientUnits="userSpaceOnUse">
<stop stop-color="white"/>
<stop offset="0.854167" stop-color="white" stop-opacity="0"/>
</linearGradient>
<linearGradient id="paint8_linear_267_422" x1="257" y1="90.7817" x2="257" y2="513" gradientUnits="userSpaceOnUse">
<stop stop-color="#FAFF00"/>
<stop offset="1" stop-color="#FF5C00"/>
</linearGradient>
<linearGradient id="paint9_linear_267_422" x1="257" y1="90.7817" x2="257" y2="513" gradientUnits="userSpaceOnUse">
<stop offset="0.9999" stop-color="#FF5C00"/>
<stop offset="1" stop-color="#FAFF00"/>
</linearGradient>
<linearGradient id="paint10_linear_267_422" x1="257" y1="90.7817" x2="257" y2="513" gradientUnits="userSpaceOnUse">
<stop offset="0.9999" stop-color="#FF5C00"/>
<stop offset="1" stop-color="#FAFF00"/>
</linearGradient>
<linearGradient id="paint11_linear_267_422" x1="257" y1="90.7817" x2="257" y2="513" gradientUnits="userSpaceOnUse">
<stop offset="0.9999" stop-color="#FF5C00"/>
<stop offset="1" stop-color="#FAFF00"/>
</linearGradient>
<linearGradient id="paint12_linear_267_422" x1="257" y1="90.7817" x2="257" y2="513" gradientUnits="userSpaceOnUse">
<stop offset="0.9999" stop-color="#FF5C00"/>
<stop offset="1" stop-color="#FAFF00"/>
</linearGradient>
</defs>
</svg>
