<svg width="64" height="11" viewBox="0 0 64 11" fill="none" xmlns="http://www.w3.org/2000/svg">
<path fill-rule="evenodd" clip-rule="evenodd" d="M0 6.3638C0 8.42777 1.15621 10.509 3.7453 10.509C6.33201 10.509 7.49047 8.42777 7.49047 6.3638C7.49047 4.95409 7.01536 3.3308 6.22245 2.01932C5.4513 0.753124 4.52469 0 3.7453 0C2.96353 0 2.03668 0.753124 1.27221 2.01932C0.475379 3.3308 0 4.95409 0 6.3638ZM26.5914 3.09645H23.9697V0.563006H32.0219V3.09645H29.4003L29.4002 9.94606H26.5913L26.5914 3.09645ZM38.0131 3.09649H42.1332V0.563048H38.0135C34.228 0.563048 32.207 2.44903 32.207 5.25457C32.207 8.06011 34.228 9.94612 38.0135 9.94612H42.1332V7.41265H38.0131C36.2615 7.41265 35.1095 6.78516 35.1095 5.25457C35.1095 3.72396 36.2615 3.09649 38.0131 3.09649ZM16.7584 6.16365L18.2559 0.563048H23.2195V9.94612H20.4107V2.30921L18.3688 9.94612H15.1481L13.1075 2.31398V9.94612H10.2985V0.563048H15.261L16.7584 6.16365ZM47.2564 3.2828H46.2659V4.20063H47.2564C47.5073 4.20063 47.6567 4.07154 47.6567 3.83347V3.66346C47.6567 3.41865 47.5279 3.2828 47.2564 3.2828ZM47.5073 5.25457H44.9427V0.562922H48.715V1.68493H46.2659V2.29677H47.5073C48.5455 2.29677 49.0476 2.81355 49.0476 3.72464C49.0476 4.68339 48.5455 5.25457 47.5073 5.25457ZM52.0997 3.33707H51.0549L51.5773 1.60336L52.0997 3.33707ZM54.1078 5.25457L52.6629 0.563048H50.6953L49.2501 5.25457H50.485L50.7495 4.357H52.4051L52.6765 5.25457H54.1078ZM57.4523 5.25457V3.43916H55.9396V5.25457H54.5823V0.563048H55.9396V2.28326H57.4523V0.563048H58.8096V5.25457H57.4523ZM61.2183 2.28322H60.9808V0.563006H59.6235V5.25452H60.9808V3.43912H61.1773L62.4326 5.25452H64L62.3038 2.8L63.8644 0.563006H62.4326L61.2183 2.28322Z" fill="#E30611"/>
</svg>
