<svg width="64" height="64" viewBox="0 0 64 64" fill="none" xmlns="http://www.w3.org/2000/svg">
<path d="M32 0C14.3041 0 0 14.3041 0 32C0 49.6959 14.3041 64 32 64C49.6959 64 64 49.6959 64 32C64 14.3041 49.6959 0 32 0ZM27.576 45.5668L25.2166 52.4977C16.3687 49.5484 10.47 41.1429 10.47 31.7051C10.47 22.2673 16.3687 14.0092 25.3641 10.9124L27.7235 17.8433C21.8249 19.7604 17.9908 25.3641 17.9908 31.5576C17.6959 38.0461 21.6774 43.6498 27.576 45.5668ZM38.4885 52.6452L36.2765 45.5668C42.3226 43.6498 46.3041 38.0461 46.3041 31.7051C46.3041 25.3641 42.3226 19.9078 36.424 17.9908L38.7834 10.9124C47.7788 13.8618 53.8249 22.2673 53.8249 31.7051C53.8249 41.4378 47.6313 49.8433 38.4885 52.6452Z" fill="#00BEF0"/>
</svg>
