<svg width="64" height="63" viewBox="0 0 64 63" fill="none" xmlns="http://www.w3.org/2000/svg">
<g clip-path="url(#clip0_476_585)">
<path d="M62.7554 0H0V62.439H62.7554V0Z" fill="black"/>
<path d="M61.0849 1.84753H1.85718V60.7767H61.0849V1.84753Z" fill="#FFEE00"/>
<path d="M5.01293 48.7692L12.8109 56.5279L30.8206 38.2395L49.573 56.8974L57.371 49.1386L38.8043 30.6655L42.3319 27.1557V19.7665L44.56 17.9191V24.0153L47.345 26.4167L55.8857 17.9191L58.6706 19.9511C60.3417 14.0398 50.8726 0.369706 43.0746 7.94366L33.9769 16.9954L35.8336 19.2122L31.192 23.6458L26.9216 19.2122L29.3352 17.1803L19.3092 7.57421C11.8826 1.47809 4.0846 10.7146 3.89893 19.9511L6.68394 17.7344L15.039 26.7862L18.0096 24.3848V18.8428L19.8663 20.3206V27.5252L23.5796 31.2198L5.01293 48.7692Z" fill="black"/>
</g>
<defs>
<clipPath id="clip0_476_585">
<rect width="64" height="62.439" fill="white"/>
</clipPath>
</defs>
</svg>
