<svg width="64" height="64" viewBox="0 0 64 64" fill="none" xmlns="http://www.w3.org/2000/svg">
<path d="M57.3174 12.4823C58.8308 14.437 60.0918 16.5809 61.1638 18.8509L32.0318 40.3526L19.7996 32.6598V23.4538L31.9695 31.0835L57.3174 12.4823Z" fill="#21A038"/>
<path d="M7.37747 32.0226C7.37747 31.5812 7.37747 31.2029 7.44054 30.7615L0.0630678 30.3833C0.0630678 30.8877 0 31.4552 0 31.9596C0 40.7874 3.59415 48.7949 9.39519 54.5968L14.6287 49.3632C10.1518 44.9493 7.37736 38.833 7.37736 32.023L7.37747 32.0226Z" fill="url(#paint0_linear_436_426)"/>
<path d="M31.9687 7.4335C32.4101 7.4335 32.7884 7.4335 33.2298 7.49656L33.6082 0.119087C33.1037 0.119087 32.5362 0.0560303 32.0317 0.0560303C23.2041 0.0560303 15.1964 3.65018 9.39453 9.45123L14.6281 14.6848C19.042 10.2078 25.2213 7.43339 31.9682 7.43339L31.9687 7.4335Z" fill="url(#paint1_linear_436_426)"/>
<path d="M31.9686 56.6226C31.5272 56.6226 31.1489 56.6226 30.7074 56.5595L30.3291 63.937C30.8335 63.937 31.401 64.0001 31.9055 64.0001C40.7332 64.0001 48.7408 60.4059 54.5427 54.6049L49.3092 49.3712C44.8953 53.9112 38.779 56.6226 31.969 56.6226H31.9686Z" fill="url(#paint2_linear_436_426)"/>
<path d="M45.8415 11.7283L52.0839 7.12525C46.5982 2.71146 39.5992 0 31.969 0V7.37747C37.1395 7.44053 41.9317 9.01696 45.8416 11.7283H45.8415Z" fill="url(#paint3_linear_436_426)"/>
<path d="M63.9999 32.0225C63.9999 30.0679 63.8107 28.1762 63.4955 26.2845L56.6224 31.3921V32.0226C56.6224 39.274 53.4697 45.7684 48.4883 50.2458L53.4697 55.7317C59.9013 49.9306 63.9999 41.4187 63.9999 32.0224L63.9999 32.0225Z" fill="#21A038"/>
<path d="M31.9687 56.6226C24.7174 56.6226 18.2229 53.4698 13.7455 48.4884L8.25977 53.4698C14.1239 59.9645 22.5728 64 31.9691 64L31.9687 56.6226Z" fill="url(#paint4_linear_436_426)"/>
<path d="M15.5116 13.8047L10.5302 8.31885C4.03555 14.1829 0 22.6318 0 32.027H7.37747C7.37747 24.8387 10.5302 18.2812 15.5116 13.8038V13.8047Z" fill="url(#paint5_linear_436_426)"/>
<defs>
<linearGradient id="paint0_linear_436_426" x1="8.60623" y1="53.7414" x2="1.07558" y2="31.9734" gradientUnits="userSpaceOnUse">
<stop offset="0.1444" stop-color="#F2E913"/>
<stop offset="0.3037" stop-color="#E7E518"/>
<stop offset="0.5823" stop-color="#CADB26"/>
<stop offset="0.891" stop-color="#A3CD39"/>
</linearGradient>
<linearGradient id="paint1_linear_436_426" x1="11.4675" y1="8.59003" x2="30.5983" y2="1.29995" gradientUnits="userSpaceOnUse">
<stop offset="0.0592" stop-color="#0FA8E0"/>
<stop offset="0.5385" stop-color="#0099F9"/>
<stop offset="0.9234" stop-color="#0291EB"/>
</linearGradient>
<linearGradient id="paint2_linear_436_426" x1="29.8995" y1="57.7357" x2="52.7012" y2="52.5825" gradientUnits="userSpaceOnUse">
<stop offset="0.1226" stop-color="#A3CD39"/>
<stop offset="0.2846" stop-color="#86C339"/>
<stop offset="0.8693" stop-color="#21A038"/>
</linearGradient>
<linearGradient id="paint3_linear_436_426" x1="30.4396" y1="4.71849" x2="49.4019" y2="10.5696" gradientUnits="userSpaceOnUse">
<stop offset="0.0566" stop-color="#0291EB"/>
<stop offset="0.79" stop-color="#0C8ACB"/>
</linearGradient>
<linearGradient id="paint4_linear_436_426" x1="10.1085" y1="54.6845" x2="30.4701" y2="62.2952" gradientUnits="userSpaceOnUse">
<stop offset="0.1324" stop-color="#F2E913"/>
<stop offset="0.2977" stop-color="#EBE716"/>
<stop offset="0.5306" stop-color="#D9E01F"/>
<stop offset="0.8023" stop-color="#BBD62D"/>
<stop offset="0.9829" stop-color="#A3CD39"/>
</linearGradient>
<linearGradient id="paint5_linear_436_426" x1="5.60728" y1="32.9312" x2="13.75" y2="11.7501" gradientUnits="userSpaceOnUse">
<stop offset="0.0698" stop-color="#A3CD39"/>
<stop offset="0.2599" stop-color="#81C55F"/>
<stop offset="0.9216" stop-color="#0FA8E0"/>
</linearGradient>
</defs>
</svg>
