<svg width="64" height="64" viewBox="0 0 64 64" fill="none" xmlns="http://www.w3.org/2000/svg">
<path d="M63.2043 23.3734C63.0301 23.1737 62.9281 22.9909 62.7839 22.737C62.7089 22.6083 62.6278 22.4695 62.5377 22.3206C62.787 21.9957 62.9972 21.62 63.1563 21.2069L63.7929 19.572L62.2255 19.3181C61.9613 19.2741 61.5349 19.1488 61.0364 19C60.0756 18.7157 58.8416 18.3499 57.4965 18.1909C57.9558 17.9641 58.3462 17.5544 58.6193 16.9993L58.8776 16.4748C58.8776 16.4748 58.8085 15.7402 58.5564 15.5101C58.6525 15.2833 58.7275 15.0327 58.7787 14.7584L58.9917 13.5872L57.9888 13.2014C57.8328 13.1405 57.6767 13.0965 57.5234 13.0694C57.4664 12.8562 57.3824 12.6293 57.2682 12.389L56.6737 11.1602L55.6018 11.8677C55.3346 12.0438 55.1095 12.2469 54.9262 12.4737C54.7672 12.4398 54.5959 12.4229 54.4158 12.4229C54.4158 12.4229 53.8033 12.345 53.1277 12.6225L52.2629 11.6104L51.239 10.3783C50.2813 9.22414 48.9842 8.88221 47.663 9.45089C47.1585 8.88221 46.3719 8.41171 45.1499 8.41171C44.7355 8.41171 44.3721 8.46916 44.159 8.49968C44.159 8.49968 42.4775 8.84492 41.5318 9.85703L40.3848 9.24099C39.6161 10.6051 38.301 11.0384 38.301 11.0384C38.2109 10.6389 38.0576 10.2666 37.8385 9.92469L37.9137 9.44412C37.9137 9.43058 38.1718 7.80244 38.9585 6.42134L40.3277 4.01791L38.388 4.26509C38.3939 4.04843 38.3851 3.79115 38.358 3.48651L38.1838 1.61793L36.6645 2.39321C36.4964 2.47772 36.3552 2.56237 36.2232 2.64026L35.9229 1.91927L35.2264 2.32541C35.1573 2.13249 35.0672 1.91249 34.9441 1.65867L34.1425 0L33.0044 1.38441C32.8872 1.52665 32.7882 1.65868 32.7041 1.78393L32.0136 1.00865L31.317 1.78724C31.2299 1.66199 31.1338 1.52997 31.0167 1.38786L29.8667 0L29.0619 1.66544C28.9389 1.91927 28.8519 2.13593 28.7828 2.32885L28.0892 1.92271L27.7889 2.64371C27.6568 2.56582 27.5156 2.48118 27.3475 2.39321L25.8222 1.62138L25.6541 3.49674C25.6271 3.79792 25.6181 4.05174 25.6241 4.26842L23.6814 4.02135L25.0535 6.42465C25.8432 7.80244 26.0954 9.43058 26.0954 9.44412L26.1675 9.92469C25.9484 10.2701 25.7923 10.6424 25.7051 11.0418C25.7051 11.0418 24.462 10.4427 23.6303 9.24099L22.4594 9.87056C21.1232 8.85515 20.2944 8.45908 18.8532 8.41171C17.6312 8.37443 16.8445 8.88221 16.3401 9.45089C15.016 8.88552 13.7218 9.22745 12.767 10.3818C12.767 10.3818 12.1394 11.1502 11.7431 11.6139C11.3468 12.0809 10.7613 12.4669 10.7613 12.4669C10.7613 12.4669 9.92951 12.257 9.07389 12.477C8.89076 12.2502 8.66247 12.0471 8.39232 11.8677L7.31725 11.1602L6.72576 12.3958C6.61173 12.6328 6.53061 12.8562 6.4766 13.0694C6.32354 13.0965 6.16742 13.1405 6.01129 13.2014L5.01428 13.594L5.22159 14.7584C5.27253 15.0395 5.34457 15.29 5.44363 15.5167C5.38667 15.642 5.33573 15.7741 5.29363 15.9128L5.12548 16.4781L5.38066 17.0028C5.65093 17.5544 6.03818 17.9675 6.50066 18.1943C5.15248 18.3534 3.92141 18.719 2.95765 19.0033C2.46216 19.1488 2.03576 19.2776 1.77162 19.3214L0.198222 19.5788L0.555518 20.4926L0.840765 21.2204C1.0029 21.6267 1.2161 22.0025 1.46232 22.3273C1.36916 22.4763 0.972834 23.177 0.79572 23.3767L0 24.2872L0.762702 25.2349C0.858807 25.3501 1.71455 26.3623 3.09868 26.3656C3.47697 26.3656 3.85231 26.2912 4.22469 26.1423C4.5939 26.7922 5.03232 27.4523 5.4316 27.7772C4.69602 28.752 3.85832 29.5983 2.66639 30.2381L1.6695 30.773L2.09885 32.0558C2.37808 32.8309 2.92157 33.6806 3.97247 34.0055C3.74724 34.7638 3.63923 35.4814 3.54312 36.1212C3.3179 37.641 3.22179 38.2705 2.03576 38.7411L0.969887 39.1609L1.27612 40.3863C1.52234 41.3847 1.89166 42.0449 2.29094 42.4815L1.58248 43.3616C1.58248 43.3616 3.26389 44.7834 4.91228 44.956C4.93622 44.9595 6.34146 45.061 6.97198 44.1538C7.22421 45.1827 7.6236 46.1307 7.98691 46.9904C8.73157 48.7574 9.1279 49.8033 8.62945 50.7578L7.50344 52.9107L9.71643 52.8058C10.6833 52.7617 11.581 52.694 12.3587 52.4773C12.3587 52.5249 12.3557 52.5687 12.3526 52.6129L12.1725 54.461L14.1121 54.0008C14.3163 53.933 14.5086 53.8416 14.6827 53.7366C15.8836 55.3208 17.9254 56.5563 20.6759 56.5563H20.8349L17.6732 58.0186L19.9761 59.3693C21.4924 60.2595 23.177 61.0043 25.0987 61.6371L24.8313 62.6765L25.9874 63.0589C26.654 63.2789 29.065 64 32.0015 64C34.9381 64 37.3461 63.2789 38.0157 63.0589L39.1687 62.6765L38.9013 61.6406C40.8261 61.0076 42.5106 60.2629 44.0268 59.3727L46.3298 58.022L43.1651 56.5597H43.3243C46.0746 56.5597 48.1133 55.3242 49.3144 53.7399C49.4886 53.8449 49.6808 53.9363 49.8848 54.0041L51.8245 54.4645L51.6474 52.6196C51.6443 52.5755 51.6415 52.5282 51.6415 52.4808C52.4161 52.6975 53.3169 52.7617 54.2806 52.8092L56.4935 52.9141L55.3736 50.7646C54.8721 49.8101 55.2715 48.7642 56.0132 46.9972C56.3765 46.1374 56.7758 45.1894 57.028 44.1605C57.4544 44.5261 57.9138 44.7461 58.3702 44.8613C58.3702 44.8613 58.7245 44.9798 59.0638 44.9898C60.0426 45.0236 60.5321 44.7089 61.2046 44.2316L62.4267 43.3651L61.712 42.485C62.1114 42.0517 62.4807 41.3915 62.7269 40.3965L63.0361 39.1676L61.9673 38.7481C60.7782 38.2773 60.6852 37.6478 60.4601 36.1278C60.364 35.4882 60.2588 34.7673 60.0306 34.0122C61.0815 33.6841 61.6219 32.8343 61.9013 32.0626L62.3277 30.7763L61.3308 30.2414C60.1387 29.6018 59.3009 28.7555 58.5624 27.7805C58.9646 27.4556 59.403 26.7954 59.7754 26.1456C60.1446 26.2947 60.5201 26.3656 60.9014 26.3691C62.2856 26.3691 63.1443 25.3569 63.2374 25.2417L64 24.294L63.2043 23.3734Z" fill="white"/>
<path fill-rule="evenodd" clip-rule="evenodd" d="M22.2437 40.0545V29.7303C22.2437 28.769 21.9975 27.8075 21.7031 26.9242H28.8104C29.4619 27.9328 30.6448 28.6097 32.0021 28.6097C33.3532 28.6097 34.5362 27.9328 35.1907 26.9242H42.2978C41.9975 27.8109 41.7544 28.769 41.7544 29.7303V40.0545H22.2437ZM31.999 54.163C31.0052 53.0495 30.2965 52.9275 27.6183 52.9275C24.4175 52.9275 22.2437 50.8119 22.2437 47.4304V40.6604H41.7514V47.4304C41.7514 50.8119 39.5805 52.9275 36.3738 52.9275C33.6985 52.9242 32.9898 53.0495 31.999 54.163Z" fill="#FFDD2D"/>
<path d="M23.3754 55.4395V57.501L21.7871 58.2219C23.1291 58.9091 24.7957 59.5928 26.7533 60.0971L27.6541 56.79C25.7326 56.3467 24.3932 55.883 23.3754 55.4395Z" fill="white"/>
<path d="M31.9983 58.2321C30.1216 58.2321 28.5423 58.0121 27.9118 57.8496L26.96 61.3192C28.4553 61.7322 30.2057 62.0368 31.9983 62.0368C33.7848 62.0368 35.5353 61.7356 37.0366 61.3192L36.0818 57.8496C35.4512 58.0154 33.8779 58.2321 31.9983 58.2321Z" fill="white"/>
<path d="M40.622 55.4395C39.6011 55.883 38.265 56.3433 36.3433 56.7935L37.2471 60.1006C39.2079 59.5961 40.8682 58.9124 42.2103 58.2254L40.625 57.5043V55.4395H40.622Z" fill="white"/>
<path d="M20.0482 22.1817C22.5343 20.6686 28.6115 17.3378 24.4919 13.7462C23.9305 13.2589 23.312 12.8188 22.7924 12.2738C22.15 12.8323 23.0327 14.2202 23.2549 14.728C23.2549 14.728 21.8827 14.8836 21.5555 14.8836C19.4356 14.8735 17.2137 13.4586 18.3397 10.7472C17.496 10.9436 17.3938 11.8575 17.1357 12.6394C16.5952 12.2265 15.6554 11.3396 14.9318 11.4649C15.5202 13.5871 17.9975 15.4998 19.919 15.9329C17.9764 17.1245 14.3732 18.0113 12.4787 15.4455C11.1485 18.3465 13.0011 19.5583 14.8177 21.0781C7.90275 24.6358 8.9237 28.6267 4.38676 31.768C4.97517 32.0793 7.59947 31.4532 7.83365 31.4159C6.84879 32.8545 6.38938 33.4639 6.10118 34.1646C5.8249 34.8212 5.70179 35.5626 5.42869 37.1603C5.21537 38.4229 4.82506 39.6821 3.46191 40.5182C3.99644 41.6081 5.18247 40.7551 5.67785 40.6096C5.6117 40.7246 5.44355 42.038 4.99923 42.671C7.3292 42.5017 6.2513 36.9639 8.58138 38.2976C9.2389 38.67 9.43712 39.5433 9.13371 40.2575C7.60241 43.8185 11.0824 46.9564 10.8932 50.0774C11.749 50.0706 12.6349 50.0436 13.1932 48.7403C13.4846 49.3902 13.9349 50.3042 14.1871 51.1843L14.8837 49.8472C15.313 52.061 17.1447 54.1055 19.6189 54.2884C18.4388 52.1829 19.8531 49.309 16.9856 46.2523C17.3428 45.9273 18.1686 45.3012 18.4628 44.8747C14.9438 45.3418 11.2716 42.2038 12.938 40.7145C14.028 39.743 14.5054 41.7604 16.1868 41.4219L15.5293 40.7822C15.7604 40.5248 16.0247 40.1899 16.2979 39.936C15.5833 39.8379 14.8026 39.3233 14.8026 39.3233L15.229 38.5277C11.1065 38.5209 11.0013 34.9668 12.6767 34.8247C13.4635 34.7604 14.4814 36.3952 17.0185 36.0533C16.6942 35.6133 16.5652 34.9465 16.4119 34.4557C17.0245 34.3914 17.7452 34.3982 18.3247 34.08C17.0847 33.9006 16.7723 33.43 15.7394 32.55L16.9375 32.0558C15.199 31.0775 15.3041 29.3748 15.2501 27.601C16.1598 28.1899 17.2288 29.104 18.3696 28.6809C18.6399 28.5792 18.8141 28.4372 18.8201 28.119C17.1927 27.3845 16.1479 24.558 20.0482 22.1817ZM17.0786 22.4592C14.9017 25.0826 15.8445 26.6532 16.2829 27.1373C15.4721 26.941 14.2623 25.7765 14.5383 24.6494C14.2803 24.998 14.016 25.3771 13.7458 25.7664C13.2052 26.5788 12.7219 27.3743 12.2925 28.1461C11.632 30.3597 12.8419 32.6448 14.9017 33.6568C12.6138 33.2777 11.5869 30.9827 11.5929 29.5204C10.4999 31.8493 9.97743 33.975 10.0255 35.759C10.0465 36.4224 10.0976 37.0418 10.1756 37.6273C10.7012 38.7512 11.5449 39.1643 13.0491 39.3706C11.683 39.4688 10.9593 39.3977 10.3649 38.6937C11.2956 43.2059 15.6493 47.1121 17.421 50.4564C15.6463 47.8568 11.9743 43.9845 10.6892 41.185C10.59 42.197 10.8302 44.79 11.9472 46.3843C10.3017 44.5599 10.1727 41.7977 10.2808 40.1796C9.8634 39.0152 9.59926 37.7154 9.56318 36.2362C9.53004 34.8754 9.61412 33.6941 9.79736 32.6345C8.75838 34.3 7.25715 34.943 6.5185 37.4785C6.6626 34.2084 8.8276 34.1578 10.449 30.1872C11.0764 28.4508 11.9891 26.9511 12.9982 25.2519C11.716 25.7258 10.7552 26.0642 9.2718 27.8955C10.3258 25.086 16.415 21.9279 19.2045 18.8711C18.3667 19.0709 14.9468 19.169 13.5266 18.0994C16.0998 18.8846 21.8257 17.9877 23.9875 16.3222C22.4953 18.7425 19.2465 18.8813 15.2922 23.6949C15.7965 23.2411 16.4691 22.7842 17.0786 22.4592Z" fill="white"/>
<path d="M58.5658 37.1606C58.2927 35.5629 58.1725 34.8215 57.8963 34.1649C57.6111 33.4642 57.1486 32.855 56.1608 31.4162C56.395 31.4535 59.0253 32.0799 59.6108 31.7684C55.0739 28.6271 56.0947 24.6361 49.1768 21.0785C50.9934 19.5587 52.846 18.3469 51.5158 15.4426C49.6213 18.0118 46.0181 17.1249 44.0754 15.93C46.0001 15.4966 48.4741 13.5876 49.0627 11.4618C48.3361 11.3365 47.3963 12.2233 46.8558 12.6329C46.5976 11.851 46.4984 10.9371 45.6547 10.7374C46.7807 13.4521 44.5558 14.867 42.433 14.8772C42.1087 14.8772 40.7396 14.7215 40.7396 14.7215C40.9588 14.2137 41.8415 12.826 41.1959 12.2674C40.6765 12.8158 40.064 13.2524 39.4995 13.7399C35.377 17.3314 41.4602 20.6656 43.9463 22.1752C47.8407 24.5515 46.8048 27.378 45.1744 28.1023C45.1804 28.4205 45.3546 28.5628 45.6278 28.6643C46.7627 29.0908 47.8377 28.177 48.7415 27.5845C48.6904 29.3583 48.7984 31.0642 47.0601 32.0392L48.2551 32.5333C47.2222 33.4134 46.9128 33.884 45.6727 34.0634C46.2493 34.3816 46.976 34.3748 47.5855 34.4391C47.4293 34.9299 47.2943 35.5968 46.976 36.0368C49.5161 36.3752 50.537 34.7438 51.3177 34.808C52.987 34.9503 52.888 38.5044 48.7625 38.5112L49.1889 39.3066C49.1889 39.3066 48.4081 39.8212 47.6905 39.9194C47.9638 40.1698 48.231 40.5084 48.4621 40.7656L47.8046 41.4055C49.4831 41.7439 49.9636 39.7265 51.0534 40.698C52.7198 42.1874 49.0507 45.3251 45.5288 44.8581C45.8259 45.2846 46.6517 45.9142 47.0089 46.2392C44.1385 49.2924 45.5498 52.1696 44.3756 54.2784C46.8438 54.0923 48.6754 52.0478 49.1108 49.834L49.8073 51.171C50.0565 50.2909 50.513 49.3771 50.7982 48.7271C51.3536 50.0304 52.2454 50.0575 53.1042 50.0642C52.909 46.9433 56.3861 43.8054 54.8607 40.2444C54.5545 39.5335 54.7525 38.6602 55.4103 38.2845C57.7461 36.9507 56.6622 42.4887 58.9953 42.6579C58.5479 42.0248 58.3828 40.7115 58.3196 40.5965C58.812 40.7421 59.9952 41.5949 60.5295 40.5016C59.1754 39.6824 58.7851 38.4232 58.5658 37.1606ZM54.2031 32.6315C54.3864 33.6944 54.4793 34.8724 54.4373 36.2332C54.3983 37.7124 54.137 39.0122 53.7197 40.1766C53.8247 41.7948 53.6988 44.5568 52.0532 46.3814C53.1672 44.7837 53.4105 42.1942 53.3113 41.182C52.0202 43.9813 48.3512 47.8538 46.5735 50.4535C48.3481 47.1091 52.7018 43.1994 53.6356 38.6907C53.035 39.3912 52.3175 39.4659 50.9483 39.3677C52.4496 39.1611 53.2933 38.7482 53.8187 37.6244C53.8968 37.0422 53.948 36.4193 53.9688 35.7559C54.02 33.972 53.4946 31.8461 52.4016 29.5173C52.4107 30.9796 51.3837 33.2746 49.0928 33.6538C51.1466 32.6383 52.3595 30.3534 51.702 28.1431C51.2756 27.3713 50.7953 26.5724 50.2487 25.7633C49.9784 25.3741 49.7143 24.995 49.4531 24.6464C49.7293 25.7734 48.5193 26.9379 47.7085 27.1342C48.15 26.6502 49.0898 25.0795 46.9158 22.4562C47.5254 22.7812 48.198 23.2381 48.7054 23.6849C44.751 18.8715 41.5052 18.7361 40.007 16.3126C42.1717 17.978 47.8978 18.8783 50.4679 18.0895C49.0507 19.1592 45.6278 19.061 44.79 18.8613C47.5795 21.918 53.6747 25.0763 54.7256 27.8859C53.2423 26.0545 52.2785 25.716 51.0023 25.2421C52.0142 26.9446 52.921 28.441 53.5486 30.1774C55.1729 34.1479 57.3409 34.1954 57.4819 37.4687C56.7434 34.94 55.245 34.297 54.2031 32.6315Z" fill="white"/>
<path d="M35.1874 26.9205C34.5356 27.9292 33.3497 28.6062 32.0015 28.6062C31.6862 28.6062 31.3829 28.5657 31.0947 28.5047C31.1759 28.9211 31.365 29.351 31.7583 29.7199C31.5992 30.9283 32.0615 32.0589 33.2116 32.3535C33.3346 32.9696 33.671 33.4333 34.2415 33.6532L33.4397 34.6959C33.1305 35.0953 32.7281 35.2239 32.4039 35.1766L28.8249 34.7195C28.9809 34.2727 28.5665 33.7548 27.4316 33.9748L28.8368 29.5405L27.981 27.4859L26.3567 29.0497L26.2366 33.7006L25.537 33.3182C24.6362 32.878 24.369 34.7296 25.2278 34.7364L25.573 34.7399C25.549 34.9293 25.603 35.1393 25.7381 35.207C25.576 35.2814 25.5279 35.6233 25.7292 35.7453C25.5249 35.8569 25.495 36.209 25.6601 36.3613C25.4829 36.7031 25.4498 37.4445 26.0775 37.6307C26.5939 37.783 26.9181 37.16 27.0233 36.7979L32.593 38.7409C33.3767 38.9949 33.9412 38.8526 34.5958 38.2062L36.0491 36.7742C35.8659 37.7119 36.163 38.5547 36.7967 38.8357C36.7967 38.8357 36.6975 39.6954 36.7366 40.051L38.6852 40.0543H41.7538V29.7301C41.7538 28.7688 41.9972 27.8074 42.2974 26.9205H38.6852H35.1874Z" fill="white"/>
<path d="M26.8465 44.2926L26.9547 44.445C27.1048 44.6549 27.1949 44.604 27.366 44.4924L27.6182 44.3401C27.7774 44.2046 28.8133 44.6516 28.8703 43.6801C28.9844 44.4043 28.2188 45.9309 28.6811 46.7841L29.3027 47.9316L27.2729 47.9655C27.0508 47.9655 26.9337 48.1177 26.8737 48.2531L26.3421 49.4954C26.2039 49.8237 26.213 50.1623 26.3871 50.3891L26.7475 50.846C26.7475 50.846 27.0418 50.5651 27.1377 50.1961L26.9786 50.0099C26.8465 49.8677 26.8465 49.7323 26.9186 49.5563L27.2458 48.7914C27.372 48.49 27.5011 48.4257 27.7894 48.5036L29.4318 48.903C29.5518 48.937 29.7471 49.0012 29.8641 48.7744C30.0653 48.3715 30.4196 48.3445 30.78 48.4089C31.6806 48.5611 33.7616 48.8049 34.5032 47.8266C35.3739 49.1299 37.0764 49.1299 36.9653 49.8135L36.605 52.0544H37.1454L37.4757 49.7629C37.5116 49.4954 37.6589 49.1299 37.4036 48.9234C37.2986 48.832 37.2506 48.7846 37.0132 48.3242C36.704 47.7149 36.7191 46.8009 36.4217 46.0122C36.704 45.6365 37.0102 45.5079 37.2774 45.579C37.878 45.7448 38.0401 46.9127 38.8928 47.8637C38.7968 47.4407 38.7549 46.977 38.5536 46.5741C38.5536 46.5741 39.1451 47.092 39.2982 47.6979C39.3943 48.0771 39.4934 48.3546 39.7967 48.5307C39.9978 48.6119 40.238 48.5036 40.4784 48.1786C40.4784 48.1786 39.9167 47.2783 39.5054 46.6893C38.9409 45.8802 38.1872 45.0678 37.1605 45.1626C36.8361 45.1931 36.5238 45.359 36.2267 45.5586C35.0586 44.8207 34.1519 45.6026 33.7915 45.6026L31.6056 45.457C31.1763 45.4267 30.8369 44.8647 30.8369 44.8647C30.7829 42.7797 29.2967 41.9502 28.7832 41.9502C28.7832 41.9502 28.8314 41.5744 28.6961 41.4425L28.2398 42.089L26.9726 41.5677L27.9665 42.4851L26.8885 43.8966C26.7776 44.0355 26.7925 44.2182 26.8465 44.2926Z" fill="white"/>
<path d="M25.4145 47.2205C25.1083 47.4878 25.1233 47.8602 25.3065 48.2766L25.4896 48.6624L25.967 48.2528L25.859 47.9888C25.7809 47.8027 25.784 47.6131 25.919 47.4946L26.6036 46.9124C26.7958 46.7533 26.8559 46.7364 27.0601 46.7702L28.5041 47.1122C28.5041 47.1122 28.285 46.7533 28.213 46.3877L26.8528 46.1845C26.6606 46.1575 26.5436 46.249 26.3755 46.3944L25.4145 47.2205Z" fill="white"/>
<path d="M34.6499 52.0542H35.1965L36.0731 49.6204C36.1031 49.5358 36.1451 49.4986 36.1783 49.4275C35.7849 49.2515 35.5536 49.1296 35.2264 48.9164C35.4456 49.2481 35.6167 49.3903 35.5266 49.6983L34.6499 52.0542Z" fill="white"/>
<path d="M35.1149 19.1354L36.1267 12.5787L32.2925 14.0478V20.8076L35.1149 19.1354ZM32.9409 14.7112L35.4841 13.6552C35.4841 13.6552 34.9887 14.1087 34.3972 14.5656C33.8718 14.9752 32.9409 15.412 32.9409 15.412V14.7112ZM32.9409 16.2988L35.2679 15.3611C35.2679 15.3611 34.9887 15.693 34.4002 16.1499C33.8747 16.5561 32.944 16.9927 32.944 16.9927V16.2988H32.9409ZM32.9409 17.9845L34.9887 17.0976C34.9887 17.0976 34.9887 17.3786 34.3972 17.8322C33.8718 18.2418 32.9409 18.6784 32.9409 18.6784V17.9845Z" fill="white"/>
<path d="M28.2935 24.9338L28.3776 25.0862H29.1673L29.1762 25.2419C29.1853 25.391 29.2154 25.5432 29.2603 25.6988C29.3835 26.122 29.6267 26.5655 30.017 26.9242C30.4704 27.3373 31.125 27.6352 31.9957 27.6352C33.8844 27.6352 34.7371 26.2575 34.8182 25.2419L34.8242 25.0862H35.6167L35.7008 24.9338C36.4456 23.6206 37.3554 22.1616 38.4121 21.9518L35.5297 20.0662L31.9957 22.2326L28.4586 20.0662L25.5791 21.9518C26.6361 22.1582 27.5459 23.6206 28.2935 24.9338Z" fill="white"/>
<path d="M31.6989 20.8076V14.0478L27.8706 12.5787L28.8763 19.1354L31.6989 20.8076ZM31.0533 18.6852C31.0533 18.6852 30.1224 18.2453 29.5971 17.839C29.0056 17.3854 29.0056 17.1011 29.0056 17.1011L31.0562 17.9879V18.6852H31.0533ZM31.0533 14.7112V15.412C31.0533 15.412 30.1224 14.9752 29.5971 14.5656C29.0025 14.1087 28.5041 13.6552 28.5041 13.6552L31.0533 14.7112ZM31.0533 16.2988V16.9961C31.0533 16.9961 30.1224 16.5595 29.5971 16.1532C29.0025 15.6963 28.7263 15.3645 28.7263 15.3645L31.0533 16.2988Z" fill="white"/>
<path d="M31.9983 9.68787C29.8094 9.68787 28.167 10.4968 27.8096 11.4447L31.9983 13.3098L36.1809 11.4447C35.8266 10.4968 34.1871 9.68787 31.9983 9.68787Z" fill="white"/>
<path d="M31.9985 6.97957C33.611 6.97957 35.2263 7.53139 36.3132 8.24563C36.4904 7.58553 36.6796 7.11503 36.9378 6.57688L35.9471 6.7495L35.1452 4.82001L33.647 5.71709L31.9985 3.87903L30.3471 5.71709L28.8518 4.82001L28.0442 6.7495L27.0532 6.57688C27.3115 7.11503 27.4977 7.58553 27.6809 8.24563C28.7708 7.53139 30.3802 6.97957 31.9985 6.97957Z" fill="white"/>
<path d="M59.3219 21.8397C59.8623 21.7619 60.2978 21.5588 60.8292 21.1118C59.6852 20.7701 57.289 19.7918 55.2443 20.2319C54.5688 20.3334 54.1935 20.6414 54.4336 20.8174C55.5326 21.64 56.8898 23.5456 57.8776 25.7698C58.7454 24.5545 58.382 22.9601 58.1988 22.5032C59.9283 23.6777 60.3818 24.2498 61.1835 24.0264C60.754 23.2851 60.1505 22.6183 59.3219 21.8397Z" fill="white"/>
<path d="M6.11934 25.7667C7.10715 23.5428 8.46429 21.6372 9.56624 20.8145C9.81246 20.6385 9.43111 20.3304 8.76156 20.2289C6.71378 19.7923 4.31176 20.7672 3.16782 21.109C3.70518 21.556 4.13158 21.759 4.67814 21.8368C3.84645 22.6188 3.24282 23.2823 2.81348 24.0235C3.62111 24.2469 4.07156 23.6749 5.79802 22.5002C5.6209 22.9606 5.25452 24.5515 6.11934 25.7667Z" fill="white"/>
<path fill-rule="evenodd" clip-rule="evenodd" d="M18.1085 46.4082C18.9043 45.6972 19.5647 45.3417 19.5318 43.6188C18.3367 44.3093 14.9469 44.2721 13.5296 42.0719C13.1302 41.4457 13.5566 41.131 13.9439 41.6251C14.9137 42.864 16.7093 42.3022 17.3639 41.9466C17.2588 41.5202 16.9676 40.965 16.7244 40.7281C16.9706 40.4573 17.6642 40.051 17.8052 39.3538C17.4359 39.127 15.9977 38.9645 15.9977 38.9645C16.229 38.714 16.5171 38.3654 16.3431 37.4345C14.8747 37.9423 13.0582 37.2517 12.6469 36.6391C12.2415 36.0364 12.656 35.4712 12.9982 35.8706C13.7308 36.7371 17.3398 37.729 18.6821 36.2227C18.1837 36.067 17.6341 35.5659 17.535 35.2545C18.7782 35.1125 19.769 34.2864 19.8501 33.2574C19.1624 33.2574 17.8653 33.1999 17.4208 32.8275C18.0154 32.5805 18.3938 32.3367 18.5829 31.5852C16.31 31.4296 16.1299 29.5271 16.1178 29.2124C17.5981 30.1736 20.2043 29.7471 19.5288 27.3776C18.2977 27.3032 17.0576 25.059 20.4416 22.9975C23.5193 21.1189 27.0172 19.0946 26.7079 15.7605C26.5068 13.6279 23.3931 12.1723 22.9968 11.0925C21.6966 11.7898 21.4354 12.5989 22.0209 13.9562C22.0209 13.9562 19.1234 14.2812 18.8952 12.2705C18.7961 11.3701 19.3305 10.5272 19.9041 9.88074C19.5798 9.88074 17.3969 9.22063 16.7393 11.2245C15.5173 10.2836 14.4694 10.3174 13.6467 11.3125C14.9617 12.1926 15.7755 15.212 17.9493 16.1022C16.403 17.0466 13.9019 16.6507 12.4426 13.7463C11.0614 16.0921 10.2658 18.4142 13.2294 20.8954C7.83965 23.6609 7.8788 28.9483 3.18868 31.4667C3.66307 32.9053 4.66597 32.9053 5.94516 32.682C3.91825 35.6506 5.64482 38.758 2.43506 40.0274C2.73528 41.2392 3.33879 42.2073 4.52188 41.8519C4.18557 42.4442 3.96341 42.4306 3.44091 43.0806C5.19437 44.3263 7.27529 43.4259 7.74661 39.4282C7.83069 38.714 8.70141 39.1608 8.40118 39.8616C6.40139 44.5227 11.4579 48.0295 9.66835 51.4484C11.2446 51.3737 12.4486 51.235 13.1032 50.6359C13.4245 51.3535 13.6197 52.0644 13.5477 52.7651C14.4184 52.5654 14.7366 51.9865 14.7967 51.3163C15.3673 53.195 17.4089 55.2022 20.6758 55.2022C18.9433 52.4131 20.5557 49.5866 18.1085 46.4082ZM14.8837 49.8438L14.1873 51.1808C13.9379 50.3007 13.4846 49.3869 13.1933 48.737C12.6319 50.0402 11.7461 50.0673 10.8933 50.0741C11.0824 46.9531 7.60252 43.8152 9.13382 40.2542C9.44005 39.5434 9.23888 38.67 8.58125 38.2943C6.24833 36.9606 7.32918 42.4984 4.99933 42.6677C5.44365 42.0346 5.61169 40.7213 5.67784 40.6061C5.18234 40.7518 3.99631 41.6047 3.46202 40.5149C4.82517 39.6787 5.21548 38.4196 5.42868 37.157C5.69883 35.5592 5.825 34.8179 6.09822 34.1612C6.38642 33.4606 6.84583 32.8512 7.83069 31.4126C7.59651 31.4498 4.97528 32.0761 4.38379 31.7647C8.92074 28.6234 7.89979 24.6324 14.8147 21.0748C13.0011 19.555 11.1485 18.3431 12.4758 15.4423C14.3703 18.008 17.9705 17.1212 19.9161 15.9296C17.9945 15.4964 15.5173 13.5872 14.9318 11.4615C15.6553 11.3363 16.5952 12.2231 17.1328 12.636C17.3939 11.8507 17.4961 10.9402 18.3398 10.7438C17.2138 13.4552 19.4357 14.8702 21.5556 14.8804C21.8857 14.8804 23.255 14.7245 23.255 14.7245C23.0357 14.2169 22.15 12.8289 22.7925 12.2705C23.312 12.8189 23.9306 13.2555 24.492 13.7429C28.6146 17.3377 22.5343 20.6686 20.0482 22.1818C16.1478 24.558 17.1928 27.3879 18.8202 28.1089C18.8142 28.427 18.64 28.5692 18.3697 28.6708C17.2289 29.0973 16.1598 28.1799 15.2501 27.5909C15.3041 29.3647 15.1961 31.0707 16.9375 32.0456L15.7394 32.5364C16.7693 33.4199 17.0846 33.8869 18.3247 34.0697C17.7452 34.388 17.0276 34.3812 16.412 34.4456C16.5683 34.9363 16.6943 35.6033 17.0186 36.0432C14.4815 36.3819 13.4636 34.7501 12.6768 34.8146C11.0014 34.9566 11.1065 38.511 15.2291 38.5178L14.8027 39.3131C14.8027 39.3131 15.5833 39.8277 16.3011 39.9257C16.0277 40.1763 15.7635 40.5149 15.5324 40.772L16.1899 41.4118C14.5055 41.7502 14.031 39.7328 12.938 40.7043C11.2717 42.1937 14.9438 45.3317 18.4628 44.8644C18.1687 45.2911 17.3398 45.9207 16.9856 46.2456C19.853 49.2989 18.4388 52.1761 19.6188 54.2851C17.1448 54.1021 15.3131 52.0541 14.8837 49.8438Z" fill="black"/>
<path fill-rule="evenodd" clip-rule="evenodd" d="M10.359 38.694C10.9565 39.3946 11.6771 39.4691 13.0432 39.3709C11.539 39.1645 10.6953 38.7514 10.1698 37.6277C10.0947 37.0455 10.0438 36.4225 10.0227 35.7591C9.97467 33.9752 10.4971 31.8495 11.59 29.5206C11.584 30.9795 12.6079 33.2744 14.8989 33.657C12.8392 32.6416 11.6291 30.3566 12.2895 28.1463C12.719 27.3745 13.2025 26.5756 13.7429 25.7667C14.0131 25.3774 14.2773 24.9982 14.5356 24.6495C14.2593 25.7768 15.4694 26.9412 16.2801 27.1374C15.8416 26.6534 14.8989 25.0863 17.0758 22.463C16.4692 22.7879 15.7966 23.2448 15.2862 23.6916C19.2377 18.8782 22.4893 18.7428 23.9817 16.3192C21.8198 17.9847 16.094 18.885 13.5207 18.0961C14.9408 19.1658 18.3609 19.0676 19.1986 18.868C16.4122 21.9246 10.3229 25.083 9.26609 27.8925C10.7493 26.0578 11.7101 25.7227 12.9952 25.2521C11.9834 26.9547 11.0737 28.4509 10.446 30.1875C8.8246 34.1545 6.65677 34.2054 6.51562 37.4754C7.25439 34.9399 8.75562 34.2968 9.79449 32.6314C9.61136 33.6943 9.52422 34.8723 9.55723 36.2331C9.59332 37.7122 9.85757 39.0121 10.2749 40.1765C10.1698 41.7946 10.2959 44.5566 11.9413 46.3813C10.8244 44.7869 10.5841 42.194 10.6832 41.1819C11.9714 43.9812 15.6435 47.8537 17.4181 50.4534C15.6435 47.1124 11.2928 43.2061 10.359 38.694Z" fill="black"/>
<path fill-rule="evenodd" clip-rule="evenodd" d="M51.0048 25.2518C52.2809 25.7257 53.2448 26.061 54.728 27.8956C53.6772 25.086 47.5789 21.9278 44.7924 18.8713C45.6301 19.0675 49.0531 19.1692 50.4704 18.0995C47.9002 18.8881 42.1743 17.9877 40.0093 16.3223C41.5047 18.746 44.7535 18.8814 48.7078 23.6948C48.2004 23.248 47.5278 22.791 46.9183 22.466C49.0922 25.0895 48.1524 26.66 47.7111 27.1441C48.5216 26.9478 49.7317 25.7834 49.4554 24.6561C49.7167 25.0048 49.9809 25.3839 50.2512 25.7732C50.7945 26.5856 51.2751 27.381 51.7044 28.1528C52.365 30.3667 51.1519 32.6514 49.0981 33.6636C51.3892 33.2845 52.416 30.986 52.4041 29.5271C53.5 31.856 54.0225 33.9818 53.9743 35.7656C53.9534 36.429 53.9023 37.0486 53.8242 37.6343C53.2958 38.7579 52.4521 39.171 50.9508 39.3774C52.3201 39.4722 53.0376 39.4012 53.638 38.7005C52.7042 43.2127 48.3535 47.1189 46.576 50.4632C48.3535 47.8636 52.0197 43.9913 53.3139 41.1917C53.4129 42.2039 53.1727 44.7967 52.0558 46.3912C53.7011 44.5667 53.8273 41.8045 53.7221 40.1864C54.1365 39.022 54.3977 37.7222 54.4398 36.2429C54.4788 34.8821 54.3856 33.7008 54.2056 32.6413C55.2474 34.3067 56.7457 34.95 57.4874 37.4853C57.3462 34.2119 55.1784 34.1612 53.554 30.194C52.9234 28.4472 52.0167 26.9512 51.0048 25.2518Z" fill="black"/>
<path fill-rule="evenodd" clip-rule="evenodd" d="M58.0552 32.6749C59.3313 32.9018 60.3343 32.9018 60.8117 31.4632C56.1215 28.9447 56.1607 23.6607 50.771 20.892C53.7345 18.414 52.936 16.0885 51.5577 13.7428C50.1014 16.6471 47.5914 17.0431 46.051 16.0987C48.2188 15.2084 49.0386 12.1891 50.3536 11.309C49.5309 10.3137 48.48 10.2799 47.258 11.2209C46.5974 9.21697 44.4176 9.87707 44.0902 9.87707C44.6607 10.5202 45.2013 11.3631 45.0992 12.267C44.874 14.2777 41.9765 13.9526 41.9765 13.9526C42.562 12.5952 42.3007 11.7863 41.0006 11.0889C40.6043 12.1688 37.4937 13.6243 37.2895 15.7567C36.9772 19.091 40.4811 21.1152 43.5558 22.994C46.9396 25.0554 45.6997 27.3031 44.4716 27.3741C43.79 29.7436 46.3963 30.1701 47.8795 29.2087C47.8734 29.5236 47.6844 31.4258 45.4114 31.5817C45.6036 32.3332 45.979 32.5767 46.5735 32.824C46.1291 33.1997 44.832 33.2538 44.1473 33.2538C44.2283 34.2828 45.2223 35.1122 46.4654 35.251C46.3662 35.5624 45.8139 36.0635 45.3183 36.2191C46.6605 37.7253 50.2696 36.7336 51.0023 35.8671C51.3385 35.4677 51.7499 36.0329 51.3475 36.6355C50.9331 37.2514 49.1196 37.942 47.6483 37.4308C47.4802 38.3584 47.7625 38.7104 47.9936 38.961C47.9936 38.961 46.5555 39.1233 46.1831 39.3503C46.3242 40.0476 47.0208 40.4503 47.264 40.7245C47.0177 40.9614 46.7266 41.5165 46.6215 41.9431C47.282 42.3019 49.0775 42.8604 50.0414 41.6215C50.4317 41.1307 50.8581 41.4421 50.4587 42.0684C49.0416 44.2685 45.6517 44.3024 44.4537 43.6152C44.4205 45.3382 45.0811 45.6938 45.8768 46.4044C43.4267 49.5831 45.0451 52.4095 43.3126 55.192C46.5764 55.192 48.6182 53.1847 49.1887 51.306C49.2548 51.9728 49.5669 52.555 50.4347 52.7547C50.3687 52.054 50.5608 51.3432 50.8791 50.6256C51.5397 51.2248 52.7438 51.3635 54.32 51.4379C52.5335 48.0191 57.5899 44.5123 55.5842 39.8512C55.2869 39.1504 56.1576 38.7036 56.2417 39.4179C56.7101 43.4155 58.794 44.316 60.5504 43.0704C60.022 42.4204 59.8028 42.4339 59.4664 41.8415C60.6495 42.1969 61.2501 41.2288 61.5533 40.017C58.3586 38.7511 60.085 35.6436 58.0552 32.6749ZM58.3255 40.6094C58.3887 40.7245 58.5537 42.0379 59.001 42.671C56.6681 42.5016 57.749 36.9638 55.416 38.2975C54.7584 38.6699 54.5634 39.5432 54.8665 40.2573C56.3918 43.8184 52.9149 46.9564 53.1101 50.0772C52.2513 50.0706 51.3595 50.0433 50.8041 48.7401C50.5187 49.3902 50.0594 50.304 49.8103 51.1841L49.1136 49.8471C48.6812 52.0608 46.8495 54.1054 44.3815 54.2915C45.5556 52.186 44.1442 49.3087 47.0148 46.2522C46.6545 45.9272 45.8287 45.2977 45.5316 44.8711C49.0535 45.3382 52.7226 42.2005 51.0563 40.7109C49.9664 39.7394 49.4859 41.757 47.8074 41.4183L48.465 40.7787C48.2338 40.5215 47.9666 40.1863 47.6933 39.9325C48.411 39.8343 49.1917 39.3197 49.1917 39.3197L48.7653 38.5243C52.8878 38.5175 52.9869 34.9632 51.3205 34.8211C50.5368 34.7568 49.5159 36.3917 46.9788 36.0499C47.3 35.6097 47.4322 34.9429 47.5883 34.4521C46.9757 34.3878 46.2521 34.3946 45.6757 34.0764C46.9157 33.897 47.228 33.4265 48.2579 32.5464L47.0629 32.0522C48.8012 31.0739 48.6903 29.3712 48.7443 27.5976C47.8375 28.1866 46.7625 29.1005 45.6306 28.6774C45.3603 28.5758 45.1832 28.4336 45.1772 28.1154C46.8076 27.391 47.8466 24.5646 43.9492 22.1883C41.4661 20.6753 35.3827 17.3443 39.5024 13.7529C40.0668 13.2655 40.6793 12.8254 41.1958 12.2805C41.8413 12.839 40.9587 14.2268 40.7393 14.7346C40.7393 14.7346 42.1086 14.8902 42.4328 14.8902C44.5557 14.8801 46.7806 13.4652 45.6546 10.7504C46.4984 10.9468 46.5974 11.8641 46.8556 12.646C47.3961 12.233 48.333 11.3496 49.0625 11.4748C48.4711 13.5973 45.9998 15.5098 44.0753 15.9429C46.0179 17.1346 49.621 18.0214 51.5156 15.4555C52.8428 18.3565 50.9932 19.5684 49.1767 21.0882C56.0947 24.6425 55.0708 28.6368 59.6105 31.7781C59.0251 32.0894 56.3949 31.4632 56.1607 31.4258C57.1515 32.8645 57.6139 33.4738 57.8961 34.1745C58.1724 34.8312 58.2926 35.5692 58.5658 37.1702C58.7819 38.4328 59.1752 39.692 60.5323 40.5283C60.001 41.608 58.818 40.7549 58.3255 40.6094Z" fill="black"/>
<path fill-rule="evenodd" clip-rule="evenodd" d="M25.3836 49.3465L26.3715 48.4021L26.2213 48.0636C26.1132 47.8199 26.1703 47.8064 26.2845 47.7117L26.807 47.2749C26.9269 47.1632 27.0531 47.1767 27.2002 47.2174L28.7644 47.6303H27.1131C26.7317 47.6573 26.6208 47.8233 26.4826 48.1415L26.3685 48.4021L25.9452 49.3838C25.801 49.7223 25.7259 50.1724 26.1043 50.6801L26.4045 51.083L25.7979 52.4675H26.3084L26.7288 51.5061C26.7618 51.4722 27.3833 50.8325 27.5154 50.1724C27.3352 50.0066 27.2092 49.8914 27.3083 49.6613L27.4974 49.2009C27.5606 49.0487 27.5814 48.9878 27.7616 49.0249L29.4011 49.4244C29.6053 49.4886 29.9055 49.5902 30.1246 49.2178C30.35 48.832 30.3799 48.8726 30.9023 48.9302L31.74 49.0317C32.884 49.1536 34.028 48.832 34.4724 48.4326C34.6285 48.832 34.9378 49.1401 35.0819 49.4515C35.136 49.5666 35.0459 49.7291 34.9769 49.9321L34.0371 52.4641H35.4872L36.307 50.1556C36.3821 49.9355 36.4931 49.7595 36.5772 49.6715L36.1058 52.4675H37.514L37.8863 49.702C37.9674 49.0859 37.9194 48.8896 37.6582 48.6356C37.0727 48.0772 37.0846 46.906 36.8955 46.195C36.9946 46.1308 37.1117 46.0968 37.2499 46.1173C37.5561 46.1477 37.7873 47.0313 38.1476 47.5999C38.8681 48.7406 39.85 49.9998 40.976 48.226C40.8679 48.0231 40.7508 47.8401 40.6127 47.6641L40.2975 47.2478C40.1143 47.0177 39.2436 45.8938 38.8801 45.4911C38.0545 44.5533 36.7874 44.6956 36.283 45.1525C35.1389 44.4755 33.932 45.1864 33.6467 45.1593L31.677 45.0238C31.5869 45.017 31.4519 44.9833 31.3558 44.8107L31.7221 44.6753C31.3799 43.0674 30.5181 41.7235 29.0138 41.49C29.0138 41.49 28.9267 40.9822 28.6954 40.884L28.2451 41.4798C28.1189 41.5001 27.9808 41.5441 27.8667 41.5983L25.9452 40.7926L27.3864 42.4344C27.3864 42.4344 26.6387 43.6293 26.4255 43.8729C26.2845 44.0964 26.2965 44.269 26.4556 44.4823L26.7348 44.8953C26.879 45.1086 27.0381 45.1018 27.2692 44.9697L27.5845 44.7836C27.7227 44.6548 28.185 44.9089 28.3832 44.7057C28.257 45.1729 28.194 45.623 28.1641 45.9786L26.8699 45.8024C26.5876 45.7584 26.4586 45.8024 26.2874 45.9548L25.1825 46.9127C24.8221 47.2242 24.7111 47.7623 24.9333 48.2871L25.3836 49.3465ZM36.0727 49.6206L35.1961 52.0579H34.6495L35.5264 49.6985C35.6165 49.3938 35.4453 49.2517 35.226 48.9199C35.5504 49.1265 35.7846 49.2619 36.1779 49.4312C36.1449 49.4988 36.1028 49.536 36.0727 49.6206ZM27.6175 44.3434L27.3684 44.4925C27.1942 44.6042 27.1071 44.6548 26.9569 44.445L26.8489 44.2893C26.7949 44.2149 26.7769 44.0356 26.888 43.8933L27.9628 42.4818L26.972 41.5644L28.2331 42.0891L28.6954 41.4391C28.8306 41.5679 28.7825 41.9435 28.7825 41.9435C29.2929 41.9435 30.7793 42.7763 30.8363 44.8614C30.8363 44.8614 31.1726 45.4199 31.6019 45.4504L33.7908 45.5992C34.1542 45.5992 35.061 44.8209 36.226 45.5554C36.5202 45.3556 36.8354 45.1965 37.1598 45.1559C38.1865 45.0712 38.9433 45.8769 39.5047 46.6893C39.916 47.2782 40.4806 48.1787 40.4806 48.1787C40.2374 48.5037 40.0001 48.6119 39.7991 48.5306C39.4958 48.3547 39.3966 48.0805 39.3005 47.6981C39.1474 47.0921 38.556 46.5742 38.556 46.5742C38.7571 46.9804 38.7991 47.4409 38.8952 47.8639C38.0395 46.9093 37.8773 45.7449 37.2798 45.5825C37.0156 45.5078 36.7064 45.6366 36.421 46.0089C36.7214 46.7975 36.7064 47.7117 37.0156 48.3242C37.2499 48.7812 37.3008 48.8217 37.406 48.9234C37.6582 49.1265 37.517 49.4954 37.4781 49.7629L37.1538 52.0545H36.6072L36.9676 49.8136C37.0787 49.1298 35.3763 49.1298 34.5054 47.8267C33.7638 48.8049 31.683 48.5612 30.7823 48.4089C30.4189 48.3479 30.0646 48.375 29.8664 48.7779C29.7494 49.0046 29.5542 48.9369 29.4342 48.9032L27.7917 48.5037C27.5034 48.4291 27.3773 48.4936 27.2512 48.7914L26.9239 49.5565C26.8519 49.7358 26.8549 49.8679 26.9869 50.0134L27.1431 50.1995C27.0501 50.5651 26.7528 50.8461 26.7528 50.8461L26.3954 50.3925C26.2212 50.1622 26.2124 49.8306 26.3505 49.5056L26.882 48.2531C26.9449 48.1145 27.0591 47.9654 27.2812 47.9654L29.311 47.9315L28.6894 46.7908C28.2271 45.9345 28.9958 44.4078 28.8786 43.6868C28.8156 44.6515 27.7797 44.2115 27.6175 44.3434ZM25.4136 47.2207L26.3745 46.3947C26.5456 46.2492 26.6597 46.1545 26.8549 46.1815L28.2121 46.3846C28.2871 46.7502 28.5033 47.109 28.5033 47.109L27.0591 46.7671C26.8549 46.7401 26.7949 46.7502 26.6027 46.906L25.9181 47.4882C25.7831 47.6067 25.777 47.7962 25.8551 47.9824L25.9661 48.2498L25.4887 48.6559L25.3055 48.2701C25.1193 47.8605 25.1075 47.4847 25.4136 47.2207Z" fill="black"/>
<path fill-rule="evenodd" clip-rule="evenodd" d="M29.5999 17.8357C30.1254 18.2453 31.0562 18.6819 31.0562 18.6819V17.9845L29.0054 17.1011C29.0054 17.1011 29.0054 17.3855 29.5999 17.8357Z" fill="black"/>
<path fill-rule="evenodd" clip-rule="evenodd" d="M31.0525 16.9959V16.2987L28.7256 15.361C28.7256 15.361 29.0019 15.6927 29.5964 16.1496C30.1217 16.5559 31.0525 16.9959 31.0525 16.9959Z" fill="black"/>
<path fill-rule="evenodd" clip-rule="evenodd" d="M31.0532 15.4119V14.7113L28.5039 13.6552C28.5039 13.6552 29.0024 14.1088 29.5969 14.5657C30.1224 14.9753 31.0532 15.4119 31.0532 15.4119Z" fill="black"/>
<path fill-rule="evenodd" clip-rule="evenodd" d="M38.2139 24.9337H40.8201C40.712 24.5071 40.3066 24.0773 39.5469 24.0773C38.8265 24.0773 38.394 24.5444 38.2139 24.9337Z" fill="black"/>
<path fill-rule="evenodd" clip-rule="evenodd" d="M35.4885 13.6552L32.9453 14.7113V15.4119C32.9453 15.4119 33.8761 14.9753 34.4016 14.5657C34.9931 14.1088 35.4885 13.6552 35.4885 13.6552Z" fill="black"/>
<path fill-rule="evenodd" clip-rule="evenodd" d="M34.9931 17.1011L32.9453 17.9879V18.6852C32.9453 18.6852 33.8761 18.2453 34.4016 17.839C34.9931 17.3855 34.9931 17.1011 34.9931 17.1011Z" fill="black"/>
<path fill-rule="evenodd" clip-rule="evenodd" d="M35.2678 15.361L32.9409 16.2987V16.9959C32.9409 16.9959 33.8746 16.5593 34.3971 16.1531C34.9917 15.6927 35.2678 15.361 35.2678 15.361Z" fill="black"/>
<path fill-rule="evenodd" clip-rule="evenodd" d="M24.4444 24.0773C23.6848 24.0773 23.2795 24.5071 23.1714 24.9337H25.7807C25.5945 24.5444 25.1681 24.0773 24.4444 24.0773Z" fill="black"/>
<path fill-rule="evenodd" clip-rule="evenodd" d="M37.1754 11.7729C37.1754 10.1211 34.7132 8.64185 31.9959 8.64185C29.2786 8.64185 26.8165 10.1211 26.8165 11.7729L26.8735 12.1792L27.9543 19.1963L22.82 22.571C22.2736 22.9333 21.5889 23.9284 21.5019 24.9304H22.4386C22.5948 23.9284 23.2944 22.8181 24.6066 22.8859C25.7926 22.9569 26.4951 23.7693 27.1917 24.9304L27.3719 25.2351L27.6302 25.692H20.0786C20.6341 26.9478 21.1596 28.2815 21.1596 29.727V47.427C21.1596 51.9799 24.2613 54.1497 27.6211 54.1497C30.2154 54.1497 30.5666 54.0176 31.999 55.6322C33.4251 54.0176 33.7765 54.1497 36.3766 54.1497C39.7335 54.1497 42.8382 51.9799 42.8382 47.427V29.7304C42.8382 28.285 43.3637 26.9512 43.9191 25.6953H36.3616L36.6228 25.2384L36.803 24.9337C37.4966 23.7728 38.2022 22.9603 39.3883 22.8892C40.6943 22.8216 41.4 23.9318 41.553 24.9337H42.4868C42.4029 23.9318 41.7152 22.9333 41.1718 22.5745L36.0373 19.1996L37.1213 12.1825L37.1754 11.7729ZM27.8673 12.5786L31.6986 14.0476V20.8074L28.8761 19.1354L27.8673 12.5786ZM28.8102 26.9209C29.3145 27.6993 30.1313 28.2748 31.0981 28.4981C31.1792 28.9077 31.3774 29.3579 31.7616 29.7202C31.6025 30.9286 32.0619 32.0558 33.2149 32.3537C33.335 32.9697 33.6744 33.4335 34.2418 33.6535L33.4402 34.6961C33.1338 35.0955 32.7345 35.2241 32.4042 35.1768L28.8252 34.7197C28.9813 34.2729 28.5669 33.755 27.4349 33.975L28.8432 29.5408L27.9844 27.4861L26.357 29.05L26.2368 33.7009L25.5464 33.3184C24.6365 32.8784 24.3723 34.7298 25.237 34.7366L25.5793 34.7401C25.5583 34.9297 25.6094 35.1395 25.7414 35.2038C25.5793 35.2818 25.5313 35.6269 25.7354 35.7489C25.5284 35.8572 25.5012 36.2092 25.6665 36.3614C25.4863 36.7034 25.4593 37.4447 26.0867 37.6308C26.6003 37.7832 26.9215 37.1603 27.0265 36.7981L32.5934 38.7412C33.383 38.9949 33.9416 38.8529 34.5961 38.2064L36.0494 36.7745C35.8662 37.7121 36.1665 38.555 36.8 38.8359C36.8 38.8359 36.71 39.6788 36.737 40.0546H22.2435V29.7304C22.2435 28.769 21.9973 27.8076 21.7031 26.9209H28.8102ZM34.7973 30.8372C34.4909 31.4974 34.521 32.2555 34.8814 32.9427L34.6412 33.2067C33.5963 33.0611 33.185 31.3043 33.185 31.3043C33.1639 31.4635 33.1519 31.6158 33.1549 31.7715C32.5453 31.5176 32.1611 30.9084 32.191 30.0721C32.4223 30.2178 32.6805 30.3194 32.9567 30.3735L33.0289 29.8589C32.2992 29.7167 31.8728 29.2023 31.7106 28.593C31.6746 28.5895 31.6446 28.5794 31.6115 28.5761C31.7407 28.5862 31.8697 28.5997 32.0019 28.5997C32.4343 28.5997 32.8456 28.5252 33.2299 28.3966C33.5332 28.8841 34.0707 29.2327 34.6111 29.3005C34.5241 29.7066 34.5661 30.211 34.7973 30.8372ZM36.3437 35.4813C36.2385 35.6405 36.1544 35.8233 36.1003 36.023L35.5179 36.6256C35.635 35.6643 35.0616 34.5301 34.5391 34.0664L35.1577 33.3827L35.2807 33.5249C35.0735 34.1375 35.4789 35.3393 36.3437 35.4813ZM33.5303 35.1803L34.0107 34.6487C34.497 35.1294 35.1396 36.2024 34.9385 37.2248L34.416 37.7663C34.3078 37.8847 34.1969 37.9693 34.0827 38.0472C34.4099 37.1365 33.9926 35.7354 33.5303 35.1803ZM32.4973 35.6304H32.5124C32.6865 35.6608 32.8726 35.6269 33.0408 35.5491C33.407 36.1381 33.6924 37.4785 33.254 38.3147C33.0048 38.3214 32.7615 38.2707 32.5332 38.1963L32.3532 38.1352C32.7225 37.4888 32.6715 36.3447 32.4973 35.6304ZM31.2873 35.4611L31.9629 35.5559C32.071 36.1888 31.999 37.2822 31.6415 37.9052L30.8549 37.6478C31.2002 37.1198 31.3623 36.0332 31.2873 35.4611ZM29.8791 35.2682L30.6988 35.3765C30.7798 35.8842 30.6267 36.964 30.3174 37.4785L29.4827 37.2078C29.8159 36.7102 29.9361 35.8334 29.8791 35.2682ZM26.5612 35.021C26.1799 35.1598 26.0117 34.8484 26.0268 34.5844C26.7744 34.2764 27.1077 34.4761 27.3269 34.6318C27.528 34.774 27.6962 35.1803 27.9664 35.434C27.9214 35.7792 27.8284 36.2802 27.7172 36.6155C26.9515 36.3953 26.9125 35.6337 27.1978 35.17C27.0386 34.9601 26.8705 34.9059 26.5612 35.021ZM26.0268 36.7034C26.0268 36.7034 26.2549 36.8117 26.5432 36.8355C26.5102 37.0148 26.3871 37.1841 26.1919 37.1365C26.0298 37.096 25.9577 36.8725 26.0268 36.7034ZM25.2731 34.2323C25.0839 34.0902 25.168 33.7788 25.3783 33.7788C25.6094 33.7856 25.9156 34.08 26.2189 34.2255C26.2189 34.2255 25.4232 34.3475 25.2731 34.2323ZM26.0509 36.0265C26.216 36.2058 26.7113 36.1381 26.7113 36.1381L26.7294 36.2498C26.5131 36.5747 25.9127 36.4292 26.0509 36.0265ZM26.7174 35.6575C26.363 35.8165 25.9997 35.5998 26.1108 35.3426C26.276 35.5119 26.7354 35.4272 26.7354 35.4272L26.7174 35.6575ZM27.2399 31.0099L26.5612 33.7957L26.7925 29.3005L27.8432 28.2884L28.3778 29.6119L27.0265 33.9785L27.3839 31.0403C27.417 30.8304 27.2698 30.8068 27.2399 31.0099ZM27.2878 34.3881C27.2878 34.3881 28.0444 34.3475 28.2577 34.4387C28.4139 34.5133 28.3087 34.8112 28.1044 34.7774C27.8914 34.7468 27.2878 34.3881 27.2878 34.3881ZM28.4739 35.0651L29.2965 35.1803C29.3597 35.6878 29.2425 36.5477 28.9481 37.0284L28.1525 36.7677C28.3627 36.2024 28.4139 35.6711 28.4739 35.0651ZM41.7543 47.4305C41.7543 49.5832 40.8714 51.2183 39.4033 52.1254L39.9287 50.9203H39.4182L38.7426 52.4639C38.0431 52.7618 37.2504 52.9276 36.3736 52.9276C33.6953 52.9276 32.9868 53.0495 31.9959 54.1631C31.0019 53.0495 30.2935 52.9276 27.6181 52.9276C26.7473 52.9276 25.9548 52.7686 25.2581 52.4707H25.2761L25.9517 50.9203H25.4443L24.8528 52.2778C24.7115 52.2032 24.5735 52.1219 24.4414 52.034L24.9278 50.9203H24.4234L24.0631 51.7496C22.916 50.7985 22.2404 49.3091 22.2404 47.4305V40.6604H41.7483V47.4305H41.7543ZM42.2977 26.9209C41.9945 27.8076 41.7512 28.769 41.7512 29.7304V40.0546H40.6853C40.2019 39.5265 39.7935 37.7663 39.7935 37.7663C39.5294 38.3993 39.8326 39.6821 40.1149 40.0546H38.7426C38.4034 39.5366 38.1092 37.702 38.1092 37.702C37.6979 38.23 37.9591 39.6551 38.2142 40.0546H37.3014C37.2444 39.32 37.4306 38.5211 37.4306 38.5211C36.9531 38.4229 36.4457 38.1386 36.4486 37.5428C36.6888 37.7968 36.788 37.7934 37.1213 37.7867L37.5086 37.4412C36.2235 37.4888 36.1635 35.8977 37.1843 35.153C36.1665 35.1902 35.4068 34.5066 35.7761 33.2879C35.0526 32.8647 34.7973 31.4838 35.3317 30.8778C34.9445 30.4039 34.8814 29.4731 35.1276 28.8401C34.6142 28.8401 34.0377 28.6098 33.7163 28.2138C33.6924 28.2273 33.6623 28.2376 33.6352 28.2477C34.2779 27.9532 34.8212 27.4929 35.1876 26.9242H42.2977V26.9209ZM38.4124 21.9516C37.3556 22.1582 36.4457 23.6169 35.701 24.9337L35.617 25.086H34.8212L34.8184 25.2419C34.7372 26.2572 33.8815 27.635 31.9959 27.635C31.1252 27.635 30.4677 27.3337 30.0172 26.9242C29.6269 26.5653 29.3806 26.122 29.2605 25.6988C29.2155 25.5465 29.1885 25.3907 29.1764 25.2419L29.1704 25.086H28.3807L28.2966 24.9337C27.549 23.6204 26.6393 22.1614 25.5853 21.9516L28.4648 20.0661L32.0019 22.2326L35.5329 20.0661L38.4124 21.9516ZM35.1156 19.1354L32.2961 20.8074V14.0476L36.1274 12.5786L35.1156 19.1354ZM31.999 13.3097L27.8103 11.4446C28.1646 10.4968 29.807 9.68778 31.999 9.68778C34.1878 9.68778 35.8272 10.4968 36.1814 11.4446L31.999 13.3097Z" fill="black"/>
<path fill-rule="evenodd" clip-rule="evenodd" d="M41.3065 33.5924L41.3154 33.0744C39.9072 33.0372 39.5831 31.1653 39.5831 31.1653C39.1715 32.543 40.2466 33.572 41.3065 33.5924Z" fill="black"/>
<path fill-rule="evenodd" clip-rule="evenodd" d="M39.529 36.7642L39.388 36.2735C38.187 36.6187 37.5655 34.4727 37.5655 34.4727C37.1811 36.0331 38.5202 37.1367 39.529 36.7642Z" fill="black"/>
<path fill-rule="evenodd" clip-rule="evenodd" d="M40.364 34.7738C38.9288 35.0311 38.3404 33.1492 38.3404 33.1492C38.1812 34.1748 38.7697 35.2139 39.7215 35.3222C39.5053 36.6594 40.6072 37.3464 41.562 36.8691L41.4239 36.4021C40.5952 36.7168 39.8177 35.7926 40.364 34.7738Z" fill="black"/>
<path fill-rule="evenodd" clip-rule="evenodd" d="M39.5051 29.402L39.5171 28.8841C37.6224 28.4441 37.7816 26.975 37.7816 26.975C37.3732 28.3594 38.4481 29.3818 39.5051 29.402Z" fill="black"/>
<path fill-rule="evenodd" clip-rule="evenodd" d="M27.5008 50.9203L26.8223 52.4707H27.3326L28.0083 50.9203H27.5008Z" fill="black"/>
<path fill-rule="evenodd" clip-rule="evenodd" d="M28.5247 50.9203L27.8491 52.4707H28.3625L29.0321 50.9203H28.5247Z" fill="black"/>
<path fill-rule="evenodd" clip-rule="evenodd" d="M32.6264 50.9203L31.9507 52.4707H32.4582L33.1367 50.9203H32.6264Z" fill="black"/>
<path fill-rule="evenodd" clip-rule="evenodd" d="M33.6528 50.9203L32.9712 52.4707H33.4846L34.1571 50.9203H33.6528Z" fill="black"/>
<path fill-rule="evenodd" clip-rule="evenodd" d="M31.6022 50.9203L30.9238 52.4707H31.4341L32.1096 50.9203H31.6022Z" fill="black"/>
<path fill-rule="evenodd" clip-rule="evenodd" d="M37.5923 52.4707H38.1026L38.7783 50.9203H38.2678L37.5923 52.4707Z" fill="black"/>
<path fill-rule="evenodd" clip-rule="evenodd" d="M29.5515 50.9203L28.876 52.4707H29.3863L30.0619 50.9203H29.5515Z" fill="black"/>
<path fill-rule="evenodd" clip-rule="evenodd" d="M30.5725 50.9203L29.897 52.4707H30.4104L31.086 50.9203H30.5725Z" fill="black"/>
<path fill-rule="evenodd" clip-rule="evenodd" d="M28.2542 42.5867C28.1612 42.5867 28.0801 42.6882 28.0801 42.8202C28.0801 42.9489 28.1612 43.0538 28.2542 43.0538C28.3503 43.0538 28.4344 42.9489 28.4344 42.8202C28.4315 42.6882 28.3503 42.5867 28.2542 42.5867Z" fill="black"/>
<path fill-rule="evenodd" clip-rule="evenodd" d="M31.9988 7.5959C34.1006 7.5959 35.785 8.38112 36.7128 9.22406C36.7128 9.22406 36.9921 7.34195 37.9319 5.69018L36.2384 5.9034L35.3526 3.77755L33.6502 4.77612L31.9988 2.92798L30.3474 4.77612L28.6388 3.77755L27.7531 5.9034L26.0596 5.69018C27.0025 7.34195 27.2786 9.22406 27.2786 9.22406C28.2095 8.38112 29.8969 7.5959 31.9988 7.5959ZM28.0443 6.74965L28.8521 4.82017L30.3474 5.71724L31.9988 3.87918L33.6502 5.71724L35.1455 4.82017L35.9442 6.74965L36.9381 6.57703C36.6828 7.11519 36.4906 7.58569 36.3135 8.24578C35.2266 7.53156 33.6111 6.97987 31.9988 6.97987C30.3804 6.97987 28.7681 7.53156 27.681 8.24578C27.5009 7.58569 27.3118 7.11519 27.0535 6.57703L28.0443 6.74965Z" fill="black"/>
<path fill-rule="evenodd" clip-rule="evenodd" d="M33.7279 3.79456C33.974 3.81831 34.1932 3.6084 34.2142 3.33414C34.2383 3.05657 33.8779 2.31873 33.8779 2.31873C33.8779 2.31873 33.3404 2.97206 33.3224 3.24963C33.2985 3.52043 33.4845 3.76749 33.7279 3.79456Z" fill="black"/>
<path fill-rule="evenodd" clip-rule="evenodd" d="M36.5021 4.92863C36.7214 5.06051 36.9886 4.96246 37.1057 4.71526C37.2258 4.47153 37.1477 3.6355 37.1477 3.6355C37.1477 3.6355 36.4331 3.99773 36.3161 4.24477C36.202 4.48851 36.2861 4.79316 36.5021 4.92863Z" fill="black"/>
<path fill-rule="evenodd" clip-rule="evenodd" d="M30.2665 3.79456C30.5156 3.76749 30.6988 3.52375 30.6778 3.24963C30.6538 2.97206 30.1224 2.31873 30.1224 2.31873C30.1224 2.31873 29.7649 3.06002 29.7861 3.33414C29.8041 3.6084 30.0232 3.81831 30.2665 3.79456Z" fill="black"/>
<path fill-rule="evenodd" clip-rule="evenodd" d="M27.4948 4.92863C27.714 4.79316 27.7951 4.48851 27.681 4.24477C27.5668 3.99773 26.8493 3.6355 26.8493 3.6355C26.8493 3.6355 26.7743 4.47153 26.8944 4.71526C27.0054 4.96246 27.2757 5.06051 27.4948 4.92863Z" fill="black"/>
<path fill-rule="evenodd" clip-rule="evenodd" d="M60.7787 22.1243C61.3702 21.8873 61.8265 21.251 62.0547 20.662C60.5505 20.4183 56.5539 18.5261 53.2691 20.0663C54.5003 18.7496 55.6052 18.5803 55.7102 16.6847C56.2206 17.0977 57.0824 17.3312 57.5689 16.3463C57.2297 15.219 56.3738 16.1329 56.2538 15.8215C56.0856 15.3882 57.3316 15.9536 57.5989 14.4879C56.6291 14.1121 56.3408 15.0057 56.1666 14.7992C56.0076 14.6029 56.7822 14.2271 56.2118 13.0459C55.2028 13.7127 55.7282 14.4608 55.5151 14.5453C55.2569 14.6605 55.461 13.7431 54.3441 13.7872C54.233 15.1378 55.392 15.1818 55.2028 15.395C54.9716 15.6557 54.6714 14.6199 53.8277 15.1446C53.8426 16.2346 54.6263 16.8335 55.4341 16.5763C55.3019 18.6481 53.6145 18.2621 52.3594 20.5977C55.0198 22.1346 56.2237 24.8154 57.8601 26.6704C58.4006 26.2371 59.3253 24.3145 59.3253 24.3145C61.0968 25.8614 62.3429 24.3211 62.3429 24.3211C61.7335 23.6172 61.7094 23.0823 60.7787 22.1243ZM58.1964 22.5001C58.3795 22.9571 58.7429 24.5514 57.8752 25.7667C56.8874 23.5427 55.5301 21.637 54.4311 20.8144C54.1909 20.6384 54.5633 20.3304 55.2419 20.2289C57.2866 19.7922 59.6857 20.767 60.8267 21.109C60.2951 21.5557 59.8629 21.7588 59.3193 21.8332C60.1481 22.6186 60.7546 23.282 61.1809 24.02C60.3793 24.2467 59.9259 23.6747 58.1964 22.5001Z" fill="black"/>
<path fill-rule="evenodd" clip-rule="evenodd" d="M41.1146 57.0744V54.5424C39.379 55.4393 37.1721 56.167 34.3317 56.4549L34.2026 57.3587C34.4427 57.3959 34.7491 57.4298 35.1574 57.4602C34.1065 57.6228 32.7463 57.7005 32.0017 57.7005C31.254 57.7005 29.8969 57.6228 28.8429 57.4602C29.2482 57.4298 29.5546 57.3959 29.7948 57.3587L29.6658 56.4549C26.8252 56.167 24.6153 55.4393 22.8828 54.5424V57.0744L20.5288 58.1642C22.2734 59.1865 24.2791 60.0193 26.5971 60.6929L26.3208 61.7524C27.648 62.1926 29.7707 62.6393 31.9956 62.6393C34.2207 62.6393 36.3404 62.1891 37.6705 61.7524L37.3974 60.6929C39.7123 60.0193 41.7241 59.1865 43.4685 58.1642L41.1146 57.0744ZM21.7869 58.2218L23.3754 57.5009V55.4393C24.3962 55.8827 25.7353 56.3432 27.6569 56.7933L26.7562 60.1005C24.7955 59.5927 23.1292 58.909 21.7869 58.2218ZM31.9987 62.0333C30.2061 62.0333 28.4557 61.7321 26.9604 61.3158L27.9122 57.846C28.5427 58.012 30.122 58.2286 31.9987 58.2286C33.8783 58.2286 35.4486 58.0087 36.0821 57.846L37.037 61.3158C35.5357 61.7321 33.7882 62.0333 31.9987 62.0333ZM37.2441 60.1005L36.3434 56.7933C38.2651 56.3467 39.6043 55.8827 40.6252 55.4393V57.5009L42.2105 58.2218C40.8684 58.909 39.2078 59.5927 37.2441 60.1005Z" fill="black"/>
<path fill-rule="evenodd" clip-rule="evenodd" d="M4.67185 24.3145C4.67185 24.3145 5.59658 26.2371 6.13417 26.6704C7.7736 24.8188 8.98051 22.1379 11.6378 20.5977C10.3797 18.2621 8.69231 18.6548 8.56614 16.5763C9.37389 16.8335 10.1546 16.2311 10.1726 15.1446C9.32577 14.6199 9.02567 15.6625 8.79749 15.395C8.60823 15.1751 9.7642 15.1378 9.65618 13.7872C8.53925 13.7466 8.74337 14.6605 8.48206 14.5453C8.27193 14.4608 8.7975 13.7094 7.78563 13.0459C7.21808 14.2306 7.99576 14.6029 7.83362 14.7992C7.66241 15.0057 7.36808 14.1154 6.40137 14.4879C6.66257 15.9536 7.91463 15.3882 7.74648 15.8215C7.62632 16.1329 6.77365 15.219 6.43734 16.3463C6.91786 17.3346 7.78256 17.1011 8.28997 16.688C8.39799 18.5869 9.49994 18.7461 10.7341 20.0663C7.44626 18.5261 3.44986 20.4183 1.93943 20.6655C2.17079 21.251 2.62713 21.8874 3.21862 22.1175C2.28776 23.0857 2.26382 23.6205 1.6543 24.3211C1.6543 24.3211 2.89729 25.8614 4.67185 24.3145ZM2.81026 24.0234C3.23961 23.2854 3.84312 22.6186 4.67787 21.8367C4.13143 21.7588 3.70208 21.5557 3.16756 21.109C4.31149 20.767 6.71362 19.7887 8.76141 20.2289C9.43391 20.3304 9.81231 20.6384 9.56609 20.8144C8.4672 21.637 7.107 23.5427 6.11908 25.7667C5.25437 24.5514 5.62063 22.9604 5.79786 22.5035C4.07129 23.6747 3.62107 24.2467 2.81026 24.0234Z" fill="black"/>
<path fill-rule="evenodd" clip-rule="evenodd" d="M30.5601 22.9027V24.0165C30.8993 23.5527 31.56 23.6441 31.56 23.6441V25.252C31.56 25.252 31.536 26.044 31.2897 26.3826H32.0014H32.7129C32.4638 26.044 32.4426 25.252 32.4426 25.252V23.6474C32.4426 23.6474 33.1003 23.556 33.4396 24.0197V22.9062H32.0014H30.5601V22.9027Z" fill="black"/>
</svg>
