<svg width="64" height="23" viewBox="0 0 64 23" fill="none" xmlns="http://www.w3.org/2000/svg">
<path fill-rule="evenodd" clip-rule="evenodd" d="M4.34828 0L3.26053 2.97955H18.3343L19.4221 0H4.34828ZM2.71632 4.46866L1.62857 7.44753H16.7023L17.7901 4.46866H2.71632ZM1.08775 8.93731L0 11.9162H15.0738L16.1608 8.93731H1.08775Z" fill="#009FDF"/>
<mask id="mask0_476_574" style="mask-type:alpha" maskUnits="userSpaceOnUse" x="22" y="4" width="42" height="19">
<path d="M22.6155 22.7776H63.8782V4.52594H22.6155V22.7776Z" fill="white"/>
</mask>
<g mask="url(#mask0_476_574)">
<path fill-rule="evenodd" clip-rule="evenodd" d="M32.0459 13.0516V13.1145C32.7348 13.3673 33.3928 13.8095 33.7376 14.0934C34.8028 14.9777 35.273 16.1459 35.273 17.6616C35.273 20.1569 33.9569 21.9566 31.795 22.5252C31.137 22.7144 30.4481 22.778 29.1629 22.778H22.6155V4.52594H28.4116C29.6023 4.52594 30.4166 4.58881 31.137 4.7781C33.2365 5.34666 34.615 6.7995 34.615 9.10415C34.615 10.3359 34.1763 11.3784 33.4559 12.0727C33.1426 12.3884 32.7039 12.7677 32.0459 13.0516ZM26.2497 14.9777V19.7777H28.7564C29.5077 19.7777 30.1972 19.7148 30.699 19.2409C31.2001 18.767 31.4194 18.1673 31.4194 17.3777C31.4194 16.778 31.2624 16.2095 30.9492 15.7991C30.4166 15.1359 29.7586 14.9777 28.631 14.9777H26.2497ZM26.2182 11.8199H28.2547C28.8812 11.8199 29.1944 11.8199 29.5077 11.7252C30.3542 11.4724 30.8868 10.7152 30.8868 9.67272C30.8868 8.44164 30.3227 7.90416 29.5077 7.652C29.1629 7.55736 28.8188 7.52558 28.1292 7.52558H26.2182V11.8199ZM40.7244 22.778V7.58844H35.4923V4.52594H50.03L48.9964 7.58844H44.3586V22.778H40.7244ZM51.1576 22.778V4.52594H62.9384L61.9048 7.58844H54.761V11.6306H57.6749C60.0246 11.6306 61.2467 12.1991 62.0926 12.9252C62.7506 13.4938 63.8782 14.7566 63.8782 17.2519C63.8782 19.7148 62.7191 21.0723 61.7478 21.7673C60.6202 22.5562 59.4296 22.778 57.0168 22.778H51.1576ZM54.761 19.7148H57.487C58.5207 19.7148 59.1472 19.462 59.5859 18.8934C59.8052 18.6095 60.1185 18.1038 60.1185 17.1566C60.1185 16.2095 59.8052 15.5463 59.1787 15.0723C58.8031 14.7884 58.3014 14.6309 57.4555 14.6309H54.761V19.7148Z" fill="#0A2973"/>
</g>
</svg>
