<svg width="96" height="96" viewBox="0 0 96 96" fill="none" xmlns="http://www.w3.org/2000/svg">
<g filter="url(#filter0_d_277_457)">
<path d="M79.2043 35.3734C79.0301 35.1737 78.9281 34.9909 78.7839 34.737C78.7089 34.6083 78.6278 34.4695 78.5377 34.3206C78.787 33.9957 78.9972 33.62 79.1563 33.2069L79.7929 31.572L78.2255 31.3181C77.9613 31.2741 77.5349 31.1488 77.0364 31C76.0756 30.7157 74.8416 30.3499 73.4965 30.1909C73.9558 29.9641 74.3462 29.5544 74.6193 28.9993L74.8776 28.4748C74.8776 28.4748 74.8085 27.7402 74.5564 27.5101C74.6525 27.2833 74.7275 27.0327 74.7787 26.7584L74.9917 25.5872L73.9888 25.2014C73.8328 25.1405 73.6767 25.0965 73.5234 25.0694C73.4664 24.8562 73.3824 24.6293 73.2682 24.389L72.6737 23.1602L71.6018 23.8677C71.3346 24.0438 71.1095 24.2469 70.9262 24.4737C70.7672 24.4398 70.5959 24.4229 70.4158 24.4229C70.4158 24.4229 69.8033 24.345 69.1277 24.6225L68.2629 23.6104L67.239 22.3783C66.2813 21.2241 64.9842 20.8822 63.663 21.4509C63.1585 20.8822 62.3719 20.4117 61.1499 20.4117C60.7355 20.4117 60.3721 20.4692 60.159 20.4997C60.159 20.4997 58.4775 20.8449 57.5318 21.857L56.3848 21.241C55.6161 22.6051 54.301 23.0384 54.301 23.0384C54.2109 22.6389 54.0576 22.2666 53.8385 21.9247L53.9137 21.4441C53.9137 21.4306 54.1718 19.8024 54.9585 18.4213L56.3277 16.0179L54.388 16.2651C54.3939 16.0484 54.3851 15.7912 54.358 15.4865L54.1838 13.6179L52.6645 14.3932C52.4964 14.4777 52.3552 14.5624 52.2232 14.6403L51.9229 13.9193L51.2264 14.3254C51.1573 14.1325 51.0672 13.9125 50.9441 13.6587L50.1425 12L49.0044 13.3844C48.8872 13.5267 48.7882 13.6587 48.7041 13.7839L48.0136 13.0087L47.317 13.7872C47.2299 13.662 47.1338 13.53 47.0167 13.3879L45.8667 12L45.0619 13.6654C44.9389 13.9193 44.8519 14.1359 44.7828 14.3288L44.0892 13.9227L43.7889 14.6437C43.6568 14.5658 43.5156 14.4812 43.3475 14.3932L41.8222 13.6214L41.6541 15.4967C41.6271 15.7979 41.6181 16.0517 41.6241 16.2684L39.6814 16.0214L41.0535 18.4246C41.8432 19.8024 42.0954 21.4306 42.0954 21.4441L42.1675 21.9247C41.9484 22.2701 41.7923 22.6424 41.7051 23.0418C41.7051 23.0418 40.462 22.4427 39.6303 21.241L38.4594 21.8706C37.1232 20.8551 36.2944 20.4591 34.8532 20.4117C33.6312 20.3744 32.8445 20.8822 32.3401 21.4509C31.016 20.8855 29.7218 21.2274 28.767 22.3818C28.767 22.3818 28.1394 23.1502 27.7431 23.6139C27.3468 24.0809 26.7613 24.4669 26.7613 24.4669C26.7613 24.4669 25.9295 24.257 25.0739 24.477C24.8908 24.2502 24.6625 24.0471 24.3923 23.8677L23.3172 23.1602L22.7258 24.3958C22.6117 24.6328 22.5306 24.8562 22.4766 25.0694C22.3235 25.0965 22.1674 25.1405 22.0113 25.2014L21.0143 25.594L21.2216 26.7584C21.2725 27.0395 21.3446 27.29 21.4436 27.5167C21.3867 27.642 21.3357 27.7741 21.2936 27.9128L21.1255 28.4781L21.3807 29.0028C21.6509 29.5544 22.0382 29.9675 22.5007 30.1943C21.1525 30.3534 19.9214 30.719 18.9577 31.0033C18.4622 31.1488 18.0358 31.2776 17.7716 31.3214L16.1982 31.5788L16.5555 32.4926L16.8408 33.2204C17.0029 33.6267 17.2161 34.0025 17.4623 34.3273C17.3692 34.4763 16.9728 35.177 16.7957 35.3767L16 36.2872L16.7627 37.2349C16.8588 37.3501 17.7145 38.3623 19.0987 38.3656C19.477 38.3656 19.8523 38.2912 20.2247 38.1423C20.5939 38.7922 21.0323 39.4523 21.4316 39.7772C20.696 40.752 19.8583 41.5983 18.6664 42.2381L17.6695 42.773L18.0988 44.0558C18.3781 44.8309 18.9216 45.6806 19.9725 46.0055C19.7472 46.7638 19.6392 47.4814 19.5431 48.1212C19.3179 49.641 19.2218 50.2705 18.0358 50.7411L16.9699 51.1609L17.2761 52.3863C17.5223 53.3847 17.8917 54.0449 18.2909 54.4815L17.5825 55.3616C17.5825 55.3616 19.2639 56.7834 20.9123 56.956C20.9362 56.9595 22.3415 57.061 22.972 56.1538C23.2242 57.1827 23.6236 58.1307 23.9869 58.9904C24.7316 60.7574 25.1279 61.8033 24.6295 62.7578L23.5034 64.9107L25.7164 64.8058C26.6833 64.7617 27.581 64.694 28.3587 64.4773C28.3587 64.5249 28.3557 64.5687 28.3526 64.6129L28.1725 66.461L30.1121 66.0008C30.3163 65.933 30.5086 65.8416 30.6827 65.7366C31.8836 67.3208 33.9254 68.5563 36.6759 68.5563H36.8349L33.6732 70.0186L35.9761 71.3693C37.4924 72.2595 39.177 73.0043 41.0987 73.6371L40.8313 74.6765L41.9874 75.0589C42.654 75.2789 45.065 76 48.0015 76C50.9381 76 53.3461 75.2789 54.0157 75.0589L55.1687 74.6765L54.9013 73.6406C56.8261 73.0076 58.5106 72.2629 60.0268 71.3727L62.3298 70.022L59.1651 68.5597H59.3243C62.0746 68.5597 64.1133 67.3242 65.3144 65.7399C65.4886 65.8449 65.6808 65.9363 65.8848 66.0041L67.8245 66.4645L67.6474 64.6196C67.6443 64.5755 67.6415 64.5282 67.6415 64.4808C68.4161 64.6975 69.3169 64.7617 70.2806 64.8092L72.4935 64.9141L71.3736 62.7646C70.8721 61.8101 71.2715 60.7642 72.0132 58.9972C72.3765 58.1374 72.7758 57.1894 73.028 56.1605C73.4544 56.5261 73.9138 56.7461 74.3702 56.8613C74.3702 56.8613 74.7245 56.9798 75.0638 56.9898C76.0426 57.0236 76.5321 56.7089 77.2046 56.2316L78.4267 55.3651L77.712 54.485C78.1114 54.0517 78.4807 53.3915 78.7269 52.3965L79.0361 51.1676L77.9673 50.7481C76.7782 50.2773 76.6852 49.6478 76.4601 48.1278C76.364 47.4882 76.2588 46.7673 76.0306 46.0122C77.0815 45.6841 77.6219 44.8343 77.9013 44.0626L78.3277 42.7763L77.3308 42.2414C76.1387 41.6018 75.3009 40.7555 74.5624 39.7805C74.9646 39.4556 75.403 38.7954 75.7754 38.1456C76.1446 38.2947 76.5201 38.3656 76.9014 38.3691C78.2856 38.3691 79.1443 37.3569 79.2374 37.2417L80 36.294L79.2043 35.3734Z" fill="white"/>
<path fill-rule="evenodd" clip-rule="evenodd" d="M38.2437 52.0545V41.7303C38.2437 40.769 37.9975 39.8075 37.7031 38.9242H44.8104C45.4619 39.9328 46.6448 40.6097 48.0021 40.6097C49.3532 40.6097 50.5362 39.9328 51.1907 38.9242H58.2978C57.9975 39.8109 57.7544 40.769 57.7544 41.7303V52.0545H38.2437ZM47.999 66.163C47.0052 65.0495 46.2965 64.9275 43.6183 64.9275C40.4175 64.9275 38.2437 62.8119 38.2437 59.4304V52.6604H57.7514V59.4304C57.7514 62.8119 55.5805 64.9275 52.3738 64.9275C49.6985 64.9242 48.9898 65.0495 47.999 66.163Z" fill="#FFDD2D"/>
<path d="M39.3754 67.4395V69.501L37.7871 70.2219C39.1291 70.9091 40.7957 71.5928 42.7533 72.0971L43.6541 68.79C41.7326 68.3467 40.3932 67.883 39.3754 67.4395Z" fill="white"/>
<path d="M47.9983 70.2321C46.1216 70.2321 44.5423 70.0121 43.9118 69.8496L42.96 73.3192C44.4553 73.7322 46.2057 74.0368 47.9983 74.0368C49.7848 74.0368 51.5353 73.7356 53.0366 73.3192L52.0818 69.8496C51.4512 70.0154 49.8779 70.2321 47.9983 70.2321Z" fill="white"/>
<path d="M56.622 67.4395C55.6011 67.883 54.265 68.3433 52.3433 68.7935L53.2471 72.1006C55.2079 71.5961 56.8682 70.9124 58.2103 70.2254L56.625 69.5043V67.4395H56.622Z" fill="white"/>
<path d="M36.0482 34.1817C38.5343 32.6686 44.6115 29.3378 40.4919 25.7462C39.9305 25.2589 39.312 24.8188 38.7924 24.2738C38.15 24.8323 39.0327 26.2202 39.2549 26.728C39.2549 26.728 37.8827 26.8836 37.5555 26.8836C35.4356 26.8735 33.2137 25.4586 34.3397 22.7472C33.496 22.9436 33.3938 23.8575 33.1357 24.6394C32.5952 24.2265 31.6554 23.3396 30.9318 23.4649C31.5202 25.5871 33.9975 27.4998 35.919 27.9329C33.9764 29.1245 30.3732 30.0113 28.4787 27.4455C27.1485 30.3465 29.0011 31.5583 30.8177 33.0781C23.9028 36.6358 24.9237 40.6267 20.3868 43.768C20.9752 44.0793 23.5995 43.4532 23.8337 43.4159C22.8488 44.8545 22.3894 45.4639 22.1012 46.1646C21.8249 46.8212 21.7018 47.5626 21.4287 49.1603C21.2154 50.4229 20.8251 51.6821 19.4619 52.5182C19.9964 53.6081 21.1825 52.7551 21.6779 52.6096C21.6117 52.7246 21.4435 54.038 20.9992 54.671C23.3292 54.5017 22.2513 48.9639 24.5814 50.2976C25.2389 50.67 25.4371 51.5433 25.1337 52.2575C23.6024 55.8185 27.0824 58.9564 26.8932 62.0774C27.749 62.0706 28.6349 62.0436 29.1932 60.7403C29.4846 61.3902 29.9349 62.3042 30.1871 63.1843L30.8837 61.8472C31.313 64.061 33.1447 66.1055 35.6189 66.2884C34.4388 64.1829 35.8531 61.309 32.9856 58.2523C33.3428 57.9273 34.1686 57.3012 34.4628 56.8747C30.9438 57.3418 27.2716 54.2038 28.938 52.7145C30.028 51.743 30.5054 53.7604 32.1868 53.4219L31.5293 52.7822C31.7604 52.5248 32.0247 52.1899 32.2979 51.936C31.5833 51.8379 30.8026 51.3233 30.8026 51.3233L31.229 50.5277C27.1065 50.5209 27.0013 46.9668 28.6767 46.8247C29.4635 46.7604 30.4814 48.3952 33.0185 48.0533C32.6942 47.6133 32.5652 46.9465 32.4119 46.4557C33.0245 46.3914 33.7452 46.3982 34.3247 46.08C33.0847 45.9006 32.7723 45.43 31.7394 44.55L32.9375 44.0558C31.199 43.0775 31.3041 41.3748 31.2501 39.601C32.1598 40.1899 33.2288 41.104 34.3696 40.6809C34.6399 40.5792 34.8141 40.4372 34.8201 40.119C33.1927 39.3845 32.1479 36.558 36.0482 34.1817ZM33.0786 34.4592C30.9017 37.0826 31.8445 38.6532 32.2829 39.1373C31.4721 38.941 30.2623 37.7765 30.5383 36.6494C30.2803 36.998 30.016 37.3771 29.7458 37.7664C29.2052 38.5788 28.7219 39.3743 28.2925 40.1461C27.632 42.3597 28.8419 44.6448 30.9017 45.6568C28.6138 45.2777 27.5869 42.9827 27.5929 41.5204C26.4999 43.8493 25.9774 45.975 26.0255 47.759C26.0465 48.4224 26.0976 49.0418 26.1756 49.6273C26.7012 50.7512 27.5449 51.1643 29.0491 51.3706C27.683 51.4688 26.9593 51.3977 26.3649 50.6937C27.2956 55.2059 31.6493 59.1121 33.421 62.4564C31.6463 59.8568 27.9743 55.9845 26.6892 53.185C26.59 54.197 26.8302 56.79 27.9472 58.3843C26.3017 56.5599 26.1727 53.7977 26.2808 52.1796C25.8634 51.0152 25.5993 49.7154 25.5632 48.2362C25.53 46.8754 25.6141 45.6941 25.7974 44.6345C24.7584 46.3 23.2571 46.943 22.5185 49.4785C22.6626 46.2084 24.8276 46.1578 26.449 42.1872C27.0764 40.4508 27.9891 38.9511 28.9982 37.2519C27.716 37.7258 26.7552 38.0642 25.2718 39.8955C26.3258 37.086 32.415 33.9279 35.2045 30.8711C34.3667 31.0709 30.9468 31.169 29.5266 30.0994C32.0998 30.8846 37.8257 29.9877 39.9875 28.3222C38.4953 30.7425 35.2465 30.8813 31.2922 35.6949C31.7965 35.2411 32.4691 34.7842 33.0786 34.4592Z" fill="white"/>
<path d="M74.5658 49.1606C74.2927 47.5629 74.1725 46.8215 73.8963 46.1649C73.6111 45.4642 73.1486 44.855 72.1608 43.4162C72.395 43.4535 75.0253 44.0799 75.6108 43.7684C71.0739 40.6271 72.0947 36.6361 65.1768 33.0785C66.9934 31.5587 68.846 30.3469 67.5158 27.4426C65.6213 30.0118 62.0181 29.1249 60.0754 27.93C62.0001 27.4966 64.4741 25.5876 65.0627 23.4618C64.3361 23.3365 63.3963 24.2233 62.8558 24.6329C62.5976 23.851 62.4984 22.9371 61.6547 22.7374C62.7807 25.4521 60.5558 26.867 58.433 26.8772C58.1087 26.8772 56.7396 26.7215 56.7396 26.7215C56.9588 26.2137 57.8415 24.826 57.1959 24.2674C56.6765 24.8158 56.064 25.2524 55.4995 25.7399C51.377 29.3314 57.4602 32.6656 59.9463 34.1752C63.8407 36.5515 62.8048 39.378 61.1744 40.1023C61.1804 40.4205 61.3546 40.5628 61.6278 40.6643C62.7627 41.0908 63.8377 40.177 64.7415 39.5845C64.6904 41.3583 64.7984 43.0642 63.0601 44.0392L64.2551 44.5333C63.2222 45.4134 62.9128 45.884 61.6727 46.0634C62.2493 46.3816 62.976 46.3748 63.5855 46.4391C63.4293 46.9299 63.2943 47.5968 62.976 48.0368C65.5161 48.3752 66.537 46.7438 67.3177 46.808C68.987 46.9503 68.888 50.5044 64.7625 50.5112L65.1889 51.3066C65.1889 51.3066 64.4081 51.8212 63.6905 51.9194C63.9638 52.1698 64.231 52.5084 64.4621 52.7656L63.8046 53.4055C65.4831 53.7439 65.9636 51.7265 67.0534 52.698C68.7198 54.1874 65.0507 57.3251 61.5288 56.8581C61.8259 57.2846 62.6517 57.9142 63.0089 58.2392C60.1385 61.2924 61.5498 64.1696 60.3756 66.2784C62.8438 66.0923 64.6754 64.0478 65.1108 61.834L65.8073 63.171C66.0565 62.2909 66.513 61.3771 66.7982 60.7271C67.3536 62.0304 68.2454 62.0575 69.1042 62.0642C68.909 58.9433 72.3861 55.8054 70.8607 52.2444C70.5545 51.5335 70.7525 50.6602 71.4103 50.2845C73.7461 48.9507 72.6622 54.4887 74.9953 54.6579C74.5479 54.0248 74.3828 52.7115 74.3196 52.5965C74.812 52.7421 75.9952 53.5949 76.5295 52.5016C75.1754 51.6824 74.7851 50.4232 74.5658 49.1606ZM70.2031 44.6315C70.3864 45.6944 70.4793 46.8724 70.4373 48.2332C70.3983 49.7124 70.137 51.0122 69.7197 52.1766C69.8247 53.7948 69.6988 56.5568 68.0532 58.3814C69.1672 56.7837 69.4105 54.1942 69.3113 53.182C68.0202 55.9813 64.3512 59.8538 62.5735 62.4535C64.3481 59.1091 68.7018 55.1994 69.6356 50.6907C69.035 51.3912 68.3175 51.4659 66.9483 51.3677C68.4496 51.1611 69.2933 50.7482 69.8187 49.6244C69.8968 49.0422 69.948 48.4193 69.9688 47.7559C70.02 45.972 69.4946 43.8461 68.4016 41.5173C68.4107 42.9796 67.3837 45.2746 65.0928 45.6538C67.1466 44.6383 68.3595 42.3534 67.702 40.1431C67.2756 39.3713 66.7953 38.5724 66.2487 37.7633C65.9784 37.3741 65.7143 36.995 65.4531 36.6464C65.7293 37.7734 64.5193 38.9379 63.7085 39.1342C64.15 38.6502 65.0898 37.0795 62.9158 34.4562C63.5254 34.7812 64.198 35.2381 64.7054 35.6849C60.751 30.8715 57.5052 30.7361 56.007 28.3126C58.1717 29.978 63.8978 30.8783 66.4679 30.0895C65.0507 31.1592 61.6278 31.061 60.79 30.8613C63.5795 33.918 69.6747 37.0763 70.7256 39.8859C69.2423 38.0545 68.2785 37.716 67.0023 37.2421C68.0142 38.9446 68.921 40.441 69.5486 42.1774C71.1729 46.1479 73.3409 46.1954 73.4819 49.4687C72.7434 46.94 71.245 46.297 70.2031 44.6315Z" fill="white"/>
<path d="M51.1874 38.9205C50.5356 39.9292 49.3497 40.6062 48.0015 40.6062C47.6862 40.6062 47.3829 40.5657 47.0947 40.5047C47.1759 40.9211 47.365 41.351 47.7583 41.7199C47.5992 42.9283 48.0615 44.0589 49.2116 44.3535C49.3346 44.9696 49.671 45.4333 50.2415 45.6532L49.4397 46.6959C49.1305 47.0953 48.7281 47.2239 48.4039 47.1766L44.8249 46.7195C44.9809 46.2727 44.5665 45.7548 43.4316 45.9748L44.8368 41.5405L43.981 39.4859L42.3567 41.0497L42.2366 45.7006L41.537 45.3182C40.6362 44.878 40.369 46.7296 41.2278 46.7364L41.573 46.7399C41.549 46.9293 41.603 47.1393 41.7381 47.207C41.576 47.2814 41.5279 47.6233 41.7292 47.7453C41.5249 47.8569 41.495 48.209 41.6601 48.3613C41.4829 48.7031 41.4498 49.4445 42.0775 49.6307C42.5939 49.783 42.9181 49.16 43.0233 48.7979L48.593 50.7409C49.3767 50.9949 49.9412 50.8526 50.5958 50.2062L52.0491 48.7742C51.8659 49.7119 52.163 50.5547 52.7967 50.8357C52.7967 50.8357 52.6975 51.6954 52.7366 52.051L54.6852 52.0543H57.7538V41.7301C57.7538 40.7688 57.9972 39.8074 58.2974 38.9205H54.6852H51.1874Z" fill="white"/>
<path d="M42.8465 56.2926L42.9547 56.445C43.1048 56.6549 43.1949 56.604 43.366 56.4924L43.6182 56.3401C43.7774 56.2046 44.8133 56.6516 44.8703 55.6801C44.9844 56.4043 44.2188 57.9309 44.6811 58.7841L45.3027 59.9316L43.2729 59.9655C43.0508 59.9655 42.9337 60.1177 42.8737 60.2531L42.3421 61.4954C42.2039 61.8237 42.213 62.1623 42.3871 62.3891L42.7475 62.846C42.7475 62.846 43.0418 62.5651 43.1377 62.1961L42.9786 62.0099C42.8465 61.8677 42.8465 61.7323 42.9186 61.5563L43.2458 60.7914C43.372 60.49 43.5011 60.4257 43.7894 60.5036L45.4318 60.903C45.5518 60.937 45.7471 61.0012 45.8641 60.7744C46.0653 60.3715 46.4196 60.3445 46.78 60.4089C47.6806 60.5611 49.7616 60.8049 50.5032 59.8266C51.3739 61.1299 53.0764 61.1299 52.9653 61.8135L52.605 64.0544H53.1454L53.4757 61.7629C53.5116 61.4954 53.6589 61.1299 53.4036 60.9234C53.2986 60.832 53.2506 60.7846 53.0132 60.3242C52.704 59.7149 52.7191 58.8009 52.4217 58.0122C52.704 57.6365 53.0102 57.5079 53.2774 57.579C53.878 57.7448 54.0401 58.9127 54.8928 59.8637C54.7968 59.4407 54.7549 58.977 54.5536 58.5741C54.5536 58.5741 55.1451 59.092 55.2982 59.6979C55.3943 60.0771 55.4934 60.3546 55.7967 60.5307C55.9978 60.6119 56.238 60.5036 56.4784 60.1786C56.4784 60.1786 55.9167 59.2783 55.5054 58.6893C54.9409 57.8802 54.1872 57.0678 53.1605 57.1626C52.8361 57.1931 52.5238 57.359 52.2267 57.5586C51.0586 56.8207 50.1519 57.6026 49.7915 57.6026L47.6056 57.457C47.1763 57.4267 46.8369 56.8647 46.8369 56.8647C46.7829 54.7797 45.2967 53.9502 44.7832 53.9502C44.7832 53.9502 44.8314 53.5744 44.6961 53.4425L44.2398 54.089L42.9726 53.5677L43.9665 54.4851L42.8885 55.8966C42.7776 56.0355 42.7925 56.2182 42.8465 56.2926Z" fill="white"/>
<path d="M41.4145 59.2205C41.1083 59.4878 41.1233 59.8602 41.3065 60.2766L41.4896 60.6624L41.967 60.2528L41.859 59.9888C41.7809 59.8027 41.784 59.6131 41.919 59.4946L42.6036 58.9124C42.7958 58.7533 42.8559 58.7364 43.0601 58.7702L44.5041 59.1122C44.5041 59.1122 44.285 58.7533 44.213 58.3877L42.8528 58.1845C42.6606 58.1575 42.5436 58.249 42.3755 58.3944L41.4145 59.2205Z" fill="white"/>
<path d="M50.6499 64.0542H51.1965L52.0731 61.6204C52.1031 61.5358 52.1451 61.4986 52.1783 61.4275C51.7849 61.2515 51.5536 61.1296 51.2264 60.9164C51.4456 61.2481 51.6167 61.3903 51.5266 61.6983L50.6499 64.0542Z" fill="white"/>
<path d="M51.1149 31.1354L52.1267 24.5787L48.2925 26.0478V32.8076L51.1149 31.1354ZM48.9409 26.7112L51.4841 25.6552C51.4841 25.6552 50.9887 26.1087 50.3972 26.5656C49.8718 26.9752 48.9409 27.412 48.9409 27.412V26.7112ZM48.9409 28.2988L51.2679 27.3611C51.2679 27.3611 50.9887 27.693 50.4002 28.1499C49.8747 28.5561 48.944 28.9927 48.944 28.9927V28.2988H48.9409ZM48.9409 29.9845L50.9887 29.0976C50.9887 29.0976 50.9887 29.3786 50.3972 29.8322C49.8718 30.2418 48.9409 30.6784 48.9409 30.6784V29.9845Z" fill="white"/>
<path d="M44.2935 36.9338L44.3776 37.0862H45.1673L45.1762 37.2419C45.1853 37.391 45.2154 37.5432 45.2603 37.6988C45.3835 38.122 45.6267 38.5655 46.017 38.9242C46.4704 39.3373 47.125 39.6352 47.9957 39.6352C49.8844 39.6352 50.7371 38.2575 50.8182 37.2419L50.8242 37.0862H51.6167L51.7008 36.9338C52.4456 35.6206 53.3554 34.1616 54.4121 33.9518L51.5297 32.0662L47.9957 34.2326L44.4586 32.0662L41.5791 33.9518C42.6361 34.1582 43.5459 35.6206 44.2935 36.9338Z" fill="white"/>
<path d="M47.6989 32.8076V26.0478L43.8706 24.5787L44.8763 31.1354L47.6989 32.8076ZM47.0533 30.6852C47.0533 30.6852 46.1224 30.2453 45.5971 29.839C45.0056 29.3854 45.0056 29.1011 45.0056 29.1011L47.0562 29.9879V30.6852H47.0533ZM47.0533 26.7112V27.412C47.0533 27.412 46.1224 26.9752 45.5971 26.5656C45.0025 26.1087 44.5041 25.6552 44.5041 25.6552L47.0533 26.7112ZM47.0533 28.2988V28.9961C47.0533 28.9961 46.1224 28.5595 45.5971 28.1532C45.0025 27.6963 44.7263 27.3645 44.7263 27.3645L47.0533 28.2988Z" fill="white"/>
<path d="M47.9983 21.6879C45.8094 21.6879 44.167 22.4968 43.8096 23.4447L47.9983 25.3098L52.1809 23.4447C51.8266 22.4968 50.1871 21.6879 47.9983 21.6879Z" fill="white"/>
<path d="M47.9985 18.9796C49.611 18.9796 51.2263 19.5314 52.3132 20.2456C52.4904 19.5855 52.6796 19.115 52.9378 18.5769L51.9471 18.7495L51.1452 16.82L49.647 17.7171L47.9985 15.879L46.3471 17.7171L44.8518 16.82L44.0442 18.7495L43.0532 18.5769C43.3115 19.115 43.4977 19.5855 43.6809 20.2456C44.7708 19.5314 46.3802 18.9796 47.9985 18.9796Z" fill="white"/>
<path d="M75.3219 33.8397C75.8623 33.7619 76.2978 33.5588 76.8292 33.1118C75.6852 32.7701 73.289 31.7918 71.2443 32.2319C70.5688 32.3334 70.1935 32.6414 70.4336 32.8174C71.5326 33.64 72.8898 35.5456 73.8776 37.7698C74.7454 36.5545 74.382 34.9601 74.1988 34.5032C75.9283 35.6777 76.3818 36.2498 77.1835 36.0264C76.754 35.2851 76.1505 34.6183 75.3219 33.8397Z" fill="white"/>
<path d="M22.1193 37.7667C23.1072 35.5428 24.4643 33.6372 25.5662 32.8145C25.8125 32.6385 25.4311 32.3304 24.7616 32.2289C22.7138 31.7923 20.3118 32.7672 19.1678 33.109C19.7052 33.556 20.1316 33.759 20.6781 33.8368C19.8465 34.6188 19.2428 35.2823 18.8135 36.0235C19.6211 36.2469 20.0716 35.6749 21.798 34.5002C21.6209 34.9606 21.2545 36.5515 22.1193 37.7667Z" fill="white"/>
<path fill-rule="evenodd" clip-rule="evenodd" d="M34.1085 58.4082C34.9043 57.6972 35.5647 57.3417 35.5318 55.6188C34.3367 56.3093 30.9469 56.2721 29.5296 54.0719C29.1302 53.4457 29.5566 53.131 29.9439 53.6251C30.9137 54.864 32.7093 54.3022 33.3639 53.9466C33.2588 53.5202 32.9676 52.965 32.7244 52.7281C32.9706 52.4573 33.6642 52.051 33.8052 51.3538C33.4359 51.127 31.9977 50.9645 31.9977 50.9645C32.229 50.714 32.5171 50.3654 32.3431 49.4345C30.8747 49.9423 29.0582 49.2517 28.6469 48.6391C28.2415 48.0364 28.656 47.4712 28.9982 47.8706C29.7308 48.7371 33.3398 49.729 34.6821 48.2227C34.1837 48.067 33.6341 47.5659 33.535 47.2545C34.7782 47.1125 35.769 46.2864 35.8501 45.2574C35.1624 45.2574 33.8653 45.1999 33.4208 44.8275C34.0154 44.5805 34.3938 44.3367 34.5829 43.5852C32.31 43.4296 32.1299 41.5271 32.1178 41.2124C33.5981 42.1736 36.2043 41.7471 35.5288 39.3776C34.2977 39.3032 33.0576 37.059 36.4416 34.9975C39.5193 33.1189 43.0172 31.0946 42.7079 27.7605C42.5068 25.6279 39.3931 24.1723 38.9968 23.0925C37.6966 23.7898 37.4354 24.5989 38.0209 25.9562C38.0209 25.9562 35.1234 26.2812 34.8952 24.2705C34.7961 23.3701 35.3305 22.5272 35.9041 21.8807C35.5798 21.8807 33.3969 21.2206 32.7393 23.2245C31.5173 22.2836 30.4694 22.3174 29.6467 23.3125C30.9617 24.1926 31.7755 27.212 33.9493 28.1022C32.403 29.0466 29.9019 28.6507 28.4426 25.7463C27.0614 28.0921 26.2658 30.4142 29.2294 32.8954C23.8397 35.6609 23.8788 40.9483 19.1887 43.4667C19.6631 44.9053 20.666 44.9053 21.9452 44.682C19.9182 47.6506 21.6448 50.758 18.4351 52.0274C18.7353 53.2392 19.3388 54.2073 20.5219 53.8519C20.1856 54.4442 19.9634 54.4306 19.4409 55.0806C21.1944 56.3263 23.2753 55.4259 23.7466 51.4282C23.8307 50.714 24.7014 51.1608 24.4012 51.8616C22.4014 56.5227 27.4579 60.0295 25.6683 63.4484C27.2446 63.3737 28.4486 63.235 29.1032 62.6359C29.4245 63.3535 29.6197 64.0644 29.5477 64.7651C30.4184 64.5654 30.7366 63.9865 30.7967 63.3163C31.3673 65.195 33.4089 67.2022 36.6758 67.2022C34.9433 64.4131 36.5557 61.5866 34.1085 58.4082ZM30.8837 61.8438L30.1873 63.1808C29.9379 62.3007 29.4846 61.3869 29.1933 60.737C28.6319 62.0402 27.7461 62.0673 26.8933 62.0741C27.0824 58.9531 23.6025 55.8152 25.1338 52.2542C25.4401 51.5434 25.2389 50.67 24.5812 50.2943C22.2483 48.9606 23.3292 54.4984 20.9993 54.6677C21.4437 54.0346 21.6117 52.7213 21.6778 52.6061C21.1823 52.7518 19.9963 53.6047 19.462 52.5149C20.8252 51.6787 21.2155 50.4196 21.4287 49.157C21.6988 47.5592 21.825 46.8179 22.0982 46.1612C22.3864 45.4606 22.8458 44.8512 23.8307 43.4126C23.5965 43.4498 20.9753 44.0761 20.3838 43.7647C24.9207 40.6234 23.8998 36.6324 30.8147 33.0748C29.0011 31.555 27.1485 30.3431 28.4758 27.4423C30.3703 30.008 33.9705 29.1212 35.9161 27.9296C33.9945 27.4964 31.5173 25.5872 30.9318 23.4615C31.6553 23.3363 32.5952 24.2231 33.1328 24.636C33.3939 23.8507 33.4961 22.9402 34.3398 22.7438C33.2138 25.4552 35.4357 26.8702 37.5556 26.8804C37.8857 26.8804 39.255 26.7245 39.255 26.7245C39.0357 26.2169 38.15 24.8289 38.7925 24.2705C39.312 24.8189 39.9306 25.2555 40.492 25.7429C44.6146 29.3377 38.5343 32.6686 36.0482 34.1818C32.1478 36.558 33.1928 39.3879 34.8202 40.1089C34.8142 40.427 34.64 40.5692 34.3697 40.6708C33.2289 41.0973 32.1598 40.1799 31.2501 39.5909C31.3041 41.3647 31.1961 43.0707 32.9375 44.0456L31.7394 44.5364C32.7693 45.4199 33.0846 45.8869 34.3247 46.0697C33.7452 46.388 33.0276 46.3812 32.412 46.4456C32.5683 46.9363 32.6943 47.6033 33.0186 48.0432C30.4815 48.3819 29.4636 46.7501 28.6768 46.8146C27.0014 46.9566 27.1065 50.511 31.2291 50.5178L30.8027 51.3131C30.8027 51.3131 31.5833 51.8277 32.3011 51.9257C32.0277 52.1763 31.7635 52.5149 31.5324 52.772L32.1899 53.4118C30.5055 53.7502 30.031 51.7328 28.938 52.7043C27.2717 54.1937 30.9438 57.3317 34.4628 56.8644C34.1687 57.2911 33.3398 57.9207 32.9856 58.2456C35.853 61.2989 34.4388 64.1761 35.6188 66.2851C33.1448 66.1021 31.3131 64.0541 30.8837 61.8438Z" fill="black"/>
<path fill-rule="evenodd" clip-rule="evenodd" d="M26.359 50.694C26.9565 51.3946 27.6771 51.4691 29.0432 51.3709C27.539 51.1645 26.6953 50.7514 26.1698 49.6277C26.0947 49.0455 26.0438 48.4225 26.0227 47.7591C25.9747 45.9752 26.4971 43.8495 27.59 41.5206C27.584 42.9795 28.6079 45.2744 30.8989 45.657C28.8392 44.6416 27.6291 42.3566 28.2895 40.1463C28.719 39.3745 29.2025 38.5756 29.7429 37.7667C30.0131 37.3774 30.2773 36.9982 30.5356 36.6495C30.2593 37.7768 31.4694 38.9412 32.2801 39.1374C31.8416 38.6534 30.8989 37.0863 33.0758 34.463C32.4692 34.7879 31.7966 35.2448 31.2862 35.6916C35.2377 30.8782 38.4893 30.7428 39.9817 28.3192C37.8198 29.9847 32.094 30.885 29.5207 30.0961C30.9408 31.1658 34.3609 31.0676 35.1986 30.868C32.4122 33.9246 26.3229 37.083 25.2661 39.8925C26.7493 38.0578 27.7101 37.7227 28.9952 37.2521C27.9834 38.9547 27.0737 40.4509 26.446 42.1875C24.8246 46.1545 22.6568 46.2054 22.5156 49.4754C23.2544 46.9399 24.7556 46.2968 25.7945 44.6314C25.6114 45.6943 25.5242 46.8723 25.5572 48.2331C25.5933 49.7122 25.8576 51.0121 26.2749 52.1765C26.1698 53.7946 26.2959 56.5566 27.9413 58.3813C26.8244 56.7869 26.5841 54.194 26.6832 53.1819C27.9714 55.9812 31.6435 59.8537 33.4181 62.4534C31.6435 59.1124 27.2928 55.2061 26.359 50.694Z" fill="black"/>
<path fill-rule="evenodd" clip-rule="evenodd" d="M67.0048 37.2518C68.2809 37.7257 69.2448 38.061 70.728 39.8956C69.6772 37.086 63.5789 33.9278 60.7924 30.8713C61.6301 31.0675 65.0531 31.1692 66.4704 30.0995C63.9002 30.8881 58.1743 29.9877 56.0093 28.3223C57.5047 30.746 60.7535 30.8814 64.7078 35.6948C64.2004 35.248 63.5278 34.791 62.9183 34.466C65.0922 37.0895 64.1524 38.66 63.7111 39.1441C64.5216 38.9478 65.7317 37.7834 65.4554 36.6561C65.7167 37.0048 65.9809 37.3839 66.2512 37.7732C66.7945 38.5856 67.2751 39.381 67.7044 40.1528C68.365 42.3667 67.1519 44.6514 65.0981 45.6636C67.3892 45.2845 68.416 42.986 68.4041 41.5271C69.5 43.856 70.0225 45.9818 69.9743 47.7656C69.9534 48.429 69.9023 49.0486 69.8242 49.6343C69.2958 50.7579 68.4521 51.171 66.9508 51.3774C68.3201 51.4722 69.0376 51.4012 69.638 50.7005C68.7042 55.2127 64.3535 59.1189 62.576 62.4632C64.3535 59.8636 68.0197 55.9913 69.3139 53.1917C69.4129 54.2039 69.1727 56.7967 68.0558 58.3912C69.7011 56.5667 69.8273 53.8045 69.7221 52.1864C70.1365 51.022 70.3977 49.7222 70.4398 48.2429C70.4788 46.8821 70.3856 45.7008 70.2056 44.6413C71.2474 46.3067 72.7457 46.95 73.4874 49.4853C73.3462 46.2119 71.1784 46.1612 69.554 42.194C68.9234 40.4472 68.0167 38.9512 67.0048 37.2518Z" fill="black"/>
<path fill-rule="evenodd" clip-rule="evenodd" d="M74.0552 44.6749C75.3313 44.9018 76.3343 44.9018 76.8117 43.4632C72.1215 40.9447 72.1607 35.6607 66.771 32.892C69.7345 30.414 68.936 28.0885 67.5577 25.7428C66.1014 28.6471 63.5914 29.0431 62.051 28.0987C64.2188 27.2084 65.0386 24.1891 66.3536 23.309C65.5309 22.3137 64.48 22.2799 63.258 23.2209C62.5974 21.217 60.4176 21.8771 60.0902 21.8771C60.6607 22.5202 61.2013 23.3631 61.0992 24.267C60.874 26.2777 57.9765 25.9526 57.9765 25.9526C58.562 24.5952 58.3007 23.7863 57.0006 23.0889C56.6043 24.1688 53.4937 25.6243 53.2895 27.7567C52.9772 31.091 56.4811 33.1152 59.5558 34.994C62.9396 37.0554 61.6997 39.3031 60.4716 39.3741C59.79 41.7436 62.3963 42.1701 63.8795 41.2087C63.8734 41.5236 63.6844 43.4258 61.4114 43.5817C61.6036 44.3332 61.979 44.5767 62.5735 44.824C62.1291 45.1997 60.832 45.2538 60.1473 45.2538C60.2283 46.2828 61.2223 47.1122 62.4654 47.251C62.3662 47.5624 61.8139 48.0635 61.3183 48.2191C62.6605 49.7253 66.2696 48.7336 67.0023 47.8671C67.3385 47.4677 67.7499 48.0329 67.3475 48.6355C66.9331 49.2514 65.1196 49.942 63.6483 49.4308C63.4802 50.3584 63.7625 50.7104 63.9936 50.961C63.9936 50.961 62.5555 51.1233 62.1831 51.3503C62.3242 52.0476 63.0208 52.4503 63.264 52.7245C63.0177 52.9614 62.7266 53.5165 62.6215 53.9431C63.282 54.3019 65.0775 54.8604 66.0414 53.6215C66.4317 53.1307 66.8581 53.4421 66.4587 54.0684C65.0416 56.2685 61.6517 56.3024 60.4537 55.6152C60.4205 57.3382 61.0811 57.6938 61.8768 58.4044C59.4267 61.5831 61.0451 64.4095 59.3126 67.192C62.5764 67.192 64.6182 65.1847 65.1887 63.306C65.2548 63.9728 65.5669 64.555 66.4347 64.7547C66.3687 64.054 66.5608 63.3432 66.8791 62.6256C67.5397 63.2248 68.7438 63.3635 70.32 63.4379C68.5335 60.0191 73.5899 56.5123 71.5842 51.8512C71.2869 51.1504 72.1576 50.7036 72.2417 51.4179C72.7101 55.4155 74.794 56.316 76.5504 55.0704C76.022 54.4204 75.8028 54.4339 75.4664 53.8415C76.6495 54.1969 77.2501 53.2288 77.5533 52.017C74.3586 50.7511 76.085 47.6436 74.0552 44.6749ZM74.3255 52.6094C74.3887 52.7245 74.5537 54.0379 75.001 54.671C72.6681 54.5016 73.749 48.9638 71.416 50.2975C70.7584 50.6699 70.5634 51.5432 70.8665 52.2573C72.3918 55.8184 68.9149 58.9564 69.1101 62.0772C68.2513 62.0706 67.3595 62.0433 66.8041 60.7401C66.5187 61.3902 66.0594 62.304 65.8103 63.1841L65.1136 61.8471C64.6812 64.0608 62.8495 66.1054 60.3815 66.2915C61.5556 64.186 60.1442 61.3087 63.0148 58.2522C62.6545 57.9272 61.8287 57.2977 61.5316 56.8711C65.0535 57.3382 68.7226 54.2005 67.0563 52.7109C65.9664 51.7394 65.4859 53.757 63.8074 53.4183L64.465 52.7787C64.2338 52.5215 63.9666 52.1863 63.6933 51.9325C64.411 51.8343 65.1917 51.3197 65.1917 51.3197L64.7653 50.5243C68.8878 50.5175 68.9869 46.9632 67.3205 46.8211C66.5368 46.7568 65.5159 48.3917 62.9788 48.0499C63.3 47.6097 63.4322 46.9429 63.5883 46.4521C62.9757 46.3878 62.2521 46.3946 61.6757 46.0764C62.9157 45.897 63.228 45.4265 64.2579 44.5464L63.0629 44.0522C64.8012 43.0739 64.6903 41.3712 64.7443 39.5976C63.8375 40.1866 62.7625 41.1005 61.6306 40.6774C61.3603 40.5758 61.1832 40.4336 61.1772 40.1154C62.8076 39.391 63.8466 36.5646 59.9492 34.1883C57.4661 32.6753 51.3827 29.3443 55.5024 25.7529C56.0668 25.2655 56.6793 24.8254 57.1958 24.2805C57.8413 24.839 56.9587 26.2268 56.7393 26.7346C56.7393 26.7346 58.1086 26.8902 58.4328 26.8902C60.5557 26.8801 62.7806 25.4652 61.6546 22.7504C62.4984 22.9468 62.5974 23.8641 62.8556 24.646C63.3961 24.233 64.333 23.3496 65.0625 23.4748C64.4711 25.5973 61.9998 27.5098 60.0753 27.9429C62.0179 29.1346 65.621 30.0214 67.5156 27.4555C68.8428 30.3565 66.9932 31.5684 65.1767 33.0882C72.0947 36.6425 71.0708 40.6368 75.6105 43.7781C75.0251 44.0894 72.3949 43.4632 72.1607 43.4258C73.1515 44.8645 73.6139 45.4738 73.8961 46.1745C74.1724 46.8312 74.2926 47.5692 74.5658 49.1702C74.7819 50.4328 75.1752 51.692 76.5323 52.5283C76.001 53.608 74.818 52.7549 74.3255 52.6094Z" fill="black"/>
<path fill-rule="evenodd" clip-rule="evenodd" d="M41.3836 61.3465L42.3715 60.4021L42.2213 60.0636C42.1132 59.8199 42.1703 59.8064 42.2845 59.7117L42.807 59.2749C42.9269 59.1632 43.0531 59.1767 43.2002 59.2174L44.7644 59.6303H43.1131C42.7317 59.6573 42.6208 59.8233 42.4826 60.1415L42.3685 60.4021L41.9452 61.3838C41.801 61.7223 41.7259 62.1724 42.1043 62.6801L42.4045 63.083L41.7979 64.4675H42.3084L42.7288 63.5061C42.7618 63.4722 43.3833 62.8325 43.5154 62.1724C43.3352 62.0066 43.2092 61.8914 43.3083 61.6613L43.4974 61.2009C43.5606 61.0487 43.5814 60.9878 43.7616 61.0249L45.4011 61.4244C45.6053 61.4886 45.9055 61.5902 46.1246 61.2178C46.35 60.832 46.3799 60.8726 46.9023 60.9302L47.74 61.0317C48.884 61.1536 50.028 60.832 50.4724 60.4326C50.6285 60.832 50.9378 61.1401 51.0819 61.4515C51.136 61.5666 51.0459 61.7291 50.9769 61.9321L50.0371 64.4641H51.4872L52.307 62.1556C52.3821 61.9355 52.4931 61.7595 52.5772 61.6715L52.1058 64.4675H53.514L53.8863 61.702C53.9674 61.0859 53.9194 60.8896 53.6582 60.6356C53.0727 60.0772 53.0846 58.906 52.8955 58.195C52.9946 58.1308 53.1117 58.0968 53.2499 58.1173C53.5561 58.1477 53.7873 59.0313 54.1476 59.5999C54.8681 60.7406 55.85 61.9998 56.976 60.226C56.8679 60.0231 56.7508 59.8401 56.6127 59.6641L56.2975 59.2478C56.1143 59.0177 55.2436 57.8938 54.8801 57.4911C54.0545 56.5533 52.7874 56.6956 52.283 57.1525C51.1389 56.4755 49.932 57.1864 49.6467 57.1593L47.677 57.0238C47.5869 57.017 47.4519 56.9833 47.3558 56.8107L47.7221 56.6753C47.3799 55.0674 46.5181 53.7235 45.0138 53.49C45.0138 53.49 44.9267 52.9822 44.6954 52.884L44.2451 53.4798C44.1189 53.5001 43.9808 53.5441 43.8667 53.5983L41.9452 52.7926L43.3864 54.4344C43.3864 54.4344 42.6387 55.6293 42.4255 55.8729C42.2845 56.0964 42.2965 56.269 42.4556 56.4823L42.7348 56.8953C42.879 57.1086 43.0381 57.1018 43.2692 56.9697L43.5845 56.7836C43.7227 56.6548 44.185 56.9089 44.3832 56.7057C44.257 57.1729 44.194 57.623 44.1641 57.9786L42.8699 57.8024C42.5876 57.7584 42.4586 57.8024 42.2874 57.9548L41.1825 58.9127C40.8221 59.2242 40.7111 59.7623 40.9333 60.2871L41.3836 61.3465ZM52.0727 61.6206L51.1961 64.0579H50.6495L51.5264 61.6985C51.6165 61.3938 51.4453 61.2517 51.226 60.9199C51.5504 61.1265 51.7846 61.2619 52.1779 61.4312C52.1449 61.4988 52.1028 61.536 52.0727 61.6206ZM43.6175 56.3434L43.3684 56.4925C43.1942 56.6042 43.1071 56.6548 42.9569 56.445L42.8489 56.2893C42.7949 56.2149 42.7769 56.0356 42.888 55.8933L43.9628 54.4818L42.972 53.5644L44.2331 54.0891L44.6954 53.4391C44.8306 53.5679 44.7825 53.9435 44.7825 53.9435C45.2929 53.9435 46.7793 54.7763 46.8363 56.8614C46.8363 56.8614 47.1726 57.4199 47.6019 57.4504L49.7908 57.5992C50.1542 57.5992 51.061 56.8209 52.226 57.5554C52.5202 57.3556 52.8354 57.1965 53.1598 57.1559C54.1865 57.0712 54.9433 57.8769 55.5047 58.6893C55.916 59.2782 56.4806 60.1787 56.4806 60.1787C56.2374 60.5037 56.0001 60.6119 55.7991 60.5306C55.4958 60.3547 55.3966 60.0805 55.3005 59.6981C55.1474 59.0921 54.556 58.5742 54.556 58.5742C54.7571 58.9804 54.7991 59.4409 54.8952 59.8639C54.0395 58.9093 53.8773 57.7449 53.2798 57.5825C53.0156 57.5078 52.7064 57.6366 52.421 58.0089C52.7214 58.7975 52.7064 59.7117 53.0156 60.3242C53.2499 60.7812 53.3008 60.8217 53.406 60.9234C53.6582 61.1265 53.517 61.4954 53.4781 61.7629L53.1538 64.0545H52.6072L52.9676 61.8136C53.0787 61.1298 51.3763 61.1298 50.5054 59.8267C49.7638 60.8049 47.683 60.5612 46.7823 60.4089C46.4189 60.3479 46.0646 60.375 45.8664 60.7779C45.7494 61.0046 45.5542 60.9369 45.4342 60.9032L43.7917 60.5037C43.5034 60.4291 43.3773 60.4936 43.2512 60.7914L42.9239 61.5565C42.8519 61.7358 42.8549 61.8679 42.9869 62.0134L43.1431 62.1995C43.0501 62.5651 42.7528 62.8461 42.7528 62.8461L42.3954 62.3925C42.2212 62.1622 42.2124 61.8306 42.3505 61.5056L42.882 60.2531C42.9449 60.1145 43.0591 59.9654 43.2812 59.9654L45.311 59.9315L44.6894 58.7908C44.2271 57.9345 44.9958 56.4078 44.8786 55.6868C44.8156 56.6515 43.7797 56.2115 43.6175 56.3434ZM41.4136 59.2207L42.3745 58.3947C42.5456 58.2492 42.6597 58.1545 42.8549 58.1815L44.2121 58.3846C44.2871 58.7502 44.5033 59.109 44.5033 59.109L43.0591 58.7671C42.8549 58.7401 42.7949 58.7502 42.6027 58.906L41.9181 59.4882C41.7831 59.6067 41.777 59.7962 41.8551 59.9824L41.9661 60.2498L41.4887 60.6559L41.3055 60.2701C41.1193 59.8605 41.1075 59.4847 41.4136 59.2207Z" fill="black"/>
<path fill-rule="evenodd" clip-rule="evenodd" d="M45.5999 29.8357C46.1254 30.2453 47.0562 30.6819 47.0562 30.6819V29.9845L45.0054 29.1011C45.0054 29.1011 45.0054 29.3855 45.5999 29.8357Z" fill="black"/>
<path fill-rule="evenodd" clip-rule="evenodd" d="M47.0525 28.9959V28.2987L44.7256 27.361C44.7256 27.361 45.0019 27.6927 45.5964 28.1496C46.1217 28.5559 47.0525 28.9959 47.0525 28.9959Z" fill="black"/>
<path fill-rule="evenodd" clip-rule="evenodd" d="M47.0532 27.4119V26.7113L44.5039 25.6552C44.5039 25.6552 45.0024 26.1088 45.5969 26.5657C46.1224 26.9753 47.0532 27.4119 47.0532 27.4119Z" fill="black"/>
<path fill-rule="evenodd" clip-rule="evenodd" d="M54.2139 36.9337H56.8201C56.712 36.5071 56.3066 36.0773 55.5469 36.0773C54.8265 36.0773 54.394 36.5444 54.2139 36.9337Z" fill="black"/>
<path fill-rule="evenodd" clip-rule="evenodd" d="M51.4885 25.6552L48.9453 26.7113V27.4119C48.9453 27.4119 49.8761 26.9753 50.4016 26.5657C50.9931 26.1088 51.4885 25.6552 51.4885 25.6552Z" fill="black"/>
<path fill-rule="evenodd" clip-rule="evenodd" d="M50.9931 29.1011L48.9453 29.9879V30.6852C48.9453 30.6852 49.8761 30.2453 50.4016 29.839C50.9931 29.3855 50.9931 29.1011 50.9931 29.1011Z" fill="black"/>
<path fill-rule="evenodd" clip-rule="evenodd" d="M51.2678 27.361L48.9409 28.2987V28.9959C48.9409 28.9959 49.8746 28.5593 50.3971 28.1531C50.9917 27.6927 51.2678 27.361 51.2678 27.361Z" fill="black"/>
<path fill-rule="evenodd" clip-rule="evenodd" d="M40.4444 36.0773C39.6848 36.0773 39.2795 36.5071 39.1714 36.9337H41.7807C41.5945 36.5444 41.1681 36.0773 40.4444 36.0773Z" fill="black"/>
<path fill-rule="evenodd" clip-rule="evenodd" d="M53.1754 23.7729C53.1754 22.1211 50.7132 20.6418 47.9959 20.6418C45.2786 20.6418 42.8165 22.1211 42.8165 23.7729L42.8735 24.1792L43.9543 31.1963L38.82 34.571C38.2736 34.9333 37.5889 35.9284 37.5019 36.9304H38.4386C38.5948 35.9284 39.2944 34.8181 40.6066 34.8859C41.7926 34.9569 42.4951 35.7693 43.1917 36.9304L43.3719 37.2351L43.6302 37.692H36.0786C36.6341 38.9478 37.1596 40.2815 37.1596 41.727V59.427C37.1596 63.9799 40.2613 66.1497 43.6211 66.1497C46.2154 66.1497 46.5666 66.0176 47.999 67.6322C49.4251 66.0176 49.7765 66.1497 52.3766 66.1497C55.7335 66.1497 58.8382 63.9799 58.8382 59.427V41.7304C58.8382 40.285 59.3637 38.9512 59.9191 37.6953H52.3616L52.6228 37.2384L52.803 36.9337C53.4966 35.7728 54.2022 34.9603 55.3883 34.8892C56.6943 34.8216 57.4 35.9318 57.553 36.9337H58.4868C58.4029 35.9318 57.7152 34.9333 57.1718 34.5745L52.0373 31.1996L53.1213 24.1825L53.1754 23.7729ZM43.8673 24.5786L47.6986 26.0476V32.8074L44.8761 31.1354L43.8673 24.5786ZM44.8102 38.9209C45.3145 39.6993 46.1313 40.2748 47.0981 40.4981C47.1792 40.9077 47.3774 41.3579 47.7616 41.7202C47.6025 42.9286 48.0619 44.0558 49.2149 44.3537C49.335 44.9697 49.6744 45.4335 50.2418 45.6535L49.4402 46.6961C49.1338 47.0955 48.7345 47.2241 48.4042 47.1768L44.8252 46.7197C44.9813 46.2729 44.5669 45.755 43.4349 45.975L44.8432 41.5408L43.9844 39.4861L42.357 41.05L42.2368 45.7009L41.5464 45.3184C40.6365 44.8784 40.3723 46.7298 41.237 46.7366L41.5793 46.7401C41.5583 46.9297 41.6094 47.1395 41.7414 47.2038C41.5793 47.2818 41.5313 47.6269 41.7354 47.7489C41.5284 47.8572 41.5012 48.2092 41.6665 48.3614C41.4863 48.7034 41.4593 49.4447 42.0867 49.6308C42.6003 49.7832 42.9215 49.1603 43.0265 48.7981L48.5934 50.7412C49.383 50.9949 49.9416 50.8529 50.5961 50.2064L52.0494 48.7745C51.8662 49.7121 52.1665 50.555 52.8 50.8359C52.8 50.8359 52.71 51.6788 52.737 52.0546H38.2435V41.7304C38.2435 40.769 37.9973 39.8076 37.7031 38.9209H44.8102ZM50.7973 42.8372C50.4909 43.4974 50.521 44.2555 50.8814 44.9427L50.6412 45.2067C49.5963 45.0611 49.185 43.3043 49.185 43.3043C49.1639 43.4635 49.1519 43.6158 49.1549 43.7715C48.5453 43.5176 48.1611 42.9084 48.191 42.0721C48.4223 42.2178 48.6805 42.3194 48.9567 42.3735L49.0289 41.8589C48.2992 41.7167 47.8728 41.2023 47.7106 40.593C47.6746 40.5895 47.6446 40.5794 47.6115 40.5761C47.7407 40.5862 47.8697 40.5997 48.0019 40.5997C48.4343 40.5997 48.8456 40.5252 49.2299 40.3966C49.5332 40.8841 50.0707 41.2327 50.6111 41.3005C50.5241 41.7066 50.5661 42.211 50.7973 42.8372ZM52.3437 47.4813C52.2385 47.6405 52.1544 47.8233 52.1003 48.023L51.5179 48.6256C51.635 47.6643 51.0616 46.5301 50.5391 46.0664L51.1577 45.3827L51.2807 45.5249C51.0735 46.1375 51.4789 47.3393 52.3437 47.4813ZM49.5303 47.1803L50.0107 46.6487C50.497 47.1294 51.1396 48.2024 50.9385 49.2248L50.416 49.7663C50.3078 49.8847 50.1969 49.9693 50.0827 50.0472C50.4099 49.1365 49.9926 47.7354 49.5303 47.1803ZM48.4973 47.6304H48.5124C48.6865 47.6608 48.8726 47.6269 49.0408 47.5491C49.407 48.1381 49.6924 49.4785 49.254 50.3147C49.0048 50.3214 48.7615 50.2707 48.5332 50.1963L48.3532 50.1352C48.7225 49.4888 48.6715 48.3447 48.4973 47.6304ZM47.2873 47.4611L47.9629 47.5559C48.071 48.1888 47.999 49.2822 47.6415 49.9052L46.8549 49.6478C47.2002 49.1198 47.3623 48.0332 47.2873 47.4611ZM45.8791 47.2682L46.6988 47.3765C46.7798 47.8842 46.6267 48.964 46.3174 49.4785L45.4827 49.2078C45.8159 48.7102 45.9361 47.8334 45.8791 47.2682ZM42.5612 47.021C42.1799 47.1598 42.0117 46.8484 42.0268 46.5844C42.7744 46.2764 43.1077 46.4761 43.3269 46.6318C43.528 46.774 43.6962 47.1803 43.9664 47.434C43.9214 47.7792 43.8284 48.2802 43.7172 48.6155C42.9515 48.3953 42.9125 47.6337 43.1978 47.17C43.0386 46.9601 42.8705 46.9059 42.5612 47.021ZM42.0268 48.7034C42.0268 48.7034 42.2549 48.8117 42.5432 48.8355C42.5102 49.0148 42.3871 49.1841 42.1919 49.1365C42.0298 49.096 41.9577 48.8725 42.0268 48.7034ZM41.2731 46.2323C41.0839 46.0902 41.168 45.7788 41.3783 45.7788C41.6094 45.7856 41.9156 46.08 42.2189 46.2255C42.2189 46.2255 41.4232 46.3475 41.2731 46.2323ZM42.0509 48.0265C42.216 48.2058 42.7113 48.1381 42.7113 48.1381L42.7294 48.2498C42.5131 48.5747 41.9127 48.4292 42.0509 48.0265ZM42.7174 47.6575C42.363 47.8165 41.9997 47.5998 42.1108 47.3426C42.276 47.5119 42.7354 47.4272 42.7354 47.4272L42.7174 47.6575ZM43.2399 43.0099L42.5612 45.7957L42.7925 41.3005L43.8432 40.2884L44.3778 41.6119L43.0265 45.9785L43.3839 43.0403C43.417 42.8304 43.2698 42.8068 43.2399 43.0099ZM43.2878 46.3881C43.2878 46.3881 44.0444 46.3475 44.2577 46.4387C44.4139 46.5133 44.3087 46.8112 44.1044 46.7774C43.8914 46.7468 43.2878 46.3881 43.2878 46.3881ZM44.4739 47.0651L45.2965 47.1803C45.3597 47.6878 45.2425 48.5477 44.9481 49.0284L44.1525 48.7677C44.3627 48.2024 44.4139 47.6711 44.4739 47.0651ZM57.7543 59.4305C57.7543 61.5832 56.8714 63.2183 55.4033 64.1254L55.9287 62.9203H55.4182L54.7426 64.4639C54.0431 64.7618 53.2504 64.9276 52.3736 64.9276C49.6953 64.9276 48.9868 65.0495 47.9959 66.1631C47.0019 65.0495 46.2935 64.9276 43.6181 64.9276C42.7473 64.9276 41.9548 64.7686 41.2581 64.4707H41.2761L41.9517 62.9203H41.4443L40.8528 64.2778C40.7115 64.2032 40.5735 64.1219 40.4414 64.034L40.9278 62.9203H40.4234L40.0631 63.7496C38.916 62.7985 38.2404 61.3091 38.2404 59.4305V52.6604H57.7483V59.4305H57.7543ZM58.2977 38.9209C57.9945 39.8076 57.7512 40.769 57.7512 41.7304V52.0546H56.6853C56.2019 51.5265 55.7935 49.7663 55.7935 49.7663C55.5294 50.3993 55.8326 51.6821 56.1149 52.0546H54.7426C54.4034 51.5366 54.1092 49.702 54.1092 49.702C53.6979 50.23 53.9591 51.6551 54.2142 52.0546H53.3014C53.2444 51.32 53.4306 50.5211 53.4306 50.5211C52.9531 50.4229 52.4457 50.1386 52.4486 49.5428C52.6888 49.7968 52.788 49.7934 53.1213 49.7867L53.5086 49.4412C52.2235 49.4888 52.1635 47.8977 53.1843 47.153C52.1665 47.1902 51.4068 46.5066 51.7761 45.2879C51.0526 44.8647 50.7973 43.4838 51.3317 42.8778C50.9445 42.4039 50.8814 41.4731 51.1276 40.8401C50.6142 40.8401 50.0377 40.6098 49.7163 40.2138C49.6924 40.2273 49.6623 40.2376 49.6352 40.2477C50.2779 39.9532 50.8212 39.4929 51.1876 38.9242H58.2977V38.9209ZM54.4124 33.9516C53.3556 34.1582 52.4457 35.6169 51.701 36.9337L51.617 37.086H50.8212L50.8184 37.2419C50.7372 38.2572 49.8815 39.635 47.9959 39.635C47.1252 39.635 46.4677 39.3337 46.0172 38.9242C45.6269 38.5653 45.3806 38.122 45.2605 37.6988C45.2155 37.5465 45.1885 37.3907 45.1764 37.2419L45.1704 37.086H44.3807L44.2966 36.9337C43.549 35.6204 42.6393 34.1614 41.5853 33.9516L44.4648 32.0661L48.0019 34.2326L51.5329 32.0661L54.4124 33.9516ZM51.1156 31.1354L48.2961 32.8074V26.0476L52.1274 24.5786L51.1156 31.1354ZM47.999 25.3097L43.8103 23.4446C44.1646 22.4968 45.807 21.6878 47.999 21.6878C50.1878 21.6878 51.8272 22.4968 52.1814 23.4446L47.999 25.3097Z" fill="black"/>
<path fill-rule="evenodd" clip-rule="evenodd" d="M57.3065 45.5924L57.3154 45.0744C55.9072 45.0372 55.5831 43.1653 55.5831 43.1653C55.1715 44.543 56.2466 45.572 57.3065 45.5924Z" fill="black"/>
<path fill-rule="evenodd" clip-rule="evenodd" d="M55.529 48.7642L55.388 48.2735C54.187 48.6187 53.5655 46.4727 53.5655 46.4727C53.1811 48.0331 54.5202 49.1367 55.529 48.7642Z" fill="black"/>
<path fill-rule="evenodd" clip-rule="evenodd" d="M56.364 46.7738C54.9288 47.0311 54.3404 45.1492 54.3404 45.1492C54.1812 46.1748 54.7697 47.2139 55.7215 47.3222C55.5053 48.6594 56.6072 49.3464 57.562 48.8691L57.4239 48.4021C56.5952 48.7168 55.8177 47.7926 56.364 46.7738Z" fill="black"/>
<path fill-rule="evenodd" clip-rule="evenodd" d="M55.5051 41.402L55.5171 40.8841C53.6224 40.4441 53.7816 38.975 53.7816 38.975C53.3732 40.3594 54.4481 41.3818 55.5051 41.402Z" fill="black"/>
<path fill-rule="evenodd" clip-rule="evenodd" d="M43.5008 62.9203L42.8223 64.4707H43.3326L44.0083 62.9203H43.5008Z" fill="black"/>
<path fill-rule="evenodd" clip-rule="evenodd" d="M44.5247 62.9203L43.8491 64.4707H44.3625L45.0321 62.9203H44.5247Z" fill="black"/>
<path fill-rule="evenodd" clip-rule="evenodd" d="M48.6264 62.9203L47.9507 64.4707H48.4582L49.1367 62.9203H48.6264Z" fill="black"/>
<path fill-rule="evenodd" clip-rule="evenodd" d="M49.6528 62.9203L48.9712 64.4707H49.4846L50.1571 62.9203H49.6528Z" fill="black"/>
<path fill-rule="evenodd" clip-rule="evenodd" d="M47.6022 62.9203L46.9238 64.4707H47.4341L48.1096 62.9203H47.6022Z" fill="black"/>
<path fill-rule="evenodd" clip-rule="evenodd" d="M53.5923 64.4707H54.1026L54.7783 62.9203H54.2678L53.5923 64.4707Z" fill="black"/>
<path fill-rule="evenodd" clip-rule="evenodd" d="M45.5515 62.9203L44.876 64.4707H45.3863L46.0619 62.9203H45.5515Z" fill="black"/>
<path fill-rule="evenodd" clip-rule="evenodd" d="M46.5725 62.9203L45.897 64.4707H46.4104L47.086 62.9203H46.5725Z" fill="black"/>
<path fill-rule="evenodd" clip-rule="evenodd" d="M44.2542 54.5867C44.1612 54.5867 44.0801 54.6882 44.0801 54.8202C44.0801 54.9489 44.1612 55.0538 44.2542 55.0538C44.3503 55.0538 44.4344 54.9489 44.4344 54.8202C44.4315 54.6882 44.3503 54.5867 44.2542 54.5867Z" fill="black"/>
<path fill-rule="evenodd" clip-rule="evenodd" d="M47.9988 19.5959C50.1006 19.5959 51.785 20.3811 52.7128 21.2241C52.7128 21.2241 52.9921 19.3419 53.9319 17.6902L52.2384 17.9034L51.3526 15.7776L49.6502 16.7761L47.9988 14.928L46.3474 16.7761L44.6388 15.7776L43.7531 17.9034L42.0596 17.6902C43.0025 19.3419 43.2786 21.2241 43.2786 21.2241C44.2095 20.3811 45.8969 19.5959 47.9988 19.5959ZM44.0443 18.7497L44.8521 16.8202L46.3474 17.7172L47.9988 15.8792L49.6502 17.7172L51.1455 16.8202L51.9442 18.7497L52.9381 18.577C52.6828 19.1152 52.4906 19.5857 52.3135 20.2458C51.2266 19.5316 49.6111 18.9799 47.9988 18.9799C46.3804 18.9799 44.7681 19.5316 43.681 20.2458C43.5009 19.5857 43.3118 19.1152 43.0535 18.577L44.0443 18.7497Z" fill="black"/>
<path fill-rule="evenodd" clip-rule="evenodd" d="M49.7279 15.7946C49.974 15.8183 50.1932 15.6084 50.2142 15.3341C50.2383 15.0566 49.8779 14.3187 49.8779 14.3187C49.8779 14.3187 49.3404 14.9721 49.3224 15.2496C49.2985 15.5204 49.4845 15.7675 49.7279 15.7946Z" fill="black"/>
<path fill-rule="evenodd" clip-rule="evenodd" d="M52.5021 16.9286C52.7214 17.0605 52.9886 16.9625 53.1057 16.7153C53.2258 16.4715 53.1477 15.6355 53.1477 15.6355C53.1477 15.6355 52.4331 15.9977 52.3161 16.2448C52.202 16.4885 52.2861 16.7932 52.5021 16.9286Z" fill="black"/>
<path fill-rule="evenodd" clip-rule="evenodd" d="M46.2665 15.7946C46.5156 15.7675 46.6988 15.5238 46.6778 15.2496C46.6538 14.9721 46.1224 14.3187 46.1224 14.3187C46.1224 14.3187 45.7649 15.06 45.7861 15.3341C45.8041 15.6084 46.0232 15.8183 46.2665 15.7946Z" fill="black"/>
<path fill-rule="evenodd" clip-rule="evenodd" d="M43.4948 16.9286C43.714 16.7932 43.7951 16.4885 43.681 16.2448C43.5668 15.9977 42.8493 15.6355 42.8493 15.6355C42.8493 15.6355 42.7743 16.4715 42.8944 16.7153C43.0054 16.9625 43.2757 17.0605 43.4948 16.9286Z" fill="black"/>
<path fill-rule="evenodd" clip-rule="evenodd" d="M76.7787 34.1243C77.3702 33.8873 77.8265 33.251 78.0547 32.662C76.5505 32.4183 72.5539 30.5261 69.2691 32.0663C70.5003 30.7496 71.6052 30.5803 71.7102 28.6847C72.2206 29.0977 73.0824 29.3312 73.5689 28.3463C73.2297 27.219 72.3738 28.1329 72.2538 27.8215C72.0856 27.3882 73.3316 27.9536 73.5989 26.4879C72.6291 26.1121 72.3408 27.0057 72.1666 26.7992C72.0076 26.6029 72.7822 26.2271 72.2118 25.0459C71.2028 25.7127 71.7282 26.4608 71.5151 26.5453C71.2569 26.6605 71.461 25.7431 70.3441 25.7872C70.233 27.1378 71.392 27.1818 71.2028 27.395C70.9716 27.6557 70.6714 26.6199 69.8277 27.1446C69.8426 28.2346 70.6263 28.8335 71.4341 28.5763C71.3019 30.6481 69.6145 30.2621 68.3594 32.5977C71.0198 34.1346 72.2237 36.8154 73.8601 38.6704C74.4006 38.2371 75.3253 36.3145 75.3253 36.3145C77.0968 37.8614 78.3429 36.3211 78.3429 36.3211C77.7335 35.6172 77.7094 35.0823 76.7787 34.1243ZM74.1964 34.5001C74.3795 34.9571 74.7429 36.5514 73.8752 37.7667C72.8874 35.5427 71.5301 33.637 70.4311 32.8144C70.1909 32.6384 70.5633 32.3304 71.2419 32.2289C73.2866 31.7922 75.6857 32.767 76.8267 33.109C76.2951 33.5557 75.8629 33.7588 75.3193 33.8332C76.1481 34.6186 76.7546 35.282 77.1809 36.02C76.3793 36.2467 75.9259 35.6747 74.1964 34.5001Z" fill="black"/>
<path fill-rule="evenodd" clip-rule="evenodd" d="M57.1146 69.0744V66.5424C55.379 67.4393 53.1721 68.167 50.3317 68.4549L50.2026 69.3587C50.4427 69.3959 50.7491 69.4298 51.1574 69.4602C50.1065 69.6228 48.7463 69.7005 48.0017 69.7005C47.254 69.7005 45.8969 69.6228 44.8429 69.4602C45.2482 69.4298 45.5546 69.3959 45.7948 69.3587L45.6658 68.4549C42.8252 68.167 40.6153 67.4393 38.8828 66.5424V69.0744L36.5288 70.1642C38.2734 71.1865 40.2791 72.0193 42.5971 72.6929L42.3208 73.7524C43.648 74.1926 45.7707 74.6393 47.9956 74.6393C50.2207 74.6393 52.3404 74.1891 53.6705 73.7524L53.3974 72.6929C55.7123 72.0193 57.7241 71.1865 59.4685 70.1642L57.1146 69.0744ZM37.7869 70.2218L39.3754 69.5009V67.4393C40.3962 67.8827 41.7353 68.3432 43.6569 68.7933L42.7562 72.1005C40.7955 71.5927 39.1292 70.909 37.7869 70.2218ZM47.9987 74.0333C46.2061 74.0333 44.4557 73.7321 42.9604 73.3158L43.9122 69.846C44.5427 70.012 46.122 70.2286 47.9987 70.2286C49.8783 70.2286 51.4486 70.0087 52.0821 69.846L53.037 73.3158C51.5357 73.7321 49.7882 74.0333 47.9987 74.0333ZM53.2441 72.1005L52.3434 68.7933C54.2651 68.3467 55.6043 67.8827 56.6252 67.4393V69.5009L58.2105 70.2218C56.8684 70.909 55.2078 71.5927 53.2441 72.1005Z" fill="black"/>
<path fill-rule="evenodd" clip-rule="evenodd" d="M20.6719 36.3145C20.6719 36.3145 21.5966 38.2371 22.1342 38.6704C23.7736 36.8188 24.9805 34.1379 27.6378 32.5977C26.3797 30.2621 24.6923 30.6548 24.5661 28.5763C25.3739 28.8335 26.1546 28.2311 26.1726 27.1446C25.3258 26.6199 25.0257 27.6625 24.7975 27.395C24.6082 27.1751 25.7642 27.1378 25.6562 25.7872C24.5393 25.7466 24.7434 26.6605 24.4821 26.5453C24.2719 26.4608 24.7975 25.7094 23.7856 25.0459C23.2181 26.2306 23.9958 26.6029 23.8336 26.7992C23.6624 27.0057 23.3681 26.1154 22.4014 26.4879C22.6626 27.9536 23.9146 27.3882 23.7465 27.8215C23.6263 28.1329 22.7736 27.219 22.4373 28.3463C22.9179 29.3346 23.7826 29.1011 24.29 28.688C24.398 30.5869 25.4999 30.7461 26.7341 32.0663C23.4463 30.5261 19.4499 32.4183 17.9394 32.6655C18.1708 33.251 18.6271 33.8874 19.2186 34.1175C18.2878 35.0857 18.2638 35.6205 17.6543 36.3211C17.6543 36.3211 18.8973 37.8614 20.6719 36.3145ZM18.8103 36.0234C19.2396 35.2854 19.8431 34.6186 20.6779 33.8367C20.1314 33.7588 19.7021 33.5557 19.1676 33.109C20.3115 32.767 22.7136 31.7887 24.7614 32.2289C25.4339 32.3304 25.8123 32.6384 25.5661 32.8144C24.4672 33.637 23.107 35.5427 22.1191 37.7667C21.2544 36.5514 21.6206 34.9604 21.7979 34.5035C20.0713 35.6747 19.6211 36.2467 18.8103 36.0234Z" fill="black"/>
<path fill-rule="evenodd" clip-rule="evenodd" d="M46.5601 34.9027V36.0165C46.8993 35.5527 47.56 35.6441 47.56 35.6441V37.252C47.56 37.252 47.536 38.044 47.2897 38.3826H48.0014H48.7129C48.4638 38.044 48.4426 37.252 48.4426 37.252V35.6474C48.4426 35.6474 49.1003 35.556 49.4396 36.0197V34.9062H48.0014H46.5601V34.9027Z" fill="black"/>
</g>
<defs>
<filter id="filter0_d_277_457" x="0" y="0" width="96" height="96" filterUnits="userSpaceOnUse" color-interpolation-filters="sRGB">
<feFlood flood-opacity="0" result="BackgroundImageFix"/>
<feColorMatrix in="SourceAlpha" type="matrix" values="0 0 0 0 0 0 0 0 0 0 0 0 0 0 0 0 0 0 127 0" result="hardAlpha"/>
<feOffset dy="4"/>
<feGaussianBlur stdDeviation="8"/>
<feComposite in2="hardAlpha" operator="out"/>
<feColorMatrix type="matrix" values="0 0 0 0 1 0 0 0 0 1 0 0 0 0 1 0 0 0 0.25 0"/>
<feBlend mode="normal" in2="BackgroundImageFix" result="effect1_dropShadow_277_457"/>
<feBlend mode="normal" in="SourceGraphic" in2="effect1_dropShadow_277_457" result="shape"/>
</filter>
</defs>
</svg>
